<svg id="visual" viewBox="0 0 900 600" width="900" height="600" xmlns="http://www.w3.org/2000/svg" xmlns:xlink="http://www.w3.org/1999/xlink" version="1.1"><rect x="0" y="0" width="900" height="600" fill="#032859"></rect><defs><linearGradient id="grad1_0" x1="33.3%" y1="0%" x2="100%" y2="100%"><stop offset="20%" stop-color="#032859" stop-opacity="1"></stop><stop offset="80%" stop-color="#032859" stop-opacity="1"></stop></linearGradient></defs><defs><linearGradient id="grad2_0" x1="0%" y1="0%" x2="66.7%" y2="100%"><stop offset="20%" stop-color="#032859" stop-opacity="1"></stop><stop offset="80%" stop-color="#032859" stop-opacity="1"></stop></linearGradient></defs><g transform="translate(900, 0)"><path d="M0 378.6C-24.8 347.5 -49.6 316.4 -84.1 313.9C-118.7 311.5 -163 337.7 -189.3 327.9C-215.6 318.1 -223.9 272.3 -241.1 241.1C-258.4 209.9 -284.5 193.3 -291 168C-297.5 142.7 -284.3 108.6 -295.6 79.2C-306.9 49.7 -342.7 24.9 -378.6 0L0 0Z" fill="#FBAE3C"></path></g><g transform="translate(0, 600)"><path d="M0 -378.6C32.4 -363.9 64.9 -349.1 87.7 -327.4C110.6 -305.8 124 -277.2 156.5 -271.1C189 -265 240.7 -281.4 267.7 -267.7C294.7 -254 296.9 -210.3 306.6 -177C316.3 -143.7 333.5 -120.7 346.8 -92.9C360 -65.1 369.3 -32.6 378.6 0L0 0Z" fill="#FBAE3C"></path></g></svg>