<svg width="159" height="161" viewBox="0 0 159 161" fill="none" xmlns="http://www.w3.org/2000/svg">
<g filter="url(#filter0_d_2_37)">
<path d="M67.5677 143.256C67.5677 143.256 65.3987 145.238 63.0628 145.238C63.0628 145.238 60.0595 147.992 58.2242 148.653C56.3888 149.314 54.045 149.816 49.0475 149.974L51.2165 145.238V141.824C51.2165 141.824 47.7127 141.934 46.8784 145.238C46.0442 148.543 38.3691 153.169 36.7006 152.398C35.0321 151.627 38.7028 138.079 38.3691 136.977C38.0354 135.876 35.0321 143.256 28.6918 146.009C22.3516 148.763 31.5283 134.994 31.3614 134.113C31.1946 133.232 14.3428 139.841 12.0069 139.841C9.67103 139.841 20.6831 119.353 20.6831 119.353C20.6831 119.353 13.3417 126.072 14.3428 121.116C15.3439 116.159 20.6831 107.898 20.6831 107.898C20.6831 107.898 14.3428 110.542 14.3428 109C14.3428 107.562 18.403 99.0406 18.9532 97.8925C18.5701 98.6729 16.4564 102.726 14.3428 101.73C12.0069 100.628 14.3428 87.6309 14.3428 87.6309C14.3428 87.6309 12.8412 88.6222 12.0069 87.6309C11.1727 86.6396 14.3428 81.9032 14.3428 81.9032C14.3428 81.9032 9.17048 84.5468 10.3384 83.4453C11.5064 82.3438 14.3428 70.6682 14.3428 70.6682C14.3428 70.6682 2.99706 77.6075 4.66555 75.5147C6.33405 73.4219 24.3538 47.5371 23.019 49.0792C21.6842 50.6213 11.1727 52.4938 12.0069 50.6213C12.8412 48.7488 27.6908 43.7921 27.6908 43.7921C27.6908 43.7921 12.0069 44.7835 12.0069 43.7921C12.0069 42.8008 41.7061 32.2266 43.7083 31.2353C45.7105 30.244 24.6875 30.7947 27.6908 29.4729C30.694 28.1512 61.0606 25.2873 61.0606 25.2873C76.2046 25.0739 84.6763 26.2223 99.7696 29.4729C111.934 31.6337 116.961 33.3039 124.13 36.7427C136.935 43.6632 145.82 60.6447 143.818 60.5346C143.005 60.4899 142.302 60.2273 141.754 59.9312C143.506 61.2833 146.189 63.6187 143.818 63.6187C140.481 63.6187 131.805 55.9084 131.805 55.9084C131.805 55.9084 158.501 82.454 152.828 81.9032C147.155 81.3525 140.481 75.5147 140.481 75.5147C151.308 85.4371 154.588 91.1651 154.496 101.73C148.743 97.5927 146.676 94.6495 143.818 88.9527C149.013 101.194 150.492 121.997 147.155 121.116C143.818 120.235 136.81 107.898 136.81 107.898C136.81 107.898 143.818 130.699 140.481 132.131C137.144 133.562 126.132 122.438 126.132 122.438C126.132 122.438 129.189 139.399 126.132 142.925C123.074 146.451 112.252 138.34 112.784 134.113C113.316 129.886 108.564 147.175 105.443 148.653C102.321 150.131 97.9343 136.977 96.0989 134.113C94.2636 131.249 99.4359 153.83 94.0968 149.974C88.7576 146.119 85.0869 144.027 83.7521 141.824C82.4173 139.621 77.0781 151.627 73.7412 152.398C70.4042 153.169 67.5677 143.256 67.5677 143.256Z" fill="#424A45"/>
<path d="M27.6908 43.7921L27.596 42.2951L27.5956 42.2951L27.5936 42.2953L27.5855 42.2958L27.5527 42.2978L27.4231 42.3058C27.3094 42.3128 27.1421 42.3229 26.9289 42.3354C26.5026 42.3604 25.893 42.3951 25.1613 42.4336C23.6968 42.5107 21.7476 42.6031 19.8015 42.6646C19.124 42.686 18.4503 42.7036 17.8 42.7155C20.5279 41.6157 24.0479 40.269 27.6356 38.9174C30.2097 37.9477 32.8093 36.9789 35.1694 36.0995C36.3261 35.6684 37.4252 35.2589 38.4356 34.8811C41.4391 33.7582 43.7834 32.8719 44.3739 32.5795C44.4805 32.5267 44.8228 32.3554 45.0715 31.9886C45.2205 31.7688 45.3661 31.4319 45.34 31.0128C45.3142 30.597 45.1311 30.2862 44.9669 30.0935C44.6897 29.7685 44.3476 29.6351 44.2421 29.5945C44.0828 29.5332 43.9231 29.4924 43.7917 29.4637C43.2903 29.3542 42.5395 29.2845 41.7267 29.2308C41.0236 29.1844 40.1957 29.1458 39.3018 29.111C41.354 28.8614 43.5223 28.6125 45.6668 28.3754C49.6433 27.9355 53.5274 27.5368 56.418 27.248C57.8632 27.1036 59.0595 26.9867 59.8944 26.906C60.3118 26.8656 60.6388 26.8343 60.8614 26.813L61.1151 26.7889L61.1419 26.7863C76.1092 26.5787 84.463 27.7108 99.4538 30.9393L99.4805 30.945L99.5073 30.9498C111.553 33.0895 116.447 34.7233 123.448 38.0793C129.551 41.3876 134.801 47.145 138.298 52.136C139.937 54.4751 141.157 56.5964 141.882 58.1511C141.827 58.1114 141.777 58.0744 141.729 58.0401C141.61 57.9537 141.513 57.8847 141.445 57.8369L141.366 57.7812L141.344 57.7661L141.338 57.7618L141.336 57.7605L141.336 57.76L141.336 57.7598L141.335 57.7598C141.335 57.7597 141.335 57.7597 140.481 58.9925M27.6908 43.7921L28.1656 45.215L28.1653 45.2151L28.1635 45.2157L28.156 45.2182L28.1253 45.2285L28.0033 45.2695C27.8959 45.3058 27.7377 45.3593 27.5357 45.4283C27.1317 45.5663 26.5527 45.7657 25.8549 46.011C24.4582 46.5019 22.5912 47.1746 20.7018 47.9039C19.2171 48.477 17.7361 49.0784 16.4649 49.6492C17.7502 49.4453 19.0904 49.1404 20.1698 48.8025C20.7111 48.6331 21.1581 48.4643 21.4883 48.3084C21.7938 48.1643 21.8965 48.0784 21.8987 48.0808C21.8989 48.0811 21.8978 48.0826 21.8954 48.0853C21.9261 48.0502 21.9771 47.9934 22.0377 47.9362L22.0378 47.936C22.063 47.9123 22.1502 47.8299 22.2761 47.7498C22.3318 47.7144 22.4836 47.6211 22.7009 47.5634C22.8989 47.5108 23.4626 47.4121 23.9984 47.8209C24.5138 48.2142 24.5774 48.7574 24.5872 48.9323C24.5988 49.1405 24.5638 49.302 24.5491 49.3642C24.5166 49.5029 24.4707 49.6078 24.4569 49.6394C24.4202 49.7232 24.3803 49.7955 24.3597 49.8323C24.2718 49.989 24.1179 50.2308 23.9382 50.5063C23.5612 51.0841 22.953 51.9875 22.1887 53.1094C20.6571 55.3577 18.4745 58.5185 16.2001 61.7901C13.6672 65.4335 10.9968 69.2484 8.9833 72.0933C10.0082 71.5079 11.0177 70.9139 11.8287 70.4309C12.344 70.124 12.7777 69.8629 13.0823 69.6787C13.2345 69.5867 13.3545 69.5138 13.4361 69.4642L13.5291 69.4075L13.5526 69.3931L13.5584 69.3896L13.5598 69.3887L13.5601 69.3886L14.3428 70.6682M27.6908 43.7921L27.5961 42.2951L28.1657 45.215L27.6908 43.7921ZM14.3428 70.6682C15.8004 71.0223 15.8004 71.0224 15.8004 71.0225L15.8002 71.023L15.7998 71.0248L15.7982 71.0316L15.7918 71.0575L15.7674 71.1572C15.7461 71.2442 15.7147 71.3715 15.6744 71.5336C15.5939 71.8578 15.4777 72.3215 15.3347 72.8811C15.0488 73.9995 14.6547 75.505 14.2231 77.0478C13.8588 78.3501 13.4637 79.6937 13.0813 80.8586C13.2269 80.7862 13.3516 80.7236 13.4477 80.6752C13.5158 80.6409 13.5695 80.6137 13.6058 80.5952L13.647 80.5743L13.6572 80.5691L13.6596 80.5678L13.6601 80.5676L13.6602 80.5676L13.6602 80.5676L18.8001 77.9406L15.5896 82.7373L15.5895 82.7374L15.5894 82.7376L15.5885 82.7388L15.5832 82.7468L15.56 82.7819C15.5391 82.8136 15.5077 82.8615 15.4676 82.9236C15.3872 83.0477 15.2722 83.2279 15.1363 83.4477C14.8629 83.8898 14.5119 84.481 14.1895 85.0938C13.9595 85.5308 13.7599 85.9492 13.613 86.3153L16.4385 84.45L15.8192 87.8961L15.8192 87.8962L15.8191 87.8963L15.8189 87.8975L15.8179 87.9035L15.8133 87.9291L15.7951 88.0332C15.7792 88.1254 15.7558 88.262 15.7268 88.437C15.6687 88.7872 15.588 89.2903 15.4982 89.8981C15.3183 91.1163 15.1038 92.7432 14.9613 94.3961C14.8175 96.064 14.7531 97.6943 14.8526 98.943C14.9029 99.5733 14.9895 100.028 15.0895 100.317C15.0963 100.336 15.1028 100.354 15.1091 100.371C15.14 100.361 15.1787 100.345 15.2272 100.32C15.4718 100.197 15.793 99.9298 16.1552 99.5047C16.8672 98.6691 17.4233 97.6043 17.6038 97.2373C17.6048 97.2353 17.6057 97.2334 17.6066 97.2315L17.6469 97.1474L17.659 97.1222L17.6622 97.1157L17.663 97.114L17.6632 97.1135L17.6633 97.1133L17.6633 97.1133L19.0146 97.7645M14.3428 70.6682L13.5602 69.3885L16.6575 67.4941L15.8004 71.0223L14.3428 70.6682ZM19.0146 97.7645L20.3768 98.3925L20.3768 98.3926L20.3767 98.3927L20.3766 98.393L20.3763 98.3935L20.3757 98.3949L20.3741 98.3984L20.3693 98.4086L20.3658 98.4158L20.3657 98.4161L20.365 98.4175L20.3538 98.4414C20.3415 98.4673 20.3245 98.5028 20.303 98.5467C20.0248 99.1273 18.8843 101.52 17.8138 103.944C17.2757 105.162 16.7628 106.371 16.3871 107.354C16.3242 107.519 16.266 107.675 16.2127 107.822C16.4788 107.76 16.7732 107.682 17.0881 107.589C17.8325 107.369 18.5877 107.1 19.164 106.883C19.4503 106.775 19.6885 106.682 19.8541 106.616C19.9368 106.583 20.0012 106.557 20.0442 106.539L20.0923 106.519L20.1035 106.515L20.1058 106.514L20.106 106.514L20.1061 106.513L24.5657 104.654L21.9429 108.712L21.9429 108.712L21.9425 108.713L21.9402 108.716L21.93 108.732L21.8877 108.798C21.8501 108.857 21.794 108.946 21.722 109.061C21.5778 109.29 21.3696 109.625 21.1161 110.044C20.6086 110.881 19.9222 112.048 19.2061 113.365C17.8144 115.924 16.4048 118.883 15.8842 121.089C16.0286 121.01 16.1833 120.92 16.3472 120.818C17.1197 120.34 17.947 119.703 18.5996 119.167C18.9215 118.902 19.1922 118.67 19.3815 118.504C19.476 118.421 19.5499 118.355 19.5994 118.311L19.6547 118.261L19.6677 118.249L19.6704 118.247L19.6706 118.247C19.6706 118.247 19.6706 118.247 19.6717 118.248L22.0043 120.064L20.6831 119.353C22.0043 120.064 22.0043 120.064 22.0043 120.064L22.0039 120.064L22.0026 120.067L21.9968 120.078L21.9738 120.12L21.8833 120.29C21.804 120.438 21.6876 120.657 21.5402 120.936C21.2453 121.493 20.8263 122.289 20.3306 123.245C19.3385 125.158 18.0425 127.705 16.8211 130.247C15.5942 132.8 14.4631 135.307 13.7855 137.156C13.6704 137.47 13.5725 137.754 13.4911 138.008C14.0723 137.847 14.7644 137.638 15.5398 137.392C17.2779 136.841 19.3707 136.128 21.4601 135.415C21.6448 135.353 21.8294 135.29 22.0138 135.227C24.2699 134.458 26.4915 133.705 28.1614 133.201C28.9888 132.951 29.7273 132.747 30.2832 132.636C30.546 132.583 30.8555 132.532 31.1422 132.532C31.2721 132.532 31.5288 132.54 31.8084 132.642C32.1018 132.748 32.6915 133.075 32.8353 133.834C32.9019 134.186 32.8324 134.484 32.81 134.579C32.7767 134.719 32.7313 134.851 32.6913 134.955C32.6104 135.168 32.4998 135.408 32.3823 135.649C32.1444 136.136 31.8097 136.762 31.4441 137.442C31.3967 137.53 31.3485 137.619 31.2999 137.71C30.5839 139.04 29.7448 140.599 29.0735 142.053C28.7155 142.829 28.4197 143.544 28.2198 144.154C28.1603 144.336 28.1128 144.498 28.0756 144.641C28.0818 144.639 28.088 144.636 28.0943 144.633C30.9151 143.408 33.0618 141.116 34.596 139.13C35.1066 138.469 35.5012 137.91 35.8498 137.416C36.0436 137.141 36.2231 136.887 36.4005 136.646C36.592 136.387 36.8729 136.012 37.1771 135.767L37.1818 135.764C37.2844 135.681 37.7767 135.284 38.4803 135.381C39.4211 135.511 39.733 136.306 39.8047 136.542C39.9092 136.887 39.8931 137.242 39.8851 137.4C39.8738 137.62 39.8461 137.87 39.811 138.127C39.7403 138.645 39.6248 139.299 39.4885 140.021C39.3686 140.657 39.2353 141.333 39.0957 142.041C38.9058 143.004 38.7044 144.026 38.5095 145.083C38.1766 146.889 37.898 148.621 37.8002 149.93C37.7724 150.301 37.7614 150.614 37.764 150.868C37.9292 150.819 38.1191 150.755 38.3328 150.671C39.1784 150.342 40.2255 149.788 41.276 149.094C42.3247 148.402 43.3252 147.605 44.0961 146.813C44.901 145.986 45.3133 145.31 45.424 144.871C45.982 142.661 47.4667 141.498 48.7454 140.924C49.3732 140.641 49.9598 140.494 50.3882 140.416C50.6044 140.377 50.7858 140.355 50.9193 140.342C50.9862 140.335 51.0415 140.331 51.0836 140.329C51.1046 140.327 51.1224 140.326 51.1368 140.326L51.1557 140.325L51.1632 140.325L51.1665 140.324L51.168 140.324C51.1687 140.324 51.1694 140.324 51.2165 141.824L51.1694 140.324L52.7165 140.276V141.824V145.238V145.565L52.5803 145.863L51.4379 148.357C54.6889 148.137 56.3822 147.722 57.716 147.241C58.3771 147.003 59.4134 146.298 60.4044 145.519C60.8714 145.151 61.2856 144.802 61.5833 144.545C61.7317 144.416 61.8502 144.311 61.9307 144.239C61.9709 144.203 62.0015 144.176 62.0216 144.157L62.0437 144.137L62.0485 144.133L62.0491 144.133L62.0492 144.132L62.0493 144.132L62.4792 143.738H63.0628C63.8373 143.738 64.6861 143.396 65.425 142.957C65.778 142.748 66.0708 142.537 66.2735 142.38C66.3741 142.302 66.4507 142.238 66.4993 142.197C66.5236 142.176 66.5407 142.161 66.5503 142.153L66.5557 142.148L66.5563 142.148L66.5568 142.147L66.5576 142.147L66.5588 142.145L66.5589 142.145L68.3435 140.514L69.0097 142.842L69.0098 142.843L69.0098 142.843L69.0098 142.843L69.0108 142.846L69.0159 142.864L69.0379 142.938C69.0578 143.005 69.088 143.105 69.1281 143.233C69.2082 143.49 69.3272 143.859 69.4803 144.301C69.7881 145.189 70.2271 146.349 70.7591 147.475C71.3011 148.621 71.8952 149.634 72.4862 150.294C72.7792 150.621 73.0172 150.799 73.1854 150.883C73.3307 150.955 73.3847 150.941 73.4035 150.936C73.4789 150.919 73.709 150.824 74.1032 150.489C74.4773 150.171 74.9017 149.721 75.3689 149.155C76.3061 148.02 77.2868 146.579 78.257 145.152L78.3014 145.087C79.2224 143.732 80.1662 142.343 80.976 141.438C81.3588 141.01 81.8786 140.492 82.4895 140.233C82.8274 140.09 83.323 139.97 83.8747 140.13C84.4441 140.296 84.8149 140.683 85.035 141.046C85.5293 141.862 86.5472 142.782 88.3079 144.068C89.1334 144.672 90.0758 145.324 91.146 146.065L91.2697 146.151C92.3581 146.905 93.5659 147.743 94.8756 148.687C94.8943 148.613 94.913 148.53 94.931 148.436C95.1813 147.137 95.1167 144.962 94.9169 142.539C94.8194 141.357 94.6947 140.164 94.5752 139.05C94.5588 138.897 94.5425 138.745 94.5263 138.595C94.4257 137.66 94.3315 136.784 94.2682 136.055C94.2002 135.27 94.1475 134.463 94.218 133.933C94.2363 133.796 94.2766 133.553 94.3932 133.303C94.4943 133.086 94.8516 132.461 95.6673 132.371C96.3818 132.292 96.85 132.708 96.972 132.823C97.1487 132.988 97.2774 133.172 97.3619 133.304C97.897 134.139 98.5677 135.626 99.2645 137.191C99.3468 137.376 99.4301 137.563 99.5144 137.753C100.172 139.232 100.887 140.842 101.632 142.345C102.483 144.061 103.319 145.525 104.083 146.455C104.446 146.897 104.72 147.127 104.891 147.227C104.916 147.205 104.947 147.176 104.983 147.14C105.112 147.011 105.269 146.823 105.45 146.565C105.816 146.048 106.216 145.344 106.638 144.495C107.48 142.802 108.328 140.692 109.081 138.711C109.407 137.852 109.722 137 110.007 136.226C110.363 135.264 110.673 134.422 110.907 133.837C111.016 133.566 111.121 133.315 111.218 133.113C111.265 133.013 111.322 132.901 111.386 132.794L111.388 132.791C111.429 132.723 111.562 132.501 111.788 132.312C111.896 132.222 112.208 131.981 112.687 131.952C113.294 131.915 113.749 132.232 113.992 132.551C114.188 132.807 114.254 133.061 114.277 133.163C114.306 133.289 114.316 133.4 114.321 133.474C114.336 133.733 114.305 134.038 114.272 134.301C114.216 134.745 114.475 135.632 115.409 136.862C116.287 138.017 117.565 139.213 118.972 140.198C120.389 141.189 121.833 141.896 123.018 142.168C124.252 142.452 124.78 142.195 124.999 141.942C125.164 141.752 125.375 141.355 125.558 140.654C125.735 139.974 125.857 139.123 125.925 138.134C126.061 136.156 125.972 133.79 125.783 131.481C125.596 129.182 125.313 126.984 125.077 125.358C124.959 124.547 124.853 123.88 124.777 123.417C124.739 123.186 124.708 123.006 124.687 122.885L124.663 122.747L124.657 122.714L124.656 122.706L124.656 122.704L124.656 122.704L124.656 122.704L123.798 117.948L127.198 121.382L127.198 121.382L127.198 121.382L127.199 121.383L127.204 121.389L127.226 121.411L127.315 121.499C127.356 121.54 127.407 121.591 127.468 121.651C127.524 121.707 127.589 121.77 127.661 121.841C127.963 122.137 128.399 122.559 128.933 123.061C130.002 124.068 131.457 125.389 133.007 126.662C134.568 127.943 136.177 129.134 137.564 129.912C138.26 130.302 138.843 130.555 139.296 130.677C139.494 130.73 139.634 130.75 139.729 130.756C139.752 130.681 139.777 130.575 139.802 130.43C139.899 129.85 139.91 128.986 139.82 127.86C139.641 125.631 139.097 122.731 138.434 119.809C137.774 116.903 137.01 114.034 136.409 111.888C136.108 110.815 135.85 109.926 135.666 109.306C135.575 108.996 135.502 108.753 135.452 108.588C135.427 108.506 135.408 108.443 135.395 108.401L135.381 108.354L135.377 108.342L135.377 108.339L135.376 108.339L138.114 107.158L138.114 107.157L138.115 107.157L138.115 107.159L138.118 107.164L138.133 107.189L138.19 107.288C138.24 107.376 138.316 107.507 138.413 107.673C138.608 108.006 138.89 108.485 139.24 109.062C139.941 110.219 140.907 111.765 141.972 113.334C143.042 114.91 144.191 116.476 145.257 117.688C145.791 118.295 146.28 118.785 146.707 119.138C146.821 119.232 146.924 119.311 147.016 119.376C147.112 119.061 147.208 118.609 147.283 117.999C147.514 116.135 147.489 113.356 147.192 110.091C146.599 103.568 144.955 95.4713 142.437 89.5387L145.159 88.2801C146.572 91.0985 147.746 93.1435 149.236 94.9815C150.236 96.2146 151.399 97.3802 152.91 98.6267C152.658 94.9997 151.847 92.0186 150.264 89.0956C148.226 85.3306 144.853 81.5557 139.467 76.6205L141.452 74.4042C141.468 74.3854 141.468 74.3854 141.468 74.3853L141.468 74.3856L141.47 74.387L141.481 74.3965L141.531 74.4393C141.576 74.478 141.646 74.5367 141.737 74.6125C141.92 74.7642 142.19 74.9844 142.534 75.2517C143.222 75.7871 144.196 76.5064 145.338 77.2406C147.224 78.453 149.434 79.6171 151.511 80.147C151.303 79.8042 151.038 79.402 150.711 78.9399C149.064 76.6095 146.312 73.401 143.333 70.1208C140.367 66.8548 137.22 63.5675 134.812 61.0938C133.609 59.8577 132.592 58.8263 131.876 58.1043C131.518 57.7433 131.235 57.4597 131.042 57.2666C130.946 57.1701 130.872 57.0962 130.822 57.0465L130.766 56.9905L130.751 56.9765L130.748 56.973L130.747 56.9722C130.747 56.9721 130.747 56.972 131.805 55.9084L130.747 56.972L132.798 54.7905C132.801 54.7871 132.801 54.7871 132.801 54.787L132.801 54.7871L132.802 54.7878L132.806 54.7912L132.823 54.8062L132.892 54.8675C132.954 54.9217 133.046 55.0022 133.165 55.1052C133.403 55.3111 133.749 55.6066 134.174 55.9618C135.026 56.6733 136.192 57.6186 137.456 58.5609C138.105 59.0443 138.772 59.5212 139.429 59.9625L141.335 57.7597L140.481 58.9925M19.0146 97.7645L17.6633 97.1133L20.3768 98.3924L19.0146 97.7645ZM140.481 58.9925L139.436 59.9668C139.436 59.9669 139.436 59.9669 139.436 59.967C139.528 59.8813 139.781 59.645 140.481 58.9925ZM141.57 57.9608L141.571 57.9623C141.569 57.9602 141.569 57.9596 141.57 57.9608ZM152.126 81.431C152.125 81.4307 152.122 81.4178 152.12 81.3948C152.126 81.4199 152.127 81.4313 152.126 81.431ZM153.001 80.4124C153.009 80.4122 153.013 80.4125 153.014 80.4127C153.014 80.4128 153.01 80.4129 153.001 80.4124ZM97.1919 134.328C97.193 134.32 97.1932 134.322 97.1912 134.334C97.1914 134.332 97.1916 134.33 97.1919 134.328ZM94.8251 134.906C94.8232 134.904 94.8245 134.905 94.829 134.912C94.8272 134.909 94.8259 134.908 94.8251 134.906ZM36.8908 137.19C36.89 137.178 36.8901 137.172 36.8903 137.171C36.8905 137.171 36.8908 137.177 36.8908 137.19ZM13.3671 87.1446C13.3676 87.1572 13.3667 87.1586 13.3671 87.1459L13.3671 87.1446ZM21.7426 48.3656C21.7425 48.3658 21.7424 48.366 21.7423 48.3662L21.7426 48.3656ZM13.2853 51.388C13.2835 51.3902 13.282 51.3919 13.2809 51.3931C13.2808 51.3931 13.2807 51.3931 13.2806 51.3931C13.2817 51.3919 13.2832 51.3902 13.2853 51.388ZM27.9594 145.416C27.9594 145.416 27.9591 145.414 27.9586 145.41C27.9593 145.414 27.9595 145.416 27.9594 145.416ZM14.9826 100.373C14.9895 100.376 14.9962 100.38 15.0027 100.383C14.9946 100.381 14.9895 100.377 14.986 100.375C14.9846 100.374 14.9835 100.374 14.9826 100.373ZM15.1742 100.512C15.178 100.517 15.1798 100.52 15.1797 100.52C15.1796 100.52 15.1777 100.518 15.1742 100.512ZM95.24 148.922C95.2558 148.926 95.2644 148.93 95.2648 148.931C95.2651 148.932 95.2572 148.93 95.24 148.922ZM139.671 130.908C139.669 130.912 139.668 130.914 139.667 130.913C139.667 130.913 139.669 130.911 139.671 130.908ZM5.03831 75.8118L4.66555 75.5147L5.03831 75.8118Z" stroke="black" stroke-opacity="0.5" stroke-width="3"/>
</g>
<g filter="url(#filter1_d_2_37)">
<path d="M20.0157 87.6309C19.3115 84.637 20.0157 80.3611 20.0157 80.3611C20.0157 80.3611 19.1933 76.2617 20.0157 74.303L22.1847 76.9466C23.9176 78.5369 25.2015 79.2979 28.1913 80.3611C34.0231 83.496 36.285 84.4219 40.2045 85.9787C43.6364 87.0252 45.2208 87.1344 47.7127 86.8598C50.5445 86.6398 52.015 86.2039 53.8861 85.3178L55.7214 90.1643L61.5612 91.7063C61.5612 91.7063 64.5644 91.7063 69.2362 88.1816C73.908 84.6569 74.7423 84.9873 77.4118 84.3265C80.0814 83.6656 83.2516 82.5641 85.9212 82.7844C88.5907 83.0047 90.9266 84.6569 93.2625 85.3178C95.5984 85.9787 96.5995 85.9787 100.103 85.9787C101.56 85.9787 104.258 85.2167 106.913 84.3265C106.913 92.2571 106.11 95.6717 103.607 97.9848C101.104 100.298 100.437 99.7471 97.6006 101.179C94.7642 102.611 93.5962 102.501 90.4261 103.162C87.2559 103.823 83.919 103.162 81.4162 103.162C78.9135 103.162 78.4129 103.162 75.5765 101.84C72.7401 100.518 72.0727 99.0862 70.4042 97.9848C68.7357 96.8833 65.8992 94.7905 65.8992 94.7905L63.2297 93.2484L61.5612 91.7063L55.7214 90.1643L50.8828 89.944L40.2045 91.7063L30.3603 97.1036C28.8834 97.0468 27.7038 96.573 24.8543 94.7905C21.922 92.7981 20.6496 91.3942 20.0157 87.6309Z" fill="white"/>
<path d="M55.7214 90.1643L50.8828 89.944L40.2045 91.7063L30.3603 97.1036C28.8834 97.0468 27.7038 96.573 24.8543 94.7905C21.922 92.7981 20.6496 91.3942 20.0157 87.6309C19.3115 84.637 20.0157 80.3611 20.0157 80.3611C20.0157 80.3611 19.1933 76.2617 20.0157 74.303L22.1847 76.9466C23.9176 78.5369 25.2015 79.2979 28.1913 80.3611C34.0231 83.496 36.285 84.4219 40.2045 85.9787C43.6364 87.0252 45.2208 87.1344 47.7127 86.8598C50.5445 86.6398 52.015 86.2039 53.8861 85.3178M55.7214 90.1643L53.8861 85.3178M55.7214 90.1643L61.5612 91.7063M53.8861 85.3178C53.4025 83.8321 55.7214 81.6829 52.7182 81.022M61.5612 91.7063C61.5612 91.7063 64.5644 91.7063 69.2362 88.1816C73.908 84.6569 74.7423 84.9873 77.4118 84.3265C80.0814 83.6656 83.2516 82.5641 85.9212 82.7844C88.5907 83.0047 90.9266 84.6569 93.2625 85.3178C95.5984 85.9787 96.5995 85.9787 100.103 85.9787C103.607 85.9787 114.286 81.5728 114.286 81.5728M61.5612 91.7063L63.2297 93.2484L65.8992 94.7905C65.8992 94.7905 68.7357 96.8833 70.4042 97.9848C72.0727 99.0862 72.7401 100.518 75.5765 101.84C78.4129 103.162 78.9135 103.162 81.4162 103.162C83.919 103.162 87.2559 103.823 90.4261 103.162C93.5962 102.501 94.7642 102.611 97.6006 101.179C100.437 99.7471 101.104 100.298 103.607 97.9848C106.11 95.6717 106.913 92.2571 106.913 84.3265" stroke="black" stroke-width="2"/>
</g>
<g filter="url(#filter2_d_2_37)">
<path d="M90.4261 91.0455C90.4261 94.8171 86.5885 97.8746 80.2483 97.8746C75.5765 97.8746 70.2373 94.2664 70.2373 90.4947C70.2373 86.7231 75.733 83.6656 80.2483 83.6656C84.7635 83.6656 90.4261 87.2738 90.4261 91.0455Z" fill="#050505"/>
<ellipse cx="81.5831" cy="88.4019" rx="2.83644" ry="3.41458" fill="#FEFEFE"/>
<path d="M36.3669 87.1903C34.1979 90.8252 34.8631 91.7063 31.3614 91.7063C28.0394 91.5804 25.2313 89.0933 25.0212 86.199C26.1891 83.0047 26.525 81.6829 30.0266 81.6829C33.5283 81.6829 35.0321 83.996 36.3669 87.1903Z" fill="black"/>
<path d="M30.694 83.5554C30.694 84.0421 30.7464 84.6569 30.1935 84.6569C29.6406 84.6569 28.6918 84.0421 28.6918 83.5554C28.6918 83.0688 28.6918 82.2337 29.6929 82.6742C30.2458 82.6742 30.1935 83.0047 30.694 83.5554Z" fill="white"/>
</g>
<g filter="url(#filter3_d_2_37)">
<g filter="url(#filter4_di_2_37)">
<path d="M80.6028 120.414C80.7897 120.29 81.0152 120.178 81.2472 120.077C81.3347 120.023 81.4253 119.971 81.5228 119.918C82.2212 119.541 82.5007 120.491 82.5007 120.772C82.5007 120.955 82.7927 121.112 82.7927 121.309C82.7927 121.41 82.7171 121.48 82.7835 121.584C82.8217 121.644 82.751 121.715 82.751 121.777C82.751 121.84 82.7927 121.894 82.7927 121.957C82.7927 122.374 82.9179 122.786 82.9179 123.203V123.897C82.9179 124.061 82.8717 124.261 82.9387 124.42C83.0114 124.593 82.945 124.824 82.9155 124.999C82.8794 125.213 82.7831 125.425 82.7186 125.638C82.655 125.848 82.5618 126.062 82.459 126.265C82.3612 126.459 82.2151 126.65 82.1276 126.842C82.0526 127.007 81.8555 127.144 81.7916 127.313C81.7362 127.46 81.6267 127.613 81.5321 127.752C81.4324 127.899 81.3566 128.047 81.2494 128.193C81.1925 128.27 81.1727 128.355 81.1242 128.435C81.0807 128.506 80.9857 128.56 80.9574 128.635C80.9033 128.778 80.7488 128.985 80.6422 129.115C80.5101 129.277 80.4385 129.466 80.3827 129.646C80.2341 130.126 80.1754 130.611 80.1208 131.098C80.0886 131.385 80.0051 131.702 79.896 131.979C79.8023 132.218 79.8312 132.518 79.8312 132.764C79.8312 133.125 79.9429 133.485 79.9563 133.847C79.9705 134.233 79.998 134.617 79.998 135.004C79.998 135.68 79.8729 136.356 79.8729 137.032C79.8729 137.657 79.8571 138.313 79.7269 138.932C79.6912 139.102 79.7025 139.272 79.6643 139.442C79.6321 139.585 79.5666 139.723 79.5392 139.868C79.4841 140.159 79.3186 140.428 79.2055 140.71C79.086 141.008 78.9126 141.294 78.8208 141.597C78.7749 141.748 78.782 142.042 78.5751 142.14C77.7803 142.519 76.8585 142.675 75.9009 142.754C75.4303 142.793 75.1031 142.711 74.7005 142.567C74.518 142.502 74.3688 142.404 74.1814 142.341C73.9979 142.279 73.8031 142.25 73.6183 142.194C73.064 142.026 72.4968 141.922 72.1978 141.548C71.9415 141.228 71.7807 140.886 71.7807 140.516C71.7807 140.116 71.5443 139.737 71.4145 139.351C71.3156 139.057 71.1569 138.774 71.0299 138.486C70.8985 138.187 70.8033 137.883 70.6753 137.583C70.5578 137.307 70.4459 137.031 70.4459 136.743C70.4459 136.496 70.3494 136.223 70.4134 135.98C70.4922 135.681 70.5488 135.378 70.622 135.077C70.6947 134.778 70.6218 134.415 70.571 134.113C70.3917 133.048 69.9957 131.899 70.7587 130.891C70.8266 130.802 70.8774 130.695 70.9256 130.599C70.9966 130.459 71.1169 130.306 71.155 130.162C71.1937 130.015 71.2764 129.99 71.0299 130.071C70.7497 130.164 70.4471 130.442 70.3207 130.63C70.2475 130.739 70.12 130.832 70.0705 130.947C70.0022 131.104 69.8039 131.206 69.7136 131.36C69.6258 131.509 69.4776 131.683 69.3405 131.814C69.1618 131.984 68.9151 132.117 68.7449 132.29C68.5169 132.521 68.1618 132.681 67.9014 132.896C67.6123 133.134 67.1887 133.34 66.9629 133.604C66.7291 133.877 66.5624 134.148 66.277 134.402C66.022 134.63 65.911 134.896 65.6073 135.105C65.2565 135.345 65.04 135.665 64.8054 135.958C64.6052 136.208 64.2526 136.396 64.0454 136.645C63.8717 136.854 63.6611 137.041 63.4359 137.226C63.2106 137.412 62.9586 137.589 62.7384 137.776C62.5546 137.932 62.3588 138.028 62.1451 138.161C61.9908 138.258 61.7884 138.285 61.6237 138.369C61.3444 138.513 61.0278 138.448 60.7269 138.437C60.6508 138.434 60.3358 138.379 60.2773 138.348C60.1714 138.292 60.0012 138.349 59.8741 138.325C59.5147 138.257 59.3796 138.007 59.2631 137.792L59.2577 137.782C59.1184 137.524 58.8499 137.245 58.8499 136.962C58.8499 136.807 58.7546 136.65 58.727 136.495C58.6873 136.272 58.7489 136.051 58.7989 135.833C58.9022 135.381 59.0919 134.942 59.1395 134.487C59.1881 134.021 59.4077 133.619 59.6934 133.205C59.9304 132.86 60.0612 132.484 60.4164 132.186C60.5701 132.056 60.8222 131.918 61.0166 131.814C61.2388 131.695 61.4255 131.551 61.6214 131.415C61.9802 131.165 62.3193 130.914 62.6874 130.671C63.0517 130.431 63.5247 130.275 63.9805 130.12C64.5063 129.942 64.9604 129.719 65.4404 129.489C65.7339 129.348 66.0633 129.239 66.3604 129.102C66.7122 128.939 67.1036 128.755 67.4843 128.627C67.9188 128.481 68.3027 128.27 68.7264 128.11C69.1238 127.96 69.525 127.816 69.9222 127.67C70.4462 127.476 70.9673 127.24 71.447 127.003C71.8576 126.799 72.1904 126.545 72.5524 126.307C72.9755 126.027 73.5304 125.854 73.9497 125.577C74.2683 125.366 74.5619 125.165 74.8048 124.916C74.9421 124.775 75.1549 124.634 75.3262 124.504C75.4809 124.388 75.6199 124.254 75.7851 124.145C75.9416 124.042 76.0724 123.91 76.2022 123.793C76.3758 123.636 76.593 123.491 76.7885 123.346C77.1361 123.088 77.4987 122.834 77.7363 122.52C77.9735 122.207 78.2796 121.947 78.6632 121.694C78.881 121.55 79.0723 121.396 79.2889 121.254C79.4486 121.148 79.667 121.025 79.7802 120.896C79.9748 120.674 80.3407 120.587 80.6028 120.414Z" fill="#8A0303"/>
<path d="M82.2151 121.3C82.9861 120.997 83.3656 120.127 83.0626 119.356C82.7596 118.585 81.8889 118.205 81.1179 118.508L82.2151 121.3ZM80.6028 120.414L81.4292 121.665L81.4292 121.665L80.6028 120.414ZM79.7802 120.896L78.6524 119.907L78.6524 119.907L79.7802 120.896ZM79.2889 121.254L78.4625 120.002L78.4625 120.002L79.2889 121.254ZM78.6632 121.694L77.8368 120.442L77.8368 120.442L78.6632 121.694ZM77.7363 122.52L76.5405 121.615L76.5405 121.615L77.7363 122.52ZM76.7885 123.346L77.6828 124.551L77.6828 124.551L76.7885 123.346ZM76.2022 123.793L77.2077 124.906L77.2077 124.906L76.2022 123.793ZM75.7851 124.145L74.9587 122.893L74.9586 122.893L75.7851 124.145ZM75.3262 124.504L76.2296 125.702L76.2296 125.702L75.3262 124.504ZM74.8048 124.916L73.7302 123.869L73.7302 123.869L74.8048 124.916ZM73.9497 125.577L73.1233 124.325L73.1233 124.325L73.9497 125.577ZM72.5524 126.307L73.3788 127.558L73.3788 127.558L72.5524 126.307ZM71.447 127.003L70.7814 125.658L70.7814 125.658L71.447 127.003ZM69.9222 127.67L70.4423 129.077L70.4423 129.077L69.9222 127.67ZM68.7264 128.11L69.2558 129.514L69.2558 129.514L68.7264 128.11ZM67.4843 128.627L67.0062 127.206L67.0062 127.206L67.4843 128.627ZM66.3604 129.102L66.9896 130.463L66.9896 130.463L66.3604 129.102ZM65.4404 129.489L64.7912 128.136L64.7912 128.136L65.4404 129.489ZM63.9805 130.12L64.4627 131.541L64.4627 131.541L63.9805 130.12ZM62.6874 130.671L63.5138 131.923L63.5138 131.923L62.6874 130.671ZM61.6214 131.415L62.4774 132.646L62.4774 132.646L61.6214 131.415ZM61.0166 131.814L61.7256 133.136L61.7256 133.136L61.0166 131.814ZM60.4164 132.186L59.4515 131.037L59.4515 131.037L60.4164 132.186ZM59.6934 133.205L58.4579 132.354L58.4579 132.354L59.6934 133.205ZM59.1395 134.487L57.6476 134.331L57.6476 134.331L59.1395 134.487ZM58.7989 135.833L60.2611 136.167L60.2611 136.167L58.7989 135.833ZM58.727 136.495L60.2038 136.232L60.2038 136.232L58.727 136.495ZM59.2577 137.782L60.5771 137.068L60.577 137.068L59.2577 137.782ZM59.2631 137.792L60.5826 137.078L60.5825 137.078L59.2631 137.792ZM59.8741 138.325L60.1522 136.851L60.1522 136.851L59.8741 138.325ZM60.2773 138.348L60.9779 137.021L60.9778 137.021L60.2773 138.348ZM60.7269 138.437L60.7819 136.938L60.7819 136.938L60.7269 138.437ZM61.6237 138.369L60.9386 137.035L60.9386 137.035L61.6237 138.369ZM62.1451 138.161L62.9405 139.433L62.9405 139.433L62.1451 138.161ZM62.7384 137.776L63.709 138.919L63.709 138.919L62.7384 137.776ZM63.4359 137.226L62.4812 136.07L62.4812 136.07L63.4359 137.226ZM64.0454 136.645L62.8929 135.685L62.8929 135.685L64.0454 136.645ZM64.8054 135.958L63.6343 135.021L63.6343 135.021L64.8054 135.958ZM65.6073 135.105L64.7595 133.867L64.7595 133.867L65.6073 135.105ZM66.277 134.402L67.275 135.522L67.275 135.522L66.277 134.402ZM66.9629 133.604L68.1023 134.579L68.1023 134.579L66.9629 133.604ZM67.9014 132.896L68.8561 134.052L68.8561 134.052L67.9014 132.896ZM68.7449 132.29L67.677 131.236L67.677 131.236L68.7449 132.29ZM69.3405 131.814L70.3757 132.899L70.3757 132.899L69.3405 131.814ZM69.7136 131.36L68.4212 130.598L68.4212 130.598L69.7136 131.36ZM70.0705 130.947L68.6939 130.351L68.6939 130.351L70.0705 130.947ZM70.3207 130.63L69.0765 129.792L69.0764 129.792L70.3207 130.63ZM71.0299 130.071L71.5 131.496L71.5 131.496L71.0299 130.071ZM71.155 130.162L72.6055 130.544L72.6055 130.544L71.155 130.162ZM70.9256 130.599L72.2646 131.275L72.2646 131.275L70.9256 130.599ZM70.7587 130.891L69.563 129.986L69.563 129.986L70.7587 130.891ZM70.571 134.113L69.0918 134.362L69.0918 134.362L70.571 134.113ZM70.622 135.077L69.1646 134.722L69.1646 134.722L70.622 135.077ZM70.4134 135.98L68.9629 135.598L68.9629 135.598L70.4134 135.98ZM70.6753 137.583L72.0553 136.995L72.0553 136.995L70.6753 137.583ZM71.0299 138.486L69.6568 139.089L69.6568 139.089L71.0299 138.486ZM71.4145 139.351L69.9929 139.83L69.9929 139.83L71.4145 139.351ZM72.1978 141.548L71.0262 142.485L71.0262 142.485L72.1978 141.548ZM73.6183 142.194L74.0527 140.758L74.0527 140.758L73.6183 142.194ZM74.1814 142.341L73.7033 143.762L73.7033 143.762L74.1814 142.341ZM74.7005 142.567L74.1964 143.98L74.1964 143.98L74.7005 142.567ZM75.9009 142.754L75.7776 141.259L75.7776 141.259L75.9009 142.754ZM78.5751 142.14L79.2207 143.494L79.2207 143.494L78.5751 142.14ZM78.8208 141.597L77.3852 141.162L77.3852 141.162L78.8208 141.597ZM79.2055 140.71L80.5977 141.268L80.5977 141.268L79.2055 140.71ZM79.5392 139.868L78.0654 139.589L78.0654 139.589L79.5392 139.868ZM79.6643 139.442L81.1279 139.77L81.1279 139.77L79.6643 139.442ZM79.7269 138.932L81.1947 139.241L81.1947 139.241L79.7269 138.932ZM79.9563 133.847L78.4573 133.902L78.4573 133.902L79.9563 133.847ZM79.896 131.979L81.2922 132.527L81.2922 132.527L79.896 131.979ZM80.1208 131.098L78.6302 130.931L78.6302 130.931L80.1208 131.098ZM80.3827 129.646L78.9499 129.202L78.9499 129.202L80.3827 129.646ZM80.6422 129.115L79.4798 128.167L79.4798 128.167L80.6422 129.115ZM80.9574 128.635L82.3602 129.166L82.3602 129.166L80.9574 128.635ZM81.1242 128.435L82.403 129.219L82.403 129.219L81.1242 128.435ZM81.2494 128.193L80.0412 127.304L80.0411 127.304L81.2494 128.193ZM81.5321 127.752L80.2926 126.907L80.2926 126.907L81.5321 127.752ZM81.7916 127.313L80.3888 126.782L80.3888 126.782L81.7916 127.313ZM82.1276 126.842L83.4933 127.463L83.4933 127.463L82.1276 126.842ZM82.459 126.265L81.12 125.589L81.12 125.589L82.459 126.265ZM82.7186 125.638L81.283 125.203L81.283 125.203L82.7186 125.638ZM82.9155 124.999L81.4363 124.75L81.4363 124.75L82.9155 124.999ZM82.9387 124.42L84.3213 123.839L84.3213 123.838L82.9387 124.42ZM82.7835 121.584L81.5188 122.391L81.5188 122.391L82.7835 121.584ZM81.5228 119.918L80.81 118.598L80.81 118.598L81.5228 119.918ZM80.7488 120.4L79.9224 119.148L79.9224 119.148L80.7488 120.4ZM80.3317 120.703L81.1581 121.955L81.1581 121.955L80.3317 120.703ZM80.1231 120.84L79.2967 119.589L79.2967 119.589L80.1231 120.84ZM81.1179 118.508C80.9721 118.565 80.8102 118.631 80.6456 118.703L81.8488 121.451C81.9636 121.401 82.0859 121.351 82.2151 121.3L81.1179 118.508ZM80.6456 118.703C80.3807 118.819 80.0666 118.97 79.7764 119.162L81.4292 121.665C81.5128 121.61 81.6496 121.538 81.8488 121.451L80.6456 118.703ZM79.7764 119.162C79.7915 119.152 79.7874 119.156 79.7371 119.181C79.7131 119.192 79.6863 119.205 79.6482 119.223C79.6137 119.239 79.5663 119.26 79.5187 119.283C79.3619 119.358 78.9698 119.545 78.6524 119.907L80.9079 121.885C80.8366 121.966 80.7751 122.006 80.7621 122.015C80.7509 122.022 80.7586 122.016 80.8137 121.989C80.8404 121.977 80.8682 121.964 80.9091 121.945C80.9463 121.927 80.9948 121.905 81.045 121.881C81.1432 121.833 81.2831 121.762 81.4292 121.665L79.7764 119.162ZM78.6524 119.907C78.6992 119.853 78.734 119.825 78.7362 119.824C78.7408 119.82 78.7344 119.825 78.7098 119.842C78.6854 119.859 78.6559 119.878 78.6123 119.905C78.5754 119.929 78.5163 119.966 78.4625 120.002L80.1153 122.505C80.1413 122.488 80.1695 122.47 80.2219 122.437C80.2678 122.408 80.3298 122.368 80.3941 122.325C80.5011 122.252 80.7183 122.101 80.9079 121.885L78.6524 119.907ZM78.4625 120.002C78.3211 120.095 78.192 120.189 78.094 120.261C77.988 120.338 77.9127 120.392 77.8368 120.442L79.4896 122.946C79.6315 122.852 79.7608 122.758 79.859 122.686C79.9653 122.609 80.0401 122.555 80.1153 122.505L78.4625 120.002ZM77.8368 120.442C77.3687 120.751 76.9149 121.12 76.5405 121.615L78.932 123.426C79.032 123.294 79.1905 123.143 79.4896 122.946L77.8368 120.442ZM76.5405 121.615C76.4644 121.715 76.3225 121.824 75.8941 122.142L77.6828 124.551C77.9496 124.352 78.5331 123.953 78.932 123.426L76.5405 121.615ZM75.8941 122.142C75.7898 122.22 75.4412 122.459 75.1967 122.68L77.2077 124.906C77.3104 124.813 77.3963 124.763 77.6828 124.551L75.8941 122.142ZM75.1967 122.68C75.1566 122.716 75.1151 122.755 75.0871 122.78C75.0555 122.81 75.0324 122.831 75.0116 122.849C74.9696 122.886 74.9559 122.895 74.9587 122.893L76.6115 125.397C76.8928 125.211 77.156 124.953 77.2077 124.906L75.1967 122.68ZM74.9586 122.893C74.8065 122.994 74.6799 123.096 74.597 123.165C74.497 123.247 74.4657 123.275 74.4228 123.307L76.2296 125.702C76.3415 125.617 76.457 125.52 76.5064 125.479C76.5729 125.424 76.5985 125.405 76.6115 125.397L74.9586 122.893ZM74.4228 123.307C74.3765 123.342 73.9739 123.619 73.7302 123.869L75.8795 125.962C75.8651 125.977 75.8775 125.962 75.955 125.904C75.9896 125.878 76.0268 125.851 76.0746 125.816C76.1186 125.784 76.1747 125.743 76.2296 125.702L74.4228 123.307ZM73.7302 123.869C73.6142 123.988 73.4488 124.11 73.1233 124.325L74.7761 126.829C75.0878 126.623 75.5096 126.342 75.8795 125.962L73.7302 123.869ZM73.1233 124.325C73.0252 124.39 72.8895 124.456 72.6226 124.579C72.4 124.682 72.0486 124.842 71.7259 125.055L73.3788 127.558C73.4792 127.492 73.6169 127.425 73.8824 127.302C74.1035 127.2 74.455 127.041 74.7761 126.829L73.1233 124.325ZM71.7259 125.055C71.2599 125.362 71.081 125.51 70.7814 125.658L72.1125 128.347C72.6342 128.089 73.121 127.729 73.3788 127.558L71.7259 125.055ZM70.7814 125.658C70.3323 125.881 69.8616 126.093 69.402 126.263L70.4423 129.077C71.0308 128.859 71.6023 128.6 72.1125 128.347L70.7814 125.658ZM69.402 126.263C69.0264 126.402 68.5975 126.556 68.197 126.707L69.2558 129.514C69.65 129.365 70.0236 129.231 70.4423 129.077L69.402 126.263ZM68.197 126.707C67.9321 126.807 67.6796 126.923 67.4963 127.005C67.2957 127.095 67.1486 127.158 67.0062 127.206L67.9625 130.049C68.2544 129.951 68.5166 129.835 68.7225 129.743C68.9457 129.643 69.097 129.574 69.2558 129.514L68.197 126.707ZM67.0062 127.206C66.532 127.365 66.0599 127.588 65.7312 127.74L66.9896 130.463C67.3645 130.29 67.6751 130.146 67.9625 130.049L67.0062 127.206ZM65.7312 127.74C65.6281 127.788 65.5141 127.833 65.3457 127.9C65.1939 127.96 64.9917 128.04 64.7912 128.136L66.0896 130.841C66.1826 130.796 66.2919 130.752 66.4524 130.688C66.5964 130.631 66.7957 130.553 66.9896 130.463L65.7312 127.74ZM64.7912 128.136C64.2909 128.377 63.9221 128.556 63.4982 128.7L64.4627 131.541C65.0905 131.328 65.6299 131.062 66.0896 130.841L64.7912 128.136ZM63.4982 128.7C63.1057 128.833 62.4216 129.049 61.861 129.419L63.5138 131.923C63.6817 131.812 63.9437 131.717 64.4627 131.541L63.4982 128.7ZM61.861 129.419C61.4784 129.672 61.0708 129.971 60.7654 130.183L62.4774 132.646C62.8896 132.36 63.1603 132.156 63.5138 131.923L61.861 129.419ZM60.7654 130.183C60.4936 130.372 60.4289 130.427 60.3076 130.492L61.7256 133.136C62.0488 132.962 62.3574 132.73 62.4774 132.646L60.7654 130.183ZM60.3076 130.492C60.1488 130.577 59.7474 130.789 59.4515 131.037L61.3813 133.334C61.369 133.344 61.3696 133.343 61.3898 133.329C61.4086 133.316 61.4355 133.299 61.4715 133.278C61.5457 133.233 61.6308 133.187 61.7256 133.136L60.3076 130.492ZM59.4515 131.037C59.099 131.333 58.8785 131.654 58.7312 131.895C58.5338 132.217 58.5585 132.208 58.4579 132.354L60.9288 134.055C61.0221 133.92 61.0982 133.791 61.1545 133.694C61.2196 133.581 61.2493 133.527 61.29 133.461C61.3561 133.353 61.3787 133.336 61.3813 133.334L59.4515 131.037ZM58.4579 132.354C58.1337 132.825 57.7363 133.482 57.6476 134.331L60.6314 134.642C60.6399 134.561 60.6817 134.414 60.9288 134.055L58.4579 132.354ZM57.6476 134.331C57.639 134.414 57.6136 134.527 57.5522 134.734C57.5027 134.9 57.4025 135.21 57.3366 135.498L60.2611 136.167C60.2985 136.004 60.3449 135.868 60.4279 135.588C60.4992 135.349 60.5925 135.015 60.6314 134.642L57.6476 134.331ZM57.3366 135.498C57.3164 135.587 57.1443 136.163 57.2503 136.758L60.2038 136.232C60.2225 136.337 60.2101 136.402 60.2125 136.386C60.2137 136.379 60.2168 136.361 60.2254 136.322C60.2296 136.303 60.2344 136.282 60.2406 136.256C60.2462 136.231 60.2539 136.199 60.2611 136.167L57.3366 135.498ZM57.2503 136.758C57.2748 136.896 57.3098 137.01 57.333 137.08C57.345 137.117 57.3566 137.15 57.3646 137.172C57.3747 137.201 57.3776 137.209 57.3827 137.223C57.3918 137.249 57.3847 137.232 57.3762 137.196C57.3671 137.159 57.3499 137.075 57.3499 136.962H60.3499C60.3499 136.771 60.3207 136.61 60.2929 136.495C60.2657 136.381 60.233 136.286 60.2148 136.234C60.1872 136.155 60.1907 136.167 60.1827 136.143C60.1803 136.135 60.193 136.172 60.2038 136.232L57.2503 136.758ZM57.3499 136.962C57.3499 137.547 57.6169 137.993 57.724 138.167C57.7861 138.268 57.8578 138.373 57.889 138.42C57.9327 138.485 57.9404 138.499 57.9384 138.496L60.577 137.068C60.5393 136.998 60.5017 136.936 60.4695 136.885C60.4374 136.834 60.4062 136.787 60.3814 136.75C60.3514 136.705 60.3383 136.686 60.3168 136.654C60.2989 136.627 60.2873 136.609 60.2791 136.595C60.2598 136.564 60.2727 136.58 60.2912 136.627C60.3107 136.677 60.3499 136.796 60.3499 136.962H57.3499ZM57.9383 138.495L57.9437 138.505L60.5825 137.078L60.5771 137.068L57.9383 138.495ZM57.9436 138.505C58.0524 138.706 58.4785 139.588 59.5961 139.799L60.1522 136.851C60.2141 136.863 60.2923 136.888 60.3749 136.934C60.4569 136.98 60.5196 137.033 60.5634 137.079C60.6045 137.122 60.6245 137.154 60.6247 137.154C60.6251 137.155 60.6222 137.15 60.6149 137.137C60.6068 137.123 60.5981 137.107 60.5826 137.078L57.9436 138.505ZM59.5961 139.799C59.6938 139.817 59.7804 139.825 59.8492 139.829C59.918 139.832 59.9777 139.831 60.0222 139.83C60.0662 139.829 60.1047 139.826 60.1279 139.825C60.1387 139.824 60.152 139.823 60.1578 139.823C60.1657 139.822 60.1698 139.822 60.1725 139.822C60.1787 139.821 60.1695 139.822 60.1527 139.822C60.1357 139.822 60.1012 139.822 60.0555 139.818C60.0097 139.814 59.9431 139.805 59.8634 139.785C59.7828 139.764 59.6837 139.731 59.5769 139.674L60.9778 137.021C60.7146 136.882 60.4695 136.843 60.3195 136.83C60.1717 136.817 60.0456 136.824 59.9948 136.827C59.9717 136.828 59.9343 136.831 59.9313 136.831C59.9184 136.832 59.921 136.832 59.9295 136.831C59.9388 136.831 60.0286 136.828 60.1522 136.851L59.5961 139.799ZM59.5768 139.674C59.7824 139.783 59.9966 139.829 60.0044 139.831C60.0787 139.849 60.1546 139.865 60.2183 139.877C60.3039 139.893 60.5062 139.929 60.6719 139.936L60.7819 136.938C60.81 136.939 60.8307 136.94 60.8396 136.941C60.8499 136.942 60.8566 136.943 60.8587 136.943C60.8627 136.943 60.8603 136.943 60.8505 136.942C60.8311 136.939 60.8027 136.934 60.7727 136.929C60.7583 136.926 60.7456 136.923 60.7351 136.921C60.73 136.92 60.726 136.919 60.723 136.918C60.7199 136.918 60.7186 136.917 60.7188 136.917C60.7189 136.918 60.7218 136.918 60.727 136.92C60.732 136.921 60.7421 136.924 60.7559 136.928C60.7688 136.932 60.7926 136.94 60.8232 136.951C60.8494 136.961 60.907 136.984 60.9779 137.021L59.5768 139.674ZM60.6719 139.936C60.7138 139.937 60.7519 139.94 60.8486 139.947C60.9293 139.953 61.052 139.961 61.1862 139.961C61.4576 139.96 61.8737 139.927 62.3089 139.704L60.9386 137.035C61.0944 136.955 61.2126 136.961 61.1806 136.961C61.1631 136.961 61.1328 136.96 61.0607 136.955C61.0334 136.953 60.9814 136.949 60.941 136.946C60.8954 136.943 60.8408 136.94 60.7819 136.938L60.6719 139.936ZM62.3089 139.704C62.2705 139.723 62.2476 139.731 62.2581 139.727C62.2753 139.721 62.2876 139.717 62.3516 139.696C62.4012 139.68 62.4878 139.652 62.5822 139.614C62.6789 139.575 62.8053 139.517 62.9405 139.433L61.3498 136.889C61.4078 136.853 61.451 136.835 61.4612 136.831C61.4692 136.828 61.466 136.83 61.425 136.843C61.3986 136.852 61.3198 136.877 61.2479 136.902C61.1693 136.93 61.0593 136.973 60.9386 137.035L62.3089 139.704ZM62.9405 139.433C62.9922 139.401 63.4159 139.168 63.709 138.919L61.7677 136.632C61.7606 136.638 61.7398 136.655 61.6717 136.696C61.6349 136.719 61.5981 136.74 61.5405 136.774C61.4876 136.805 61.421 136.845 61.3497 136.889L62.9405 139.433ZM63.709 138.919C63.786 138.854 63.8753 138.785 63.996 138.693C64.1065 138.608 64.2514 138.498 64.3906 138.383L62.4812 136.07C62.3951 136.141 62.3013 136.212 62.1745 136.309C62.0578 136.398 61.911 136.51 61.7677 136.632L63.709 138.919ZM64.3906 138.383C64.6334 138.183 64.9319 137.924 65.1978 137.605L62.8929 135.685C62.8114 135.783 62.6888 135.898 62.4812 136.07L64.3906 138.383ZM65.1978 137.605C65.1783 137.629 65.1734 137.63 65.2047 137.603C65.2381 137.574 65.2781 137.542 65.3551 137.481C65.4208 137.43 65.5218 137.351 65.622 137.262C65.7237 137.173 65.8526 137.05 65.9766 136.895L63.6343 135.021C63.6581 134.991 63.6679 134.986 63.6407 135.01C63.6119 135.035 63.5743 135.065 63.5009 135.123C63.4389 135.172 63.3393 135.249 63.2421 135.334C63.1427 135.419 63.016 135.537 62.8929 135.685L65.1978 137.605ZM65.9766 136.895C66.0408 136.815 66.1158 136.718 66.1611 136.66C66.2148 136.592 66.2567 136.54 66.2959 136.495C66.3715 136.407 66.4193 136.367 66.455 136.342L64.7595 133.867C64.1723 134.269 63.7756 134.844 63.6343 135.021L65.9766 136.895ZM66.455 136.342C66.7912 136.112 67.0051 135.855 67.1285 135.702C67.203 135.609 67.2162 135.591 67.2521 135.548C67.2749 135.521 67.2801 135.518 67.275 135.522L65.279 133.283C65.0338 133.501 64.8434 133.756 64.7923 133.82C64.7206 133.909 64.7271 133.889 64.7595 133.867L66.455 136.342ZM67.275 135.522C67.5085 135.314 67.6819 135.109 67.8122 134.945C67.9683 134.749 68.0047 134.693 68.1023 134.579L65.8235 132.628C65.6872 132.787 65.5234 133.004 65.4663 133.075C65.3835 133.179 65.3308 133.236 65.279 133.283L67.275 135.522ZM68.1023 134.579C68.0747 134.612 68.0642 134.616 68.095 134.592C68.1248 134.568 68.1697 134.536 68.2444 134.486C68.2813 134.461 68.3185 134.436 68.364 134.406C68.4071 134.378 68.4568 134.345 68.5073 134.311C68.6061 134.244 68.731 134.156 68.8561 134.052L66.9467 131.739C66.8779 131.795 66.8071 131.837 66.5724 131.995C66.4059 132.107 66.0844 132.324 65.8235 132.628L68.1023 134.579ZM68.8561 134.052C68.8966 134.019 68.9464 133.988 69.1427 133.863C69.2877 133.77 69.5666 133.593 69.8129 133.343L67.677 131.236C67.6952 131.218 67.6825 131.236 67.5279 131.335C67.4245 131.401 67.1666 131.557 66.9467 131.739L68.8561 134.052ZM69.8129 133.343C69.7963 133.36 69.7987 133.353 69.9181 133.267C69.9978 133.209 70.197 133.07 70.3757 132.899L68.3053 130.728C68.3129 130.721 68.3091 130.726 68.2822 130.746C68.2528 130.769 68.2209 130.792 68.161 130.835C68.0698 130.901 67.8638 131.047 67.677 131.236L69.8129 133.343ZM70.3757 132.899C70.5795 132.705 70.8277 132.424 71.006 132.121L68.4212 130.598C68.427 130.588 68.4277 130.588 68.4208 130.598C68.4143 130.607 68.4043 130.62 68.3906 130.636C68.362 130.671 68.3306 130.704 68.3053 130.728L70.3757 132.899ZM71.006 132.121C70.9465 132.222 70.8891 132.282 70.878 132.293C70.873 132.299 70.8658 132.305 70.9205 132.254C70.9565 132.221 71.0439 132.14 71.132 132.039C71.2231 131.934 71.3494 131.768 71.4471 131.542L68.6939 130.351C68.7574 130.204 68.8333 130.11 68.8652 130.074C68.8941 130.04 68.9135 130.024 68.8801 130.055C68.8718 130.063 68.8421 130.09 68.8195 130.111C68.7931 130.136 68.7571 130.171 68.7176 130.212C68.6419 130.29 68.5259 130.421 68.4212 130.598L71.006 132.121ZM71.4471 131.542C71.3974 131.657 71.3427 131.734 71.317 131.768C71.3031 131.787 71.2927 131.799 71.2886 131.804C71.2847 131.808 71.284 131.809 71.2899 131.802C71.2982 131.793 71.3025 131.789 71.3201 131.77C71.334 131.755 71.3549 131.733 71.3776 131.707C71.4007 131.681 71.4294 131.648 71.4605 131.609C71.4916 131.571 71.5277 131.523 71.565 131.468L69.0764 129.792C69.0955 129.764 69.1115 129.743 69.1215 129.731C69.1314 129.718 69.1378 129.711 69.1378 129.711C69.1379 129.711 69.1371 129.712 69.1349 129.714C69.1326 129.717 69.1294 129.72 69.1247 129.725C69.1186 129.732 69.0989 129.753 69.0835 129.77C69.051 129.805 68.9884 129.874 68.9234 129.96C68.8576 130.047 68.7683 130.179 68.6939 130.351L71.4471 131.542ZM71.565 131.468C71.5521 131.487 71.5431 131.498 71.5404 131.501C71.5372 131.505 71.537 131.505 71.5402 131.502C71.5471 131.494 71.5592 131.483 71.5735 131.471C71.5882 131.459 71.5958 131.454 71.5927 131.456C71.5906 131.457 71.5827 131.462 71.569 131.469C71.5555 131.475 71.5324 131.485 71.5 131.496L70.5597 128.647C70.1774 128.773 69.8676 128.989 69.6617 129.159C69.4517 129.333 69.2376 129.553 69.0765 129.792L71.565 131.468ZM71.5 131.496C71.5942 131.465 71.5702 131.474 71.5356 131.482C71.5191 131.487 71.4826 131.496 71.4339 131.504C71.391 131.512 71.2966 131.527 71.1744 131.525C71.065 131.524 70.8174 131.511 70.5389 131.376C70.2077 131.214 69.9307 130.926 69.7919 130.55C69.6744 130.231 69.697 129.958 69.7131 129.838C69.7306 129.708 69.762 129.61 69.7747 129.572C69.7973 129.504 69.8248 129.444 69.8087 129.481C69.796 129.51 69.7447 129.627 69.7045 129.78L72.6055 130.544C72.5846 130.623 72.5581 130.681 72.5641 130.667C72.5646 130.666 72.5721 130.649 72.5793 130.632C72.5863 130.615 72.6029 130.574 72.6201 130.523C72.6352 130.477 72.6683 130.373 72.6865 130.237C72.7033 130.112 72.7257 129.835 72.6069 129.512C72.4668 129.132 72.1873 128.841 71.8524 128.678C71.5701 128.541 71.3175 128.527 71.2016 128.526C70.9811 128.524 70.8054 128.573 70.7821 128.579C70.6949 128.601 70.5888 128.637 70.5597 128.647L71.5 131.496ZM69.7045 129.78C69.7269 129.695 69.7531 129.638 69.7619 129.62C69.7711 129.601 69.7749 129.596 69.7624 129.617C69.7566 129.627 69.7496 129.638 69.7388 129.656C69.7295 129.671 69.7148 129.695 69.7008 129.718C69.6734 129.764 69.6297 129.838 69.5866 129.923L72.2646 131.275C72.2569 131.29 72.255 131.292 72.2712 131.265C72.2716 131.265 72.3233 131.18 72.3429 131.147C72.3741 131.094 72.4196 131.015 72.4642 130.923C72.5086 130.831 72.5641 130.701 72.6055 130.544L69.7045 129.78ZM69.5866 129.923C69.5793 129.938 69.572 129.952 69.5663 129.963C69.5602 129.976 69.5553 129.985 69.5507 129.995C69.5413 130.013 69.5359 130.023 69.5324 130.03C69.5291 130.036 69.5298 130.034 69.534 130.027C69.5382 130.021 69.5478 130.006 69.563 129.986L71.9545 131.797C72.1251 131.572 72.2463 131.311 72.2646 131.275L69.5866 129.923ZM69.563 129.986C68.907 130.852 68.7761 131.774 68.8132 132.552C68.8447 133.213 69.0331 134.013 69.0918 134.362L72.0502 133.864C72.0053 133.597 71.9294 133.23 71.8925 133.03C71.8462 132.779 71.818 132.582 71.8098 132.409C71.7948 132.095 71.8475 131.938 71.9545 131.797L69.563 129.986ZM69.0918 134.362C69.1076 134.456 69.1176 134.511 69.129 134.583C69.1393 134.648 69.1457 134.697 69.1493 134.736C69.1511 134.754 69.152 134.769 69.1524 134.779C69.1526 134.784 69.1526 134.788 69.1526 134.791C69.1527 134.792 69.1526 134.793 69.1526 134.794C69.1526 134.794 69.1526 134.795 69.1526 134.795C69.1526 134.795 69.1526 134.794 69.1527 134.794C69.1527 134.793 69.1528 134.792 69.1529 134.79C69.1531 134.787 69.1535 134.783 69.1542 134.777C69.1557 134.765 69.1586 134.747 69.1646 134.722L72.0794 135.432C72.1723 135.05 72.1587 134.696 72.1363 134.457C72.1142 134.22 72.0694 133.979 72.0502 133.864L69.0918 134.362ZM69.1646 134.722C69.0533 135.179 69.0504 135.266 68.9629 135.598L71.8639 136.362C71.934 136.096 72.0443 135.576 72.0794 135.432L69.1646 134.722ZM68.9629 135.598C68.8533 136.014 68.8974 136.386 68.9171 136.545C68.9228 136.59 68.9289 136.634 68.9332 136.665C68.9381 136.7 68.941 136.721 68.9435 136.74C68.9486 136.781 68.9459 136.773 68.9459 136.743H71.9459C71.9459 136.589 71.9311 136.455 71.9202 136.367C71.9146 136.323 71.9085 136.279 71.9043 136.249C71.8995 136.215 71.8966 136.194 71.8942 136.175C71.8892 136.135 71.8915 136.14 71.8915 136.166C71.8915 136.194 71.8891 136.266 71.8639 136.362L68.9629 135.598ZM68.9459 136.743C68.9459 137.382 69.1928 137.93 69.2953 138.171L72.0553 136.995C71.9958 136.855 71.9677 136.784 71.9509 136.729C71.9363 136.681 71.9459 136.693 71.9459 136.743H68.9459ZM69.2953 138.171C69.3431 138.283 69.3862 138.399 69.4459 138.559C69.5012 138.707 69.5715 138.896 69.6568 139.089L72.4029 137.882C72.3568 137.777 72.3139 137.664 72.2568 137.511C72.204 137.369 72.1355 137.183 72.0553 136.995L69.2953 138.171ZM69.6568 139.089C69.7309 139.258 69.8279 139.455 69.8767 139.558C69.9383 139.688 69.9722 139.768 69.9929 139.83L72.8361 138.873C72.7579 138.64 72.663 138.432 72.5887 138.275C72.5017 138.091 72.4559 138.002 72.4029 137.882L69.6568 139.089ZM69.9929 139.83C70.0439 139.981 70.1011 140.12 70.144 140.222C70.1934 140.339 70.2208 140.402 70.249 140.474C70.3044 140.616 70.2807 140.6 70.2807 140.516H73.2807C73.2807 140.032 73.1387 139.626 73.0435 139.383C72.9022 139.021 72.8951 139.048 72.8361 138.873L69.9929 139.83ZM70.2807 140.516C70.2807 141.344 70.6448 142.008 71.0262 142.485L73.3694 140.612C73.3059 140.532 73.2824 140.485 73.2758 140.469C73.2713 140.458 73.2807 140.478 73.2807 140.516H70.2807ZM71.0262 142.485C71.4227 142.981 71.9348 143.221 72.2832 143.352C72.5893 143.467 73.0254 143.582 73.1839 143.63L74.0527 140.758C73.9044 140.713 73.7244 140.664 73.6202 140.634C73.4943 140.597 73.4083 140.57 73.3415 140.545C73.1929 140.489 73.2719 140.49 73.3694 140.612L71.0262 142.485ZM73.1839 143.63C73.3345 143.675 73.4861 143.709 73.5609 143.726C73.6567 143.748 73.6875 143.757 73.7033 143.762L74.6596 140.919C74.4918 140.863 74.3334 140.826 74.2398 140.804C74.1251 140.777 74.0869 140.768 74.0527 140.758L73.1839 143.63ZM73.7033 143.762C73.6949 143.76 73.7 143.76 73.7873 143.802C73.8537 143.835 74.0132 143.914 74.1964 143.98L75.2047 141.154C75.2053 141.155 75.199 141.153 75.0983 141.104C75.0185 141.065 74.8553 140.985 74.6596 140.919L73.7033 143.762ZM74.1964 143.98C74.7071 144.162 75.2609 144.312 76.0243 144.249L75.7776 141.259C75.6647 141.268 75.5942 141.262 75.5348 141.251C75.4651 141.239 75.3738 141.215 75.2047 141.154L74.1964 143.98ZM76.0243 144.249C77.0403 144.165 78.1787 143.991 79.2207 143.494L77.9296 140.786C77.382 141.047 76.6767 141.185 75.7776 141.259L76.0243 144.249ZM79.2207 143.494C79.9094 143.166 80.13 142.548 80.2008 142.3C80.2392 142.165 80.2607 142.041 80.2686 141.997C80.2839 141.912 80.2763 141.966 80.2564 142.032L77.3852 141.162C77.36 141.246 77.3443 141.318 77.3354 141.362C77.3267 141.405 77.3189 141.449 77.3157 141.467C77.3056 141.524 77.3073 141.507 77.3159 141.477C77.325 141.445 77.3583 141.335 77.4463 141.203C77.5438 141.057 77.7015 140.895 77.9296 140.786L79.2207 143.494ZM80.2563 142.032C80.2675 141.995 80.2917 141.934 80.3574 141.796C80.4085 141.688 80.515 141.474 80.5977 141.268L77.8132 140.152C77.7765 140.243 77.7365 140.322 77.6481 140.507C77.5742 140.663 77.4659 140.896 77.3852 141.162L80.2563 142.032ZM80.5977 141.268C80.6419 141.158 80.6584 141.138 80.7621 140.908C80.8382 140.738 80.952 140.47 81.013 140.148L78.0654 139.589C78.0713 139.558 78.0747 139.569 78.0261 139.677C77.9999 139.735 77.9789 139.779 77.9376 139.867C77.9022 139.944 77.8569 140.043 77.8132 140.152L80.5977 141.268ZM81.013 140.148C81.005 140.19 80.9956 140.21 81.0213 140.134C81.0302 140.108 81.0491 140.052 81.0664 139.997C81.0848 139.938 81.1077 139.86 81.1279 139.77L78.2007 139.113C78.2056 139.092 78.2111 139.079 78.1786 139.175C78.1567 139.24 78.1008 139.402 78.0654 139.589L81.013 140.148ZM81.1279 139.77C81.1743 139.563 81.1867 139.373 81.1923 139.3C81.2002 139.194 81.201 139.211 81.1947 139.241L78.259 138.623C78.2171 138.823 78.2056 139.01 78.2008 139.074C78.1935 139.17 78.1924 139.15 78.2007 139.113L81.1279 139.77ZM81.1947 139.241C81.3599 138.456 81.3729 137.663 81.3729 137.032H78.3729C78.3729 137.65 78.3544 138.17 78.259 138.623L81.1947 139.241ZM81.3729 137.032C81.3729 136.775 81.3967 136.506 81.4291 136.156C81.4592 135.83 81.498 135.423 81.498 135.004H78.498C78.498 135.261 78.4742 135.53 78.4418 135.88C78.4116 136.206 78.3729 136.613 78.3729 137.032H81.3729ZM81.498 135.004C81.498 134.583 81.4668 134.105 81.4553 133.792L78.4573 133.902C78.4742 134.36 78.498 134.65 78.498 135.004H81.498ZM81.4553 133.792C81.4444 133.496 81.3936 133.213 81.3689 133.062C81.3379 132.874 81.3312 132.806 81.3312 132.764H78.3312C78.3312 133.083 78.3803 133.376 78.4085 133.548C78.4431 133.759 78.4549 133.836 78.4573 133.902L81.4553 133.792ZM81.3312 132.764C81.3312 132.719 81.3305 132.677 81.3298 132.641C81.3295 132.623 81.3291 132.605 81.3288 132.589C81.3284 132.573 81.3281 132.558 81.3279 132.543C81.3267 132.483 81.3267 132.446 81.3276 132.419C81.3285 132.392 81.3299 132.39 81.3276 132.405C81.3252 132.419 81.3169 132.465 81.2922 132.527L78.4998 131.431C78.3614 131.783 78.336 132.116 78.3293 132.319C78.3257 132.427 78.327 132.527 78.3284 132.599C78.33 132.685 78.3312 132.721 78.3312 132.764H81.3312ZM81.2922 132.527C81.4424 132.145 81.5626 131.7 81.6115 131.265L78.6302 130.931C78.6146 131.07 78.5677 131.258 78.4998 131.431L81.2922 132.527ZM81.6115 131.265C81.6671 130.769 81.7143 130.417 81.8155 130.09L78.9499 129.202C78.7539 129.835 78.6838 130.453 78.6302 130.931L81.6115 131.265ZM81.8155 130.09C81.8247 130.06 81.8317 130.04 81.8373 130.024C81.8428 130.009 81.8459 130.002 81.8465 130.001C81.8474 129.999 81.8354 130.026 81.8046 130.063L79.4798 128.167C79.1599 128.56 79.0201 128.975 78.9499 129.202L81.8155 130.09ZM81.8046 130.063C81.8756 129.976 81.9684 129.857 82.0579 129.726C82.1322 129.617 82.2678 129.41 82.3602 129.166L79.5546 128.104C79.5679 128.069 79.5797 128.043 79.5861 128.03C79.5929 128.017 79.5974 128.009 79.5984 128.007C79.5996 128.005 79.5947 128.013 79.581 128.033C79.5681 128.052 79.552 128.075 79.5333 128.099C79.5149 128.124 79.4964 128.147 79.4798 128.167L81.8046 130.063ZM82.3602 129.166C82.3253 129.258 82.2854 129.334 82.2495 129.392C82.2139 129.45 82.18 129.495 82.1548 129.526C82.1296 129.557 82.1088 129.58 82.0974 129.592C82.0862 129.604 82.0789 129.611 82.0816 129.608C82.0829 129.607 82.0845 129.605 82.0891 129.601C82.0929 129.597 82.0996 129.591 82.1066 129.584C82.1206 129.57 82.1441 129.547 82.1708 129.519C82.1978 129.49 82.2334 129.451 82.2721 129.404C82.3109 129.356 82.3569 129.294 82.403 129.219L79.8455 127.65C79.9126 127.541 79.9782 127.471 79.9967 127.452C80.0078 127.44 80.0317 127.417 79.9886 127.459C79.966 127.481 79.8964 127.548 79.8238 127.638C79.7496 127.729 79.6371 127.886 79.5546 128.104L82.3602 129.166ZM82.403 129.219C82.4537 129.136 82.4901 129.063 82.5136 129.013C82.5253 128.988 82.5351 128.966 82.5417 128.951C82.5449 128.944 82.548 128.937 82.5501 128.932C82.5525 128.927 82.5538 128.923 82.5551 128.921C82.5607 128.908 82.5533 128.925 82.5393 128.952C82.5238 128.982 82.4972 129.028 82.4576 129.082L80.0411 127.304C79.9092 127.483 79.8356 127.653 79.8123 127.705C79.7938 127.747 79.7989 127.736 79.7989 127.736C79.8033 127.726 79.819 127.694 79.8454 127.65L82.403 129.219ZM82.4576 129.082C82.553 128.952 82.6276 128.83 82.675 128.752C82.7307 128.661 82.7493 128.63 82.7715 128.597L80.2926 126.907C80.2152 127.021 80.1461 127.137 80.1121 127.193C80.0699 127.262 80.053 127.288 80.0412 127.304L82.4576 129.082ZM82.7715 128.597C82.818 128.529 83.0601 128.199 83.1944 127.844L80.3888 126.782C80.4014 126.749 80.4115 126.729 80.4132 126.726C80.415 126.723 80.4127 126.728 80.4031 126.743C80.3935 126.758 80.3805 126.778 80.3612 126.807C80.3517 126.821 80.3416 126.836 80.33 126.853C80.3193 126.868 80.3053 126.889 80.2926 126.907L82.7715 128.597ZM83.1944 127.844C83.1458 127.973 83.0884 128.054 83.0716 128.077C83.0563 128.098 83.0484 128.105 83.0837 128.065C83.1045 128.041 83.1738 127.963 83.238 127.881C83.3051 127.794 83.4076 127.651 83.4933 127.463L80.762 126.221C80.8102 126.115 80.8599 126.052 80.867 126.043C80.8711 126.037 80.8731 126.035 80.8271 126.088C80.7959 126.124 80.722 126.207 80.6495 126.307C80.5754 126.408 80.4694 126.569 80.3888 126.782L83.1944 127.844ZM83.4933 127.463C83.4911 127.467 83.4994 127.449 83.563 127.347C83.6081 127.274 83.7119 127.112 83.798 126.941L81.12 125.589C81.1084 125.612 81.0902 125.642 81.0159 125.762C80.9601 125.851 80.8516 126.024 80.762 126.221L83.4933 127.463ZM83.798 126.941C83.9238 126.692 84.0568 126.394 84.1541 126.073L81.283 125.203C81.2531 125.302 81.1998 125.431 81.12 125.589L83.798 126.941ZM84.1541 126.073C84.176 126.001 84.1886 125.974 84.2459 125.808C84.2891 125.682 84.3555 125.481 84.3947 125.247L81.4363 124.75C81.4394 124.731 81.4396 124.743 81.4095 124.83C81.392 124.881 81.3822 124.908 81.3562 124.981C81.3351 125.041 81.3086 125.119 81.283 125.203L84.1541 126.073ZM84.3947 125.248C84.399 125.222 84.4003 125.219 84.4158 125.137C84.4271 125.077 84.4443 124.982 84.4563 124.874C84.4772 124.685 84.5062 124.278 84.3213 123.839L81.5561 125.002C81.4966 124.86 81.4791 124.74 81.4739 124.668C81.4687 124.597 81.4738 124.55 81.4746 124.543C81.4753 124.536 81.475 124.542 81.4678 124.58C81.4636 124.603 81.4613 124.614 81.4549 124.648C81.4498 124.674 81.443 124.71 81.4363 124.75L84.3947 125.248ZM84.3213 123.838C84.3718 123.958 84.39 124.06 84.3971 124.12C84.4007 124.151 84.4018 124.175 84.4022 124.19C84.4024 124.198 84.4024 124.203 84.4023 124.207C84.4023 124.211 84.4022 124.213 84.4022 124.213C84.4022 124.213 84.4023 124.212 84.4024 124.209C84.4026 124.205 84.4029 124.201 84.4033 124.194C84.4044 124.178 84.4054 124.166 84.4076 124.137C84.4094 124.112 84.4119 124.077 84.4139 124.039C84.416 124.001 84.4179 123.952 84.4179 123.897H81.4179C81.4179 123.876 81.4191 123.87 81.4158 123.915C81.4137 123.943 81.4069 124.026 81.4041 124.108C81.3987 124.262 81.394 124.617 81.5561 125.002L84.3213 123.838ZM84.4179 123.897V123.203H81.4179V123.897H84.4179ZM84.4179 123.203C84.4179 122.863 84.3668 122.544 84.3385 122.356C84.3043 122.13 84.2927 122.034 84.2927 121.957H81.2927C81.2927 122.297 81.3437 122.616 81.3721 122.804C81.4063 123.031 81.4179 123.126 81.4179 123.203H84.4179ZM84.2927 121.957C84.2927 121.776 84.2625 121.628 84.2371 121.531C84.2244 121.482 84.2118 121.443 84.2029 121.416C84.1947 121.391 84.1866 121.369 84.185 121.364C84.1816 121.355 84.1845 121.362 84.188 121.373C84.192 121.385 84.2002 121.411 84.2089 121.444C84.2265 121.511 84.251 121.628 84.251 121.777H81.251C81.251 121.957 81.2807 122.104 81.3062 122.202C81.3188 122.25 81.3315 122.29 81.3404 122.317C81.3489 122.343 81.3569 122.365 81.3587 122.37C81.3623 122.38 81.3595 122.373 81.3561 122.362C81.3522 122.35 81.3441 122.325 81.3353 122.292C81.3177 122.225 81.2927 122.107 81.2927 121.957H84.2927ZM84.251 121.777C84.251 122.028 84.1826 122.21 84.1682 122.249C84.1584 122.276 84.1501 122.295 84.1534 122.287C84.1567 122.28 84.1518 122.291 84.1559 122.281C84.1572 122.278 84.159 122.274 84.161 122.269C84.165 122.26 84.1712 122.245 84.1782 122.227C84.1992 122.173 84.2711 121.99 84.29 121.747C84.312 121.465 84.2618 121.112 84.0481 120.777L81.5188 122.391C81.4287 122.249 81.3646 122.094 81.3287 121.932C81.2934 121.773 81.2901 121.63 81.2991 121.514C81.3154 121.304 81.3769 121.153 81.3849 121.132C81.3907 121.118 81.3969 121.103 81.3894 121.121C81.3857 121.13 81.3706 121.165 81.3547 121.208C81.3282 121.28 81.251 121.494 81.251 121.777H84.251ZM84.0481 120.777C84.1495 120.936 84.2273 121.136 84.2497 121.365C84.2706 121.577 84.2355 121.74 84.2199 121.803C84.2127 121.832 84.2061 121.854 84.2091 121.844C84.2092 121.843 84.213 121.831 84.2159 121.821C84.2194 121.809 84.2246 121.791 84.2302 121.77C84.2525 121.688 84.2927 121.521 84.2927 121.309H81.2927C81.2927 121.147 81.3235 121.027 81.3337 120.989C81.3376 120.975 81.3421 120.96 81.3355 120.982C81.332 120.994 81.319 121.036 81.3065 121.088C81.2804 121.194 81.2388 121.4 81.2641 121.658C81.291 121.932 81.3843 122.18 81.5188 122.391L84.0481 120.777ZM84.2927 121.309C84.2927 120.881 84.1332 120.561 84.0305 120.391C83.9766 120.302 83.9234 120.23 83.8853 120.181C83.848 120.133 83.8121 120.09 83.795 120.07C83.7841 120.057 83.7789 120.051 83.7736 120.045C83.769 120.039 83.7682 120.038 83.7696 120.04C83.7707 120.041 83.7908 120.066 83.8167 120.107C83.8597 120.176 84.0007 120.416 84.0007 120.772H81.0007C81.0007 121.219 81.1782 121.547 81.2761 121.703C81.3293 121.788 81.3813 121.856 81.4167 121.901C81.4507 121.944 81.4853 121.985 81.4985 122C81.5179 122.023 81.5185 122.024 81.5154 122.02C81.5115 122.015 81.4902 121.988 81.4637 121.944C81.4157 121.865 81.2927 121.638 81.2927 121.309H84.2927ZM84.0007 120.772C84.0007 120.509 83.9462 120.245 83.8818 120.032C83.8134 119.806 83.6976 119.518 83.5042 119.24C83.3148 118.969 82.9754 118.602 82.4337 118.426C81.8453 118.235 81.2712 118.349 80.81 118.598L82.2357 121.238C82.1237 121.298 81.8463 121.39 81.5068 121.279C81.214 121.184 81.0753 121.002 81.0432 120.956C81.0069 120.904 81.0046 120.882 81.0104 120.901C81.0203 120.934 81.0007 120.894 81.0007 120.772H84.0007ZM80.81 118.598C80.6856 118.665 80.5717 118.732 80.4648 118.797L82.0296 121.357C82.0978 121.315 82.165 121.276 82.2357 121.238L80.81 118.598ZM80.4648 118.797C80.268 118.917 80.0797 119.044 79.9224 119.148L81.5752 121.652C81.7651 121.526 81.8905 121.442 82.0296 121.357L80.4648 118.797ZM79.9224 119.148C79.8006 119.228 79.6934 119.311 79.632 119.358C79.5588 119.413 79.53 119.435 79.5053 119.451L81.1581 121.955C81.2806 121.874 81.3877 121.791 81.45 121.744C81.524 121.688 81.5518 121.667 81.5752 121.652L79.9224 119.148ZM79.5053 119.451L79.2967 119.589L80.9495 122.092L81.1581 121.955L79.5053 119.451ZM79.2967 119.589C79.3376 119.562 79.4276 119.506 79.5564 119.456C79.6768 119.41 79.928 119.333 80.2519 119.373C80.6265 119.419 80.9614 119.605 81.1968 119.881C81.3987 120.117 81.4729 120.354 81.5011 120.463C81.5483 120.645 81.5474 120.827 81.5438 120.737C81.5435 120.731 81.5416 120.675 81.5342 120.609C81.5276 120.55 81.5088 120.402 81.4425 120.227L78.6369 121.289C78.5373 121.026 78.5428 120.774 78.5462 120.858C78.5463 120.861 78.5461 120.856 78.5464 120.863C78.5465 120.866 78.5467 120.871 78.547 120.878C78.5476 120.89 78.5487 120.911 78.5507 120.937C78.5541 120.98 78.5635 121.087 78.5971 121.216C78.6284 121.337 78.707 121.585 78.9155 121.829C79.1574 122.112 79.5009 122.303 79.8868 122.35C80.2221 122.392 80.4875 122.312 80.6256 122.259C80.7721 122.203 80.8833 122.136 80.9495 122.092L79.2967 119.589Z" fill="#070707"/>
</g>
<g filter="url(#filter5_d_2_37)">
<path d="M67.234 53.0445C60.0595 58.8824 56.3888 63.7289 55.3877 65.4912C54.3866 67.2536 55.3877 63.2883 54.5535 59.7636C53.7192 56.2388 57.8905 45.885 58.0573 44.0124C58.2242 42.1399 62.2286 27.4903 63.2296 23.6351C64.2307 19.7799 66.3998 17.0262 69.4031 12.5102C72.4064 7.99413 72.5732 6.12163 77.245 4.35926C81.9168 2.59688 84.4195 2.26647 86.4217 2.59689C88.4239 2.92732 87.4228 2.04618 92.5951 4.35926C97.7674 6.67234 94.959 7.70941 94.0968 10.1971C93.3359 12.5175 91.4272 15.5943 89.425 17.7973C87.4228 20.0002 85.9211 20.4408 84.0858 22.5336C82.2505 24.6264 76.5776 23.8554 71.9058 25.3975C67.234 26.9395 84.4425 25.4544 86.4217 23.0844C88.4009 20.7143 89.3952 19.5435 90.9266 17.7973C92.5606 15.1263 93.514 14.3792 95.2647 14.0523C97.3109 13.6207 98.6821 13.4184 101.772 13.1711C105.739 12.7922 107.191 13.0336 108.779 14.0523C112.265 15.9238 112.703 16.6608 112.617 17.7973C112.832 19.8843 112.848 20.7069 112.617 21.322C111.626 23.1327 110.627 24.1267 108.779 24.4061C106.631 24.9241 105.326 25.1254 101.772 24.4061C98.1569 23.5179 97.0071 23.4768 97.6006 21.322L95.2647 19.7799L96.5995 22.5336L100.604 25.3975H107.612L113.785 23.0844H120.459C122.461 23.0844 124.13 23.0844 126.799 24.4061C129.469 25.7279 130.97 26.8294 130.303 28.7019C129.636 30.5744 128.468 31.5657 127.633 32.6672C126.799 33.7687 123.129 33.7687 123.129 33.7687C121.007 33.9443 118.457 32.6672 118.457 32.6672C118.457 32.6672 115.177 30.7305 118.457 29.2526L113.785 30.5744H109.947L105.443 32.6672C105.443 32.6672 91.8685 35.5603 81.9168 40.9283C81.9168 40.9283 74.4086 47.2067 67.234 53.0445Z" fill="#8A0303"/>
<path d="M67.234 53.0445C60.0595 58.8824 56.3888 63.7289 55.3877 65.4912C54.3866 67.2536 55.3877 63.2883 54.5535 59.7636C53.7192 56.2388 57.8905 45.885 58.0573 44.0124C58.2242 42.1399 62.2286 27.4903 63.2296 23.6351C64.2307 19.7799 66.3998 17.0262 69.4031 12.5102C72.4064 7.99413 72.5732 6.12163 77.245 4.35926C81.9168 2.59688 84.4195 2.26647 86.4217 2.59689C88.4239 2.92732 87.4228 2.04618 92.5951 4.35926C97.7674 6.67234 94.959 7.70941 94.0968 10.1971C93.3359 12.5175 91.4272 15.5943 89.425 17.7973C87.4228 20.0002 85.9211 20.4408 84.0858 22.5336C82.2505 24.6264 76.5776 23.8554 71.9058 25.3975C67.234 26.9395 84.4425 25.4544 86.4217 23.0844C88.4009 20.7143 89.3952 19.5435 90.9266 17.7973C92.5606 15.1263 93.514 14.3792 95.2647 14.0523C97.3109 13.6207 98.6821 13.4184 101.772 13.1711C105.739 12.7922 107.191 13.0336 108.779 14.0523C112.265 15.9238 112.703 16.6608 112.617 17.7973C112.832 19.8843 112.848 20.7069 112.617 21.322C111.626 23.1327 110.627 24.1267 108.779 24.4061C106.631 24.9241 105.326 25.1254 101.772 24.4061C98.1569 23.5179 97.0071 23.4768 97.6006 21.322L95.2647 19.7799L96.5995 22.5336L100.604 25.3975H107.612L113.785 23.0844H120.459C122.461 23.0844 124.13 23.0844 126.799 24.4061C129.469 25.7279 130.97 26.8294 130.303 28.7019C129.636 30.5744 128.468 31.5657 127.633 32.6672C126.799 33.7687 123.129 33.7687 123.129 33.7687C121.007 33.9443 118.457 32.6672 118.457 32.6672C118.457 32.6672 115.177 30.7305 118.457 29.2526L113.785 30.5744H109.947L105.443 32.6672C105.443 32.6672 91.8685 35.5603 81.9168 40.9283C81.9168 40.9283 74.4086 47.2067 67.234 53.0445Z" stroke="black" stroke-width="3"/>
</g>
</g>
<g filter="url(#filter6_d_2_37)">
<path d="M22.1847 119.684C22.1847 119.684 23.1859 109.881 23.8532 108.339C24.5206 106.797 26.6897 101.95 28.525 100.298C30.3603 98.6457 34.1979 95.4514 37.8686 93.689C41.5393 91.9266 45.7105 91.2658 48.5469 91.3759C51.3833 91.4861 56.0552 93.1383 58.7247 94.46C61.3943 95.7818 65.065 98.3152 66.0661 99.3065C67.0672 100.298 69.57 103.272 71.4053 103.602C73.2406 103.933 75.7434 105.805 80.2483 106.136C84.7532 106.466 90.4261 105.089 91.4272 104.924C92.4283 104.759 97.4337 104.924 97.4337 104.924C97.4337 104.924 98.7685 105.144 98.7685 106.136C98.7685 107.127 99.2691 106.576 97.4337 107.237C95.5984 107.898 93.0957 107.347 91.4272 108.339C89.7587 109.33 89.0913 111.974 87.0891 112.745C85.0869 113.516 83.7521 119.133 81.0825 121.116C78.413 123.098 73.908 125.522 71.4053 126.733C68.9025 127.945 64.5644 130.148 64.5644 130.148L55.2209 133.122H47.5458L43.2077 130.699L41.5393 129.487C41.5393 129.487 39.2034 126.733 40.8718 126.733L48.5469 122.107L53.8861 116.93L41.5393 118.142L33.5305 121.777L28.525 127.945C28.525 127.945 27.5239 134.223 25.6886 132.131C23.8532 130.038 22.1847 126.733 22.1847 126.733C20.9301 123.29 22.1847 119.684 22.1847 119.684Z" fill="#D9B021"/>
<path d="M40.8718 126.733C39.2034 126.733 41.5393 129.487 41.5393 129.487L43.2077 130.699L47.5458 133.122H55.2209L64.5644 130.148C64.5644 130.148 68.9025 127.945 71.4053 126.733C73.908 125.522 78.413 123.098 81.0825 121.116C83.7521 119.133 85.0869 113.516 87.0891 112.745C89.0913 111.974 89.7587 109.33 91.4272 108.339C93.0957 107.347 95.5984 107.898 97.4337 107.237C99.2691 106.576 98.7685 107.127 98.7685 106.136C98.7685 105.144 97.4337 104.924 97.4337 104.924C97.4337 104.924 92.4283 104.759 91.4272 104.924C90.4261 105.089 84.7532 106.466 80.2483 106.136C75.7434 105.805 73.2406 103.933 71.4053 103.602C69.57 103.272 67.0672 100.298 66.0661 99.3065C65.065 98.3152 61.3943 95.7818 58.7247 94.46C56.0552 93.1383 51.3833 91.4861 48.5469 91.3759C45.7105 91.2658 41.5393 91.9266 37.8686 93.689C34.1979 95.4514 30.3603 98.6457 28.525 100.298C26.6897 101.95 24.5206 106.797 23.8532 108.339C23.1859 109.881 22.1847 119.684 22.1847 119.684C22.1847 119.684 20.9301 123.29 22.1847 126.733C22.1847 126.733 23.8532 130.038 25.6886 132.131C27.5239 134.223 28.525 127.945 28.525 127.945L33.5305 121.777L41.5393 118.142L53.8861 116.93M40.8718 126.733C42.5403 126.733 44.042 126.072 44.042 126.072C44.042 126.072 43.7083 125.742 46.8784 125.412C50.0485 125.081 54.5535 122.107 54.5535 122.107L57.0562 121.116L59.559 119.684L62.7291 119.133L59.559 116.93H53.8861M40.8718 126.733L48.5469 122.107L53.8861 116.93" stroke="black" stroke-width="3"/>
<path d="M55.8883 96.9934H52.5513L53.5524 97.9848L55.3877 99.5268C55.3877 99.5268 57.5568 100.518 58.7247 100.518C59.8927 100.518 60.5601 100.078 60.5601 99.1964C60.5601 98.3152 59.8927 98.3152 59.0584 97.6543C58.2242 96.9934 57.5568 96.9934 55.8883 96.9934Z" fill="#0B0B0B"/>
<path d="M55.8883 96.9934H52.5513L53.5524 97.9848L55.3877 99.5268C55.3877 99.5268 57.5568 100.518 58.7247 100.518C59.8927 100.518 60.5601 100.078 60.5601 99.1964C60.5601 98.3152 59.8927 98.3152 59.0584 97.6543C58.2242 96.9934 57.5568 96.9934 55.8883 96.9934Z" fill="#0B0B0B"/>
<path d="M46.8784 98.4254L49.0475 97.6543L52.5513 96.9934M52.5513 96.9934C52.5513 96.9934 54.2198 96.9934 55.8883 96.9934C57.5568 96.9934 58.2242 96.9934 59.0584 97.6543C59.8927 98.3152 60.5601 98.3152 60.5601 99.1964C60.5601 100.078 59.8927 100.518 58.7247 100.518C57.5568 100.518 55.3877 99.5268 55.3877 99.5268L53.5524 97.9848L52.5513 96.9934Z" stroke="black"/>
<path d="M59.0584 98.9761C59.0584 99.4019 57.9603 98.6457 57.2231 98.6457C56.7225 97.8747 55.2209 98.3005 55.2209 97.8746C55.2209 97.4488 56.9864 98.2051 57.7236 98.2051C58.4608 98.2051 59.0584 98.5503 59.0584 98.9761Z" fill="#AE2828"/>
</g>
<defs>
<filter id="filter0_d_2_37" x="0.498047" y="25.2626" width="158" height="135.22" filterUnits="userSpaceOnUse" color-interpolation-filters="sRGB">
<feFlood flood-opacity="0" result="BackgroundImageFix"/>
<feColorMatrix in="SourceAlpha" type="matrix" values="0 0 0 0 0 0 0 0 0 0 0 0 0 0 0 0 0 0 127 0" result="hardAlpha"/>
<feOffset dy="4"/>
<feGaussianBlur stdDeviation="2"/>
<feComposite in2="hardAlpha" operator="out"/>
<feColorMatrix type="matrix" values="0 0 0 0 0 0 0 0 0 0 0 0 0 0 0 0 0 0 0.25 0"/>
<feBlend mode="normal" in2="BackgroundImageFix" result="effect1_dropShadow_2_37"/>
<feBlend mode="normal" in="SourceGraphic" in2="effect1_dropShadow_2_37" result="shape"/>
</filter>
<filter id="filter1_d_2_37" x="14.6502" y="72.3858" width="104.017" height="40.0697" filterUnits="userSpaceOnUse" color-interpolation-filters="sRGB">
<feFlood flood-opacity="0" result="BackgroundImageFix"/>
<feColorMatrix in="SourceAlpha" type="matrix" values="0 0 0 0 0 0 0 0 0 0 0 0 0 0 0 0 0 0 127 0" result="hardAlpha"/>
<feOffset dy="4"/>
<feGaussianBlur stdDeviation="2"/>
<feComposite in2="hardAlpha" operator="out"/>
<feColorMatrix type="matrix" values="0 0 0 0 0 0 0 0 0 0 0 0 0 0 0 0 0 0 0.25 0"/>
<feBlend mode="normal" in2="BackgroundImageFix" result="effect1_dropShadow_2_37"/>
<feBlend mode="normal" in="SourceGraphic" in2="effect1_dropShadow_2_37" result="shape"/>
</filter>
<filter id="filter2_d_2_37" x="21.0212" y="81.6829" width="73.4049" height="24.1917" filterUnits="userSpaceOnUse" color-interpolation-filters="sRGB">
<feFlood flood-opacity="0" result="BackgroundImageFix"/>
<feColorMatrix in="SourceAlpha" type="matrix" values="0 0 0 0 0 0 0 0 0 0 0 0 0 0 0 0 0 0 127 0" result="hardAlpha"/>
<feOffset dy="4"/>
<feGaussianBlur stdDeviation="2"/>
<feComposite in2="hardAlpha" operator="out"/>
<feColorMatrix type="matrix" values="0 0 0 0 0 0 0 0 0 0 0 0 0 0 0 0 0 0 0.25 0"/>
<feBlend mode="normal" in2="BackgroundImageFix" result="effect1_dropShadow_2_37"/>
<feBlend mode="normal" in="SourceGraphic" in2="effect1_dropShadow_2_37" result="shape"/>
</filter>
<filter id="filter3_d_2_37" x="48.9437" y="0.983063" width="87.0173" height="151.28" filterUnits="userSpaceOnUse" color-interpolation-filters="sRGB">
<feFlood flood-opacity="0" result="BackgroundImageFix"/>
<feColorMatrix in="SourceAlpha" type="matrix" values="0 0 0 0 0 0 0 0 0 0 0 0 0 0 0 0 0 0 127 0" result="hardAlpha"/>
<feOffset dy="4"/>
<feGaussianBlur stdDeviation="2"/>
<feComposite in2="hardAlpha" operator="out"/>
<feColorMatrix type="matrix" values="0 0 0 0 0 0 0 0 0 0 0 0 0 0 0 0 0 0 0.25 0"/>
<feBlend mode="normal" in2="BackgroundImageFix" result="effect1_dropShadow_2_37"/>
<feBlend mode="normal" in="SourceGraphic" in2="effect1_dropShadow_2_37" result="shape"/>
</filter>
<filter id="filter4_di_2_37" x="57.2161" y="118.33" width="35.2556" height="33.933" filterUnits="userSpaceOnUse" color-interpolation-filters="sRGB">
<feFlood flood-opacity="0" result="BackgroundImageFix"/>
<feColorMatrix in="SourceAlpha" type="matrix" values="0 0 0 0 0 0 0 0 0 0 0 0 0 0 0 0 0 0 127 0" result="hardAlpha"/>
<feOffset dx="4" dy="4"/>
<feGaussianBlur stdDeviation="2"/>
<feComposite in2="hardAlpha" operator="out"/>
<feColorMatrix type="matrix" values="0 0 0 0 0 0 0 0 0 0 0 0 0 0 0 0 0 0 0.35 0"/>
<feBlend mode="normal" in2="BackgroundImageFix" result="effect1_dropShadow_2_37"/>
<feBlend mode="normal" in="SourceGraphic" in2="effect1_dropShadow_2_37" result="shape"/>
<feColorMatrix in="SourceAlpha" type="matrix" values="0 0 0 0 0 0 0 0 0 0 0 0 0 0 0 0 0 0 127 0" result="hardAlpha"/>
<feOffset dx="4" dy="9"/>
<feGaussianBlur stdDeviation="2"/>
<feComposite in2="hardAlpha" operator="arithmetic" k2="-1" k3="1"/>
<feColorMatrix type="matrix" values="0 0 0 0 0 0 0 0 0 0 0 0 0 0 0 0 0 0 0.25 0"/>
<feBlend mode="normal" in2="shape" result="effect2_innerShadow_2_37"/>
</filter>
<filter id="filter5_d_2_37" x="48.9437" y="0.983063" width="87.0173" height="74.4438" filterUnits="userSpaceOnUse" color-interpolation-filters="sRGB">
<feFlood flood-opacity="0" result="BackgroundImageFix"/>
<feColorMatrix in="SourceAlpha" type="matrix" values="0 0 0 0 0 0 0 0 0 0 0 0 0 0 0 0 0 0 127 0" result="hardAlpha"/>
<feOffset dy="4"/>
<feGaussianBlur stdDeviation="2"/>
<feComposite in2="hardAlpha" operator="out"/>
<feColorMatrix type="matrix" values="0 0 0 0 0 0 0 0 0 0 0 0 0 0 0 0 0 0 0.25 0"/>
<feBlend mode="normal" in2="BackgroundImageFix" result="effect1_dropShadow_2_37"/>
<feBlend mode="normal" in="SourceGraphic" in2="effect1_dropShadow_2_37" result="shape"/>
</filter>
<filter id="filter6_d_2_37" x="16.1271" y="89.8643" width="88.2038" height="52.7576" filterUnits="userSpaceOnUse" color-interpolation-filters="sRGB">
<feFlood flood-opacity="0" result="BackgroundImageFix"/>
<feColorMatrix in="SourceAlpha" type="matrix" values="0 0 0 0 0 0 0 0 0 0 0 0 0 0 0 0 0 0 127 0" result="hardAlpha"/>
<feOffset dy="4"/>
<feGaussianBlur stdDeviation="2"/>
<feComposite in2="hardAlpha" operator="out"/>
<feColorMatrix type="matrix" values="0 0 0 0 0 0 0 0 0 0 0 0 0 0 0 0 0 0 0.25 0"/>
<feBlend mode="normal" in2="BackgroundImageFix" result="effect1_dropShadow_2_37"/>
<feBlend mode="normal" in="SourceGraphic" in2="effect1_dropShadow_2_37" result="shape"/>
</filter>
</defs>
</svg>
