<svg width="259" height="263" viewBox="0 0 259 263" fill="none" xmlns="http://www.w3.org/2000/svg">
<g filter="url(#filter0_d_2_37)">
<path d="M109.614 239.104C109.614 239.104 105.999 242.408 102.106 242.408C102.106 242.408 97.1005 246.998 94.0416 248.099C90.9827 249.201 87.0762 250.038 78.7471 250.302L82.3622 242.408V236.717C82.3622 236.717 76.5224 236.901 75.132 242.408C73.7416 247.916 60.9498 255.626 58.169 254.341C55.3882 253.056 61.506 230.476 60.9498 228.64C60.3937 226.804 55.3882 239.104 44.821 243.693C34.2539 248.283 49.5484 225.335 49.2704 223.867C48.9923 222.398 20.906 233.413 17.0128 233.413C13.1197 233.413 31.4731 199.267 31.4731 199.267C31.4731 199.267 19.2375 210.465 20.906 202.204C22.5745 193.943 31.4731 180.175 31.4731 180.175C31.4731 180.175 20.906 184.581 20.906 182.011C20.906 179.615 27.6729 165.412 28.5899 163.499C27.9514 164.8 24.4287 171.555 20.906 169.894C17.0128 168.059 20.906 146.396 20.906 146.396C20.906 146.396 18.4032 148.048 17.0128 146.396C15.6224 144.744 20.906 136.85 20.906 136.85C20.906 136.85 12.2854 141.256 14.232 139.42C16.1786 137.584 20.906 118.125 20.906 118.125C20.906 118.125 1.9964 129.69 4.77722 126.202C7.55805 122.714 37.5909 79.5733 35.3663 82.1434C33.1416 84.7135 15.6224 87.8343 17.0128 84.7135C18.4032 81.5926 43.1526 73.3316 43.1526 73.3316C43.1526 73.3316 17.0128 74.9838 17.0128 73.3316C17.0128 71.6793 66.5114 54.0557 69.8484 52.4035C73.1854 50.7513 38.1471 51.6692 43.1526 49.4662C48.158 47.2633 98.769 42.4902 98.769 42.4902C124.009 42.1345 138.129 44.0486 163.284 49.4662C183.558 53.0675 191.936 55.8512 203.884 61.5825C225.227 73.1167 240.035 101.419 236.698 101.236C235.343 101.161 234.172 100.724 233.258 100.23C236.178 102.484 240.649 106.376 236.698 106.376C231.136 106.376 216.676 93.5253 216.676 93.5253C216.676 93.5253 261.169 137.768 251.714 136.85C242.259 135.932 231.136 126.202 231.136 126.202C249.182 142.74 254.648 152.287 254.495 169.894C244.906 162.999 241.461 158.094 236.698 148.599C245.356 169.002 247.821 203.673 242.259 202.204C236.698 200.736 225.018 180.175 225.018 180.175C225.018 180.175 236.698 218.176 231.136 220.562C225.574 222.949 207.221 204.407 207.221 204.407C207.221 204.407 212.317 232.677 207.221 238.553C202.125 244.43 184.087 230.912 184.974 223.867C185.861 216.821 177.941 245.636 172.739 248.099C167.537 250.563 160.225 228.64 157.166 223.867C154.107 219.094 162.728 256.727 153.829 250.302C144.931 243.877 138.813 240.389 136.588 236.717C134.364 233.046 125.465 253.056 119.903 254.341C114.342 255.626 109.614 239.104 109.614 239.104Z" fill="#424A45"/>
<path d="M216.676 93.5253C214.208 96.0072 214.208 96.0072 214.208 96.0074L214.209 96.0087L214.215 96.0143L214.238 96.0373L214.331 96.1302C214.414 96.2126 214.537 96.3354 214.697 96.4959C215.018 96.8169 215.488 97.2886 216.084 97.8893C217.276 99.0908 218.969 100.808 220.972 102.865C224.981 106.984 230.217 112.454 235.15 117.885C239.937 123.156 244.339 128.282 247.076 132.076C244.592 131.105 242.062 129.71 239.772 128.238C237.9 127.034 236.301 125.854 235.171 124.975C234.608 124.537 234.166 124.176 233.868 123.929C233.72 123.806 233.608 123.711 233.535 123.649C233.499 123.619 233.473 123.596 233.457 123.582L233.441 123.568L233.44 123.568L233.44 123.567C233.44 123.567 233.44 123.568 233.4 123.613L228.771 128.783C237.728 136.991 243.247 143.19 246.562 149.313C248.758 153.369 250.044 157.5 250.624 162.342C249.022 160.889 247.691 159.479 246.505 158.017C244.09 155.039 242.173 151.707 239.826 147.03L233.476 149.966C237.619 159.729 240.343 173.114 241.325 183.92C241.817 189.331 241.852 193.883 241.481 196.888C241.455 197.094 241.428 197.287 241.401 197.467C240.926 197.014 240.406 196.467 239.847 195.831C238.11 193.856 236.222 191.285 234.449 188.673C232.686 186.077 231.086 183.515 229.923 181.597C229.343 180.639 228.875 179.847 228.553 179.295C228.392 179.02 228.267 178.805 228.184 178.66C228.142 178.587 228.111 178.533 228.09 178.497L228.068 178.457L228.062 178.448L228.062 178.446L228.061 178.446C228.061 178.446 228.061 178.446 228.059 178.447L221.673 181.203L221.673 181.203L221.673 181.204L221.674 181.208L221.68 181.227L221.704 181.304C221.725 181.373 221.756 181.477 221.797 181.614C221.88 181.886 222.001 182.289 222.153 182.804C222.457 183.835 222.887 185.312 223.386 187.094C224.385 190.662 225.655 195.426 226.75 200.249C227.852 205.105 228.745 209.882 229.038 213.525C229.16 215.048 229.164 216.229 229.082 217.071C228.477 216.868 227.702 216.517 226.764 215.992C224.529 214.739 221.899 212.797 219.314 210.674C216.753 208.573 214.347 206.387 212.574 204.718C211.69 203.886 210.968 203.188 210.47 202.699C210.221 202.455 210.028 202.264 209.898 202.135C209.833 202.07 209.785 202.022 209.753 201.99L209.718 201.954L209.71 201.946L209.708 201.945L209.708 201.945L209.708 201.945L201.776 193.932L203.776 205.028L203.776 205.028L203.777 205.028L203.777 205.031L203.779 205.043L203.789 205.098C203.793 205.123 203.799 205.155 203.806 205.193C203.812 205.231 203.82 205.274 203.828 205.323C203.863 205.523 203.914 205.82 203.977 206.203C204.103 206.968 204.279 208.073 204.474 209.419C204.865 212.116 205.333 215.756 205.643 219.561C205.956 223.389 206.1 227.275 205.879 230.499C205.768 232.111 205.572 233.464 205.297 234.515C205.01 235.617 204.708 236.109 204.577 236.26C204.575 236.262 204.177 236.76 202.256 236.317C200.448 235.901 198.16 234.797 195.862 233.188C193.586 231.596 191.536 229.672 190.146 227.843C188.625 225.84 188.405 224.637 188.447 224.304C188.502 223.867 188.566 223.276 188.534 222.74C188.525 222.587 188.503 222.342 188.438 222.058C188.386 221.833 188.236 221.248 187.783 220.655C187.22 219.918 186.164 219.181 184.752 219.267C183.641 219.335 182.918 219.894 182.673 220.098C182.165 220.522 181.873 221.011 181.793 221.144L181.787 221.154C181.658 221.37 181.548 221.588 181.461 221.769C181.286 222.136 181.102 222.577 180.918 223.035C180.526 224.017 179.999 225.445 179.4 227.066C178.924 228.356 178.403 229.768 177.868 231.174C176.616 234.47 175.216 237.949 173.836 240.725C173.144 242.117 172.502 243.24 171.935 244.044C171.858 244.153 171.786 244.251 171.72 244.338C171.582 244.195 171.424 244.019 171.246 243.802C170.05 242.346 168.698 239.993 167.285 237.142C166.052 234.657 164.869 231.994 163.773 229.527C163.632 229.211 163.493 228.898 163.356 228.589C162.209 226.013 161.056 223.449 160.113 221.978C159.954 221.73 159.688 221.344 159.305 220.986C159.049 220.747 157.982 219.786 156.337 219.969C154.455 220.178 153.639 221.618 153.417 222.094C153.159 222.649 153.075 223.171 153.04 223.435C152.905 224.448 153.008 225.908 153.119 227.19C153.225 228.416 153.383 229.886 153.551 231.443C153.578 231.694 153.605 231.946 153.632 232.201C153.831 234.058 154.038 236.036 154.199 237.992C154.477 241.357 154.587 244.336 154.395 246.402C152.706 245.201 151.131 244.108 149.687 243.108L149.484 242.967C147.696 241.729 146.136 240.649 144.771 239.651C141.831 237.502 140.29 236.073 139.582 234.904C139.124 234.148 138.324 233.299 137.071 232.935C135.86 232.583 134.788 232.851 134.093 233.146C132.854 233.672 131.862 234.685 131.216 235.408C129.821 236.967 128.218 239.327 126.705 241.551L126.603 241.703C124.978 244.092 123.371 246.452 121.845 248.3C121.085 249.22 120.42 249.92 119.859 250.397C119.594 250.622 119.4 250.757 119.273 250.835C119.128 250.737 118.892 250.542 118.557 250.167C117.668 249.175 116.726 247.589 115.837 245.708C114.971 243.877 114.253 241.979 113.747 240.519C113.495 239.794 113.3 239.189 113.169 238.769C113.104 238.559 113.055 238.397 113.023 238.289C113.014 238.261 113.007 238.237 113.001 238.217C112.996 238.198 112.991 238.182 112.988 238.17L112.98 238.144L112.979 238.141L112.979 238.14L112.979 238.14L216.676 93.5253ZM216.676 93.5253L214.208 96.0072L218.992 90.918L216.676 93.5253ZM94.0416 248.099L92.8558 244.806C93.7867 244.471 95.3982 243.395 97.057 242.09C97.82 241.49 98.4979 240.918 98.9857 240.496C99.2287 240.286 99.4221 240.115 99.5528 239.998C99.5715 239.981 99.5888 239.966 99.6049 239.951C99.6449 239.915 99.6766 239.887 99.6994 239.866L99.7338 239.835L99.7406 239.829L99.7408 239.828L99.741 239.828L94.0416 248.099ZM94.0416 248.099L92.8558 244.806C90.9771 245.483 88.6139 246.094 84.3484 246.477M94.0416 248.099L84.3484 246.477M84.3484 246.477L85.5443 243.866L85.8622 243.172V242.408V236.717V233.106L82.2522 233.219L82.3622 236.717C82.2522 233.219 82.2506 233.219 82.2489 233.219L82.2455 233.219L82.2383 233.219L82.2221 233.22L82.1829 233.222C82.1538 233.223 82.1189 233.225 82.0783 233.227C82.0363 233.23 81.9882 233.233 81.9343 233.238C81.8844 233.242 81.8295 233.247 81.7701 233.252C81.5237 233.276 81.1938 233.317 80.8032 233.388C80.0312 233.528 78.9717 233.794 77.8336 234.305C75.5036 235.352 72.7622 237.497 71.7385 241.552C71.6191 242.024 71.0811 242.997 69.7782 244.335C68.5549 245.592 66.9467 246.877 65.2436 248.001C63.7321 248.999 62.2401 249.808 60.996 250.34C60.9969 250.327 60.9979 250.315 60.9988 250.302C61.1575 248.179 61.613 245.338 62.1672 242.331C62.4928 240.564 62.8244 238.883 63.1386 237.29C63.3712 236.111 63.5942 234.98 63.7982 233.898C64.0257 232.692 64.2224 231.581 64.3438 230.692C64.404 230.251 64.4543 229.803 64.4752 229.395L64.4756 229.387C64.4892 229.12 64.5271 228.377 64.2995 227.625C64.1463 227.119 63.4392 225.288 61.2718 224.989C59.6674 224.767 58.5567 225.666 58.3487 225.835L58.3361 225.845C57.7106 226.348 57.1682 227.082 56.8638 227.495C56.5457 227.927 56.238 228.363 55.9114 228.826C55.3409 229.635 54.7126 230.527 53.8699 231.617C51.7613 234.346 49.0038 237.351 45.5461 239.397C45.7843 238.81 46.0595 238.181 46.3651 237.519C47.4705 235.124 48.8552 232.551 50.0515 230.329C50.1315 230.18 50.2107 230.033 50.2889 229.888C50.896 228.759 51.4636 227.697 51.8702 226.865C52.0703 226.456 52.2704 226.024 52.4216 225.626C52.4959 225.431 52.5881 225.167 52.6578 224.873L52.6583 224.871C52.7029 224.683 52.8608 224.016 52.7093 223.216C52.3773 221.462 51.0158 220.713 50.3557 220.474C49.7277 220.247 49.1637 220.232 48.9051 220.232C48.3247 220.232 47.7298 220.333 47.277 220.423C46.3009 220.619 45.0316 220.97 43.6476 221.388C40.8445 222.236 37.1241 223.496 33.3684 224.776C33.0619 224.881 32.755 224.985 32.4481 225.09C28.9626 226.278 25.4848 227.463 22.5987 228.378C22.0647 228.548 21.5561 228.706 21.0758 228.852C22.2017 225.863 23.9902 221.909 25.9378 217.856C27.9675 213.631 30.1224 209.398 31.7734 206.213C32.598 204.623 33.2951 203.298 33.7854 202.372C34.0306 201.909 34.224 201.545 34.3557 201.299L34.5058 201.018L34.5439 200.947L34.5532 200.929L34.5554 200.925L34.5559 200.924C34.556 200.924 34.556 200.924 33.3095 200.254L34.556 200.924L29.1135 196.688C29.1106 196.685 29.1107 196.685 29.1107 196.685L29.1101 196.685L29.1074 196.688L29.0876 196.706C29.0689 196.723 29.0392 196.749 28.9993 196.785C28.9196 196.857 28.7994 196.964 28.6451 197.099C28.3358 197.37 27.8928 197.75 27.3659 198.183C26.7157 198.717 25.9684 199.305 25.2064 199.855C26.3023 196.736 28.0859 193.082 29.89 189.764C31.0742 187.586 32.21 185.655 33.05 184.269C33.4694 183.577 33.8137 183.023 34.0514 182.644C34.1703 182.455 34.2624 182.31 34.3239 182.213L34.3927 182.106L34.409 182.08L34.4124 182.075L34.4126 182.075L34.4129 182.074L84.3484 246.477ZM31.7394 165.025C31.2737 165.998 29.3811 169.969 27.6056 173.988C26.8995 175.587 26.2229 177.168 25.6656 178.558C26.7197 178.231 27.7627 177.859 28.589 177.547C29.059 177.371 29.4496 177.217 29.7204 177.109C29.8556 177.055 29.9605 177.012 30.0299 176.984L30.1067 176.952L30.1238 176.945L30.1262 176.944L30.1267 176.944L31.7394 165.025ZM31.7394 165.025C31.7763 164.95 31.8058 164.889 31.8276 164.843L31.8559 164.783L31.865 164.763L31.8683 164.756L31.8696 164.753L31.8702 164.752L31.8705 164.751L31.8706 164.751L31.8707 164.751C31.8707 164.751 31.8708 164.751 28.6923 163.286L31.8708 164.751L25.5394 161.766L25.5393 161.766L25.5393 161.766L25.5392 161.766L25.5387 161.767L25.5373 161.77L25.5319 161.781L25.5115 161.824L25.4414 161.97C25.1482 162.566 24.2669 164.245 23.1655 165.537C23.0471 165.676 22.9344 165.801 22.8282 165.912C22.7998 165.689 22.7742 165.442 22.7525 165.17C22.5932 163.172 22.695 160.52 22.9331 157.757C23.1683 155.03 23.5228 152.34 23.821 150.321C23.9696 149.315 24.1031 148.482 24.1991 147.903C24.2471 147.614 24.2856 147.389 24.3118 147.237L24.3204 147.188C24.3294 147.136 24.3365 147.096 24.3416 147.067L24.3489 147.026L24.3506 147.017L24.3508 147.015L24.3509 147.015L24.3509 147.015L25.796 138.974L22.2716 141.301C22.5586 140.803 22.8368 140.342 23.079 139.95C23.3014 139.59 23.4894 139.296 23.6202 139.094C23.6855 138.993 23.7363 138.915 23.7697 138.865L23.8063 138.809L23.8141 138.798L23.8146 138.797L23.815 138.796L23.8152 138.796L23.8153 138.796L31.3063 127.604L20.4727 133.141C20.8811 131.8 21.2861 130.398 21.6696 129.027C22.3916 126.446 23.0504 123.929 23.5279 122.061C23.7669 121.126 23.9611 120.351 24.0958 119.808C24.1632 119.537 24.2157 119.324 24.2515 119.178L24.2925 119.011L24.3032 118.967L24.306 118.956L24.3067 118.953L24.307 118.952C24.307 118.951 24.3071 118.951 20.906 118.125L24.3071 118.951L26.307 110.719L19.0798 115.139L19.0793 115.139L19.0772 115.141L19.0677 115.147L19.029 115.17L18.875 115.264C18.7397 115.346 18.5406 115.467 18.2876 115.62C17.7816 115.926 17.0608 116.36 16.2041 116.87C15.9585 117.017 15.702 117.169 15.4364 117.326C18.3211 113.226 21.6409 108.476 24.8226 103.899C28.614 98.4453 32.2536 93.1743 34.8089 89.4234C36.083 87.5532 37.1015 86.0403 37.7358 85.0683C38.0324 84.6137 38.3075 84.1828 38.4731 83.8875C38.5113 83.8192 38.5974 83.6641 38.6789 83.4779L38.679 83.4778C38.7091 83.4089 38.8147 83.1677 38.89 82.8471C38.9238 82.7034 39.0055 82.3276 38.9784 81.8427C38.9556 81.4355 38.8073 80.1684 37.6052 79.2512C37.5193 79.1857 37.4331 79.1257 37.3469 79.071C38.4641 78.6664 39.5053 78.2962 40.4244 77.9731C41.5841 77.5654 42.5463 77.234 43.2173 77.0049C43.5527 76.8904 43.8152 76.8015 43.9931 76.7415L44.1948 76.6736L44.2453 76.6567L44.2575 76.6526L44.2602 76.6517L44.2607 76.6515L44.2607 76.6515L44.2607 76.6513L42.9318 69.8385L43.1526 73.3316L42.9317 69.8385L42.931 69.8386L42.9279 69.8388L42.9146 69.8396L42.8603 69.843L42.6455 69.8562C42.4567 69.8678 42.1787 69.8845 41.8243 69.9053C41.1154 69.947 40.1014 70.0046 38.8841 70.0688C37.0455 70.1656 34.7491 70.2768 32.3433 70.3695C35.7697 69.0366 39.5663 67.592 43.4131 66.1428C47.7017 64.5272 52.0311 62.9139 55.9635 61.4485C57.8919 60.7299 59.7249 60.0469 61.4108 59.4166C66.3752 57.5605 70.3574 56.057 71.4014 55.5401L71.4037 55.539C71.6142 55.4348 72.3825 55.0544 72.9481 54.2202C73.2895 53.7167 73.6263 52.9398 73.5661 51.9707C73.5064 51.0094 73.0831 50.2928 72.7071 49.8518C72.2333 49.296 71.6815 48.9911 71.3479 48.8397C71.9731 48.7696 72.5984 48.6999 73.2226 48.6309C79.8455 47.8984 86.3151 47.2342 91.1308 46.7531C93.5381 46.5125 95.531 46.3179 96.9215 46.1833C97.6168 46.1161 98.1614 46.0639 98.5319 46.0285L98.9542 45.9883L98.9586 45.9879C123.786 45.6458 137.631 47.5216 162.547 52.8878L162.609 52.9012L162.672 52.9123C182.669 56.4644 190.737 59.1631 202.293 64.7011C212.265 70.1138 220.9 79.5642 226.679 87.8119C229.112 91.2832 230.974 94.4484 232.18 96.8867L229.953 99.4603C228.872 98.735 227.77 97.9473 226.693 97.1443C224.605 95.5883 222.676 94.0251 221.266 92.8468C220.562 92.2591 219.991 91.7703 219.598 91.4303C219.401 91.2603 219.249 91.1278 219.148 91.0388L219.034 90.9388L219.007 90.9149L219.001 90.9097L219.001 90.9091L219 90.9088L31.7394 165.025ZM22.2204 179.314C22.2209 179.313 22.2333 179.313 22.2562 179.316C22.2314 179.315 22.22 179.314 22.2204 179.314ZM154.219 225.755C154.221 225.758 154.222 225.76 154.224 225.762C154.212 225.744 154.21 225.741 154.219 225.755ZM57.4857 228.945C57.4865 228.944 57.4873 228.964 57.4855 229.01C57.484 228.97 57.4849 228.947 57.4857 228.945ZM68.737 55.3196C68.7373 55.3198 68.7345 55.3191 68.7288 55.3176C68.7341 55.3188 68.7368 55.3195 68.737 55.3196ZM18.5768 143.634C18.5692 143.635 18.5654 143.636 18.5654 143.636C18.5653 143.635 18.5692 143.635 18.5768 143.634ZM19.9692 232.576C19.9686 232.577 19.9685 232.564 19.9709 232.535C19.971 232.561 19.9699 232.576 19.9692 232.576ZM58.9141 250.984C58.9149 250.984 58.9312 250.982 58.9612 250.983C58.9284 250.986 58.9133 250.985 58.9141 250.984ZM119.45 250.929C119.45 250.93 119.437 250.928 119.41 250.915C119.436 250.921 119.449 250.927 119.45 250.929ZM156.151 247.642C156.151 247.642 156.148 247.64 156.141 247.637C156.148 247.64 156.151 247.642 156.151 247.642ZM228.876 218.12C228.875 218.117 228.884 218.089 228.908 218.045C228.89 218.1 228.878 218.123 228.876 218.12ZM249.551 136.189C249.581 136.297 249.565 136.285 249.55 136.187C249.55 136.187 249.551 136.188 249.551 136.189Z" stroke="black" stroke-opacity="0.5" stroke-width="7"/>
</g>
<g filter="url(#filter1_d_2_37)">
<path d="M30.3608 146.396C29.1872 141.406 30.3608 134.28 30.3608 134.28C30.3608 134.28 28.9901 127.448 30.3608 124.183L33.9758 128.589C36.8639 131.24 39.0038 132.508 43.9868 134.28C53.7065 139.505 57.4763 141.048 64.0087 143.642C69.7287 145.387 72.3693 145.569 76.5224 145.111C81.2422 144.744 83.693 144.018 86.8114 142.541L89.8704 150.618L99.6032 153.189C99.6032 153.189 104.609 153.189 112.395 147.314C120.181 141.44 121.572 141.99 126.021 140.889C130.47 139.787 135.754 137.952 140.203 138.319C144.653 138.686 148.546 141.44 152.439 142.541C156.332 143.642 158 143.642 163.84 143.642C166.269 143.642 170.765 142.372 175.19 140.889C175.19 154.107 173.851 159.797 169.68 163.653C165.509 167.508 164.396 166.59 159.669 168.976C154.942 171.363 152.995 171.179 147.711 172.281C142.428 173.382 136.866 172.281 132.695 172.281C128.524 172.281 127.69 172.281 122.962 170.078C118.235 167.875 117.122 165.488 114.342 163.653C111.561 161.817 106.833 158.329 106.833 158.329L102.384 155.759L99.6032 153.189L89.8704 150.618L81.806 150.251L64.0087 153.189L47.6019 162.184C45.1403 162.089 43.1743 161.3 38.4252 158.329C33.538 155.008 31.4173 152.668 30.3608 146.396Z" fill="white"/>
<path d="M89.8704 150.618L81.806 150.251L64.0087 153.189L47.6019 162.184C45.1403 162.089 43.1743 161.3 38.4252 158.329C33.538 155.008 31.4173 152.668 30.3608 146.396C29.1872 141.406 30.3608 134.28 30.3608 134.28C30.3608 134.28 28.9901 127.448 30.3608 124.183L33.9758 128.589C36.8639 131.24 39.0038 132.508 43.9868 134.28C53.7065 139.505 57.4763 141.048 64.0087 143.642C69.7287 145.387 72.3693 145.569 76.5224 145.111C81.2422 144.744 83.693 144.018 86.8114 142.541M89.8704 150.618L86.8114 142.541M89.8704 150.618L99.6032 153.189M86.8114 142.541C86.0055 140.065 89.8704 136.483 84.8649 135.381M99.6032 153.189C99.6032 153.189 104.609 153.189 112.395 147.314C120.181 141.44 121.572 141.99 126.021 140.889C130.47 139.787 135.754 137.952 140.203 138.319C144.653 138.686 148.546 141.44 152.439 142.541C156.332 143.642 158 143.642 163.84 143.642C169.68 143.642 187.477 136.299 187.477 136.299M99.6032 153.189L102.384 155.759L106.833 158.329C106.833 158.329 111.561 161.817 114.342 163.653C117.122 165.488 118.235 167.875 122.962 170.078C127.69 172.281 128.524 172.281 132.695 172.281C136.866 172.281 142.428 173.382 147.711 172.281C152.995 171.179 154.942 171.363 159.669 168.976C164.396 166.59 165.509 167.508 169.68 163.653C173.851 159.797 175.19 154.107 175.19 140.889" stroke="black" stroke-width="8"/>
</g>
<g filter="url(#filter2_d_2_37)">
<path d="M147.711 152.087C147.711 158.373 141.316 163.469 130.748 163.469C122.962 163.469 114.063 157.455 114.063 151.169C114.063 144.883 123.223 139.787 130.748 139.787C138.274 139.787 147.711 145.801 147.711 152.087Z" fill="#050505"/>
<ellipse cx="132.973" cy="147.681" rx="4.7274" ry="5.69097" fill="#FEFEFE"/>
<path d="M57.6128 145.662C53.9977 151.72 55.1064 153.189 49.2704 153.189C43.7337 152.979 39.0534 148.833 38.7032 144.01C40.6498 138.686 41.2096 136.483 47.0457 136.483C52.8818 136.483 55.3882 140.338 57.6128 145.662Z" fill="black"/>
<path d="M48.158 139.604C48.158 140.415 48.2453 141.44 47.3238 141.44C46.4023 141.44 44.821 140.415 44.821 139.604C44.821 138.793 44.821 137.401 46.4895 138.135C47.411 138.135 47.3238 138.686 48.158 139.604Z" fill="white"/>
</g>
<g filter="url(#filter3_d_2_37)">
<g filter="url(#filter4_di_2_37)">
<path d="M131.339 201.034C131.651 200.828 132.027 200.642 132.413 200.473C132.559 200.384 132.71 200.296 132.873 200.208C134.037 199.579 134.503 201.163 134.503 201.631C134.503 201.936 134.989 202.199 134.989 202.526C134.989 202.694 134.863 202.811 134.974 202.985C135.038 203.085 134.92 203.202 134.92 203.306C134.92 203.412 134.989 203.502 134.989 203.607C134.989 204.302 135.198 204.988 135.198 205.682V206.84C135.198 207.114 135.121 207.446 135.233 207.712C135.354 208 135.243 208.384 135.194 208.676C135.134 209.034 134.973 209.386 134.866 209.741C134.76 210.091 134.604 210.448 134.433 210.787C134.27 211.11 134.026 211.427 133.881 211.748C133.756 212.023 133.427 212.252 133.321 212.533C133.228 212.777 133.046 213.034 132.888 213.265C132.722 213.509 132.596 213.756 132.417 213.999C132.322 214.128 132.289 214.27 132.208 214.402C132.136 214.521 131.978 214.611 131.93 214.736C131.84 214.974 131.583 215.319 131.405 215.537C131.185 215.807 131.066 216.121 130.972 216.422C130.725 217.221 130.627 218.03 130.536 218.841C130.482 219.32 130.343 219.847 130.161 220.31C130.005 220.708 130.053 221.208 130.053 221.618C130.053 222.22 130.24 222.82 130.262 223.423C130.286 224.066 130.331 224.706 130.331 225.351C130.331 226.478 130.123 227.605 130.123 228.732C130.123 229.773 130.097 230.866 129.879 231.898C129.82 232.181 129.839 232.464 129.775 232.747C129.721 232.987 129.612 233.217 129.567 233.459C129.475 233.944 129.199 234.391 129.01 234.861C128.811 235.358 128.522 235.835 128.369 236.34C128.293 236.592 128.305 237.081 127.96 237.245C126.635 237.877 125.099 238.136 123.503 238.268C122.718 238.332 122.173 238.196 121.502 237.956C121.198 237.848 120.949 237.684 120.637 237.579C120.331 237.476 120.006 237.428 119.699 237.334C118.775 237.055 117.829 236.882 117.331 236.258C116.904 235.724 116.636 235.155 116.636 234.537C116.636 233.871 116.242 233.239 116.026 232.597C115.861 232.107 115.596 231.635 115.384 231.154C115.165 230.656 115.007 230.15 114.793 229.65C114.598 229.19 114.411 228.73 114.411 228.25C114.411 227.838 114.25 227.382 114.357 226.977C114.488 226.479 114.583 225.974 114.705 225.473C114.826 224.975 114.704 224.369 114.62 223.867C114.321 222.091 113.661 220.176 114.933 218.497C115.046 218.348 115.13 218.169 115.211 218.01C115.329 217.776 115.53 217.522 115.593 217.281C115.657 217.036 115.795 216.995 115.384 217.13C114.917 217.285 114.413 217.748 114.203 218.061C114.08 218.242 113.868 218.398 113.785 218.589C113.672 218.852 113.341 219.022 113.191 219.277C113.044 219.526 112.797 219.817 112.569 220.035C112.271 220.319 111.86 220.54 111.576 220.828C111.196 221.213 110.604 221.479 110.17 221.837C109.688 222.235 108.983 222.578 108.606 223.018C108.216 223.473 107.939 223.925 107.463 224.349C107.038 224.727 106.853 225.172 106.347 225.519C105.762 225.919 105.401 226.453 105.01 226.942C104.677 227.359 104.089 227.672 103.744 228.087C103.454 228.434 103.103 228.746 102.728 229.055C102.352 229.365 101.932 229.659 101.565 229.971C101.259 230.231 100.933 230.391 100.577 230.613C100.319 230.774 99.982 230.819 99.7075 230.96C99.242 231.199 98.7143 231.091 98.2128 231.072C98.086 231.068 97.561 230.976 97.4635 230.924C97.287 230.831 97.0033 230.926 96.7915 230.886C96.1924 230.773 95.9672 230.357 95.7731 229.998L95.7642 229.981C95.5319 229.552 95.0844 229.086 95.0844 228.614C95.0844 228.357 94.9256 228.094 94.8797 227.837C94.8135 227.465 94.9161 227.097 94.9994 226.733C95.1716 225.98 95.4878 225.249 95.5672 224.489C95.6482 223.714 96.0141 223.044 96.4903 222.352C96.8852 221.779 97.1034 221.151 97.6953 220.654C97.9515 220.439 98.3716 220.208 98.6956 220.035C99.066 219.836 99.3772 219.596 99.7037 219.369C100.302 218.953 100.867 218.535 101.48 218.13C102.087 217.729 102.876 217.47 103.635 217.212C104.512 216.914 105.269 216.543 106.069 216.159C106.558 215.924 107.107 215.743 107.602 215.514C108.188 215.243 108.841 214.937 109.475 214.723C110.199 214.48 110.839 214.128 111.545 213.862C112.208 213.612 112.876 213.372 113.538 213.127C114.412 212.804 115.28 212.412 116.08 212.016C116.764 211.677 117.319 211.254 117.922 210.856C118.627 210.39 119.552 210.101 120.251 209.639C120.782 209.289 121.271 208.954 121.676 208.538C121.905 208.303 122.259 208.067 122.545 207.852C122.803 207.657 123.034 207.435 123.31 207.253C123.571 207.081 123.789 206.862 124.005 206.666C124.294 206.405 124.656 206.164 124.982 205.922C125.561 205.492 126.166 205.068 126.562 204.545C126.957 204.023 127.467 203.59 128.107 203.168C128.47 202.929 128.789 202.672 129.149 202.434C129.416 202.258 129.78 202.052 129.968 201.837C130.293 201.467 130.902 201.323 131.339 201.034Z" fill="#8A0303"/>
<path d="M133.661 201.581C134.432 201.278 134.811 200.407 134.508 199.636C134.205 198.865 133.335 198.486 132.564 198.789L133.661 201.581ZM131.339 201.034L130.513 199.782L130.513 199.782L131.339 201.034ZM129.968 201.837L128.84 200.848L128.84 200.848L129.968 201.837ZM129.149 202.434L129.976 203.686L129.976 203.686L129.149 202.434ZM128.107 203.168L127.28 201.916L127.28 201.916L128.107 203.168ZM126.562 204.545L127.757 205.451L127.757 205.451L126.562 204.545ZM124.982 205.922L124.088 204.718L124.088 204.718L124.982 205.922ZM124.005 206.666L122.999 205.553L122.999 205.553L124.005 206.666ZM123.31 207.253L122.483 206.001L122.483 206.001L123.31 207.253ZM122.545 207.852L121.642 206.655L121.642 206.655L122.545 207.852ZM121.676 208.538L122.751 209.584L122.751 209.584L121.676 208.538ZM120.251 209.639L121.077 210.891L121.077 210.891L120.251 209.639ZM117.922 210.856L118.748 212.107L118.748 212.107L117.922 210.856ZM116.08 212.016L115.414 210.671L115.414 210.671L116.08 212.016ZM113.538 213.127L113.018 211.72L113.018 211.72L113.538 213.127ZM111.545 213.862L111.016 212.458L111.016 212.458L111.545 213.862ZM109.475 214.723L109.953 216.145L109.953 216.145L109.475 214.723ZM107.602 215.514L108.231 216.876L108.231 216.876L107.602 215.514ZM106.069 216.159L106.718 217.511L106.718 217.511L106.069 216.159ZM103.635 217.212L103.153 215.792L103.153 215.792L103.635 217.212ZM101.48 218.13L100.654 216.878L100.654 216.878L101.48 218.13ZM99.7037 219.369L100.56 220.601L100.56 220.601L99.7037 219.369ZM98.6956 220.035L99.4046 221.356L99.4046 221.356L98.6956 220.035ZM97.6953 220.654L96.7304 219.506L96.7304 219.506L97.6953 220.654ZM96.4903 222.352L95.2548 221.502L95.2548 221.502L96.4903 222.352ZM95.5672 224.489L94.0753 224.333L94.0753 224.333L95.5672 224.489ZM94.9994 226.733L93.5372 226.398L93.5372 226.398L94.9994 226.733ZM94.8797 227.837L96.3564 227.574L96.3564 227.574L94.8797 227.837ZM95.7642 229.981L97.0836 229.267L97.0835 229.267L95.7642 229.981ZM95.7731 229.998L97.0927 229.284L97.0926 229.284L95.7731 229.998ZM96.7915 230.886L97.0695 229.412L97.0695 229.412L96.7915 230.886ZM97.4635 230.924L96.763 232.251L96.763 232.251L97.4635 230.924ZM98.2128 231.072L98.2678 229.573L98.2678 229.573L98.2128 231.072ZM99.7075 230.96L100.393 232.294L100.393 232.294L99.7075 230.96ZM100.577 230.613L99.7811 229.342L99.7811 229.342L100.577 230.613ZM101.565 229.971L100.595 228.827L100.595 228.827L101.565 229.971ZM102.728 229.055L101.773 227.898L101.773 227.898L102.728 229.055ZM103.744 228.087L104.896 229.047L104.896 229.047L103.744 228.087ZM105.01 226.942L106.182 227.879L106.182 227.879L105.01 226.942ZM106.347 225.519L105.499 224.282L105.499 224.282L106.347 225.519ZM107.463 224.349L106.465 223.229L107.463 224.349ZM108.606 223.018L107.467 222.042L107.467 222.042L108.606 223.018ZM110.17 221.837L109.216 220.68L109.216 220.68L110.17 221.837ZM111.576 220.828L112.644 221.881L112.644 221.881L111.576 220.828ZM112.569 220.035L113.604 221.12L113.604 221.12L112.569 220.035ZM113.191 219.277L111.898 218.516L111.898 218.516L113.191 219.277ZM113.785 218.589L112.409 217.993L112.409 217.993L113.785 218.589ZM114.203 218.061L112.958 217.223L112.958 217.223L114.203 218.061ZM115.384 217.13L114.914 215.706L114.914 215.706L115.384 217.13ZM115.593 217.281L114.142 216.899L114.142 216.899L115.593 217.281ZM115.211 218.01L116.55 218.686L116.55 218.686L115.211 218.01ZM114.933 218.497L113.737 217.591L113.737 217.591L114.933 218.497ZM114.62 223.867L113.14 224.116L113.14 224.116L114.62 223.867ZM114.705 225.473L116.162 225.828L116.162 225.828L114.705 225.473ZM114.357 226.977L112.907 226.595L112.907 226.595L114.357 226.977ZM114.793 229.65L116.173 229.062L116.173 229.062L114.793 229.65ZM115.384 231.154L114.011 231.758L114.011 231.758L115.384 231.154ZM116.026 232.597L114.604 233.076L114.604 233.076L116.026 232.597ZM117.331 236.258L116.159 237.195L116.159 237.195L117.331 236.258ZM119.699 237.334L119.264 238.77L119.264 238.77L119.699 237.334ZM120.637 237.579L120.159 239.001L120.159 239.001L120.637 237.579ZM121.502 237.956L122.006 236.544L122.006 236.544L121.502 237.956ZM123.503 238.268L123.626 239.762L123.626 239.762L123.503 238.268ZM127.96 237.245L128.605 238.599L128.605 238.599L127.96 237.245ZM128.369 236.34L126.934 235.905L126.934 235.905L128.369 236.34ZM129.01 234.861L127.618 234.303L127.618 234.303L129.01 234.861ZM129.567 233.459L128.093 233.18L128.093 233.18L129.567 233.459ZM129.775 232.747L128.312 232.419L128.312 232.419L129.775 232.747ZM129.879 231.898L128.412 231.59L128.412 231.59L129.879 231.898ZM130.262 223.423L128.763 223.478L128.763 223.478L130.262 223.423ZM130.161 220.31L128.765 219.762L128.765 219.762L130.161 220.31ZM130.536 218.841L132.027 219.009L132.027 219.009L130.536 218.841ZM130.972 216.422L129.54 215.978L129.54 215.978L130.972 216.422ZM131.405 215.537L132.567 216.485L132.567 216.485L131.405 215.537ZM131.93 214.736L133.333 215.267L133.333 215.267L131.93 214.736ZM132.208 214.402L130.93 213.618L130.93 213.618L132.208 214.402ZM132.417 213.999L133.625 214.888L133.625 214.888L132.417 213.999ZM132.888 213.265L131.649 212.42L131.649 212.42L132.888 213.265ZM133.321 212.533L134.723 213.065L134.723 213.064L133.321 212.533ZM133.881 211.748L135.246 212.369L135.246 212.369L133.881 211.748ZM134.433 210.787L135.772 211.463L135.772 211.463L134.433 210.787ZM134.866 209.741L136.301 210.176L136.301 210.176L134.866 209.741ZM135.194 208.676L136.673 208.925L136.673 208.925L135.194 208.676ZM135.233 207.712L133.85 208.294L133.85 208.294L135.233 207.712ZM134.974 202.985L136.238 202.178L136.238 202.178L134.974 202.985ZM132.873 200.208L132.16 198.888L132.16 198.888L132.873 200.208ZM131.583 201.011L132.409 202.263L132.409 202.263L131.583 201.011ZM130.887 201.516L130.061 200.264L130.061 200.264L130.887 201.516ZM130.54 201.745L131.366 202.997L131.366 202.997L130.54 201.745ZM132.564 198.789C132.326 198.882 132.069 198.986 131.812 199.099L133.015 201.847C133.223 201.756 133.44 201.668 133.661 201.581L132.564 198.789ZM131.812 199.099C131.392 199.282 130.928 199.508 130.513 199.782L132.166 202.286C132.374 202.148 132.661 202.002 133.015 201.847L131.812 199.099ZM130.513 199.782C130.409 199.851 130.319 199.882 129.964 200.052C129.708 200.174 129.223 200.412 128.84 200.848L131.096 202.826C131.038 202.892 131.02 202.873 131.259 202.758C131.311 202.734 131.364 202.709 131.429 202.679C131.492 202.65 131.565 202.615 131.64 202.579C131.788 202.508 131.976 202.411 132.166 202.286L130.513 199.782ZM128.84 200.848C128.868 200.816 128.88 200.81 128.856 200.829C128.835 200.846 128.8 200.872 128.746 200.909C128.692 200.946 128.632 200.984 128.558 201.031C128.492 201.073 128.404 201.129 128.323 201.182L129.976 203.686C130.002 203.668 130.311 203.473 130.43 203.392C130.596 203.279 130.869 203.085 131.096 202.826L128.84 200.848ZM128.323 201.182C128.11 201.323 127.912 201.467 127.746 201.588C127.572 201.714 127.429 201.818 127.28 201.916L128.933 204.42C129.148 204.278 129.345 204.134 129.511 204.013C129.686 203.887 129.828 203.783 129.976 203.686L128.323 201.182ZM127.28 201.916C126.556 202.394 125.899 202.936 125.366 203.639L127.757 205.451C128.016 205.11 128.378 204.786 128.933 204.42L127.28 201.916ZM125.366 203.639C125.132 203.949 124.748 204.227 124.088 204.718L125.876 207.126C126.375 206.756 127.2 206.187 127.757 205.451L125.366 203.639ZM124.088 204.718C123.853 204.892 123.36 205.228 122.999 205.553L125.01 207.779C125.229 207.582 125.46 207.436 125.876 207.126L124.088 204.718ZM122.999 205.553C122.705 205.819 122.619 205.911 122.483 206.001L124.136 208.505C124.522 208.25 124.872 207.904 125.01 207.779L122.999 205.553ZM122.483 206.001C122.276 206.138 122.099 206.281 121.966 206.391C121.816 206.514 121.736 206.583 121.642 206.655L123.448 209.049C123.612 208.926 123.776 208.786 123.875 208.705C123.992 208.609 124.068 208.55 124.136 208.505L122.483 206.001ZM121.642 206.655C121.481 206.776 120.937 207.147 120.601 207.491L122.751 209.584C122.873 209.459 123.038 209.359 123.448 209.049L121.642 206.655ZM120.601 207.491C120.323 207.777 119.962 208.032 119.424 208.388L121.077 210.891C121.601 210.545 122.219 210.131 122.751 209.584L120.601 207.491ZM119.424 208.388C119.187 208.545 118.888 208.686 118.459 208.885C118.074 209.063 117.559 209.298 117.095 209.604L118.748 212.107C118.99 211.948 119.29 211.805 119.719 211.607C120.103 211.43 120.616 211.195 121.077 210.891L119.424 208.388ZM117.095 209.604C116.388 210.071 115.987 210.388 115.414 210.671L116.745 213.36C117.541 212.966 118.249 212.437 118.748 212.107L117.095 209.604ZM115.414 210.671C114.645 211.052 113.827 211.421 113.018 211.72L114.058 214.534C114.996 214.188 115.915 213.771 116.745 213.36L115.414 210.671ZM113.018 211.72C112.378 211.957 111.681 212.207 111.016 212.458L112.075 215.265C112.734 215.017 113.375 214.787 114.058 214.534L113.018 211.72ZM111.016 212.458C110.61 212.611 110.223 212.789 109.904 212.932C109.568 213.083 109.284 213.205 108.997 213.302L109.953 216.145C110.39 215.998 110.789 215.823 111.13 215.67C111.489 215.51 111.775 215.378 112.075 215.265L111.016 212.458ZM108.997 213.302C108.269 213.547 107.536 213.892 106.973 214.152L108.231 216.876C108.841 216.594 109.412 216.327 109.953 216.145L108.997 213.302ZM106.973 214.152C106.771 214.246 106.552 214.332 106.28 214.44C106.024 214.542 105.718 214.664 105.419 214.807L106.718 217.511C106.909 217.42 107.122 217.333 107.386 217.228C107.634 217.13 107.938 217.011 108.231 216.876L106.973 214.152ZM105.419 214.807C104.599 215.201 103.928 215.529 103.153 215.792L104.118 218.632C105.096 218.3 105.938 217.886 106.718 217.511L105.419 214.807ZM103.153 215.792C102.457 216.028 101.457 216.348 100.654 216.878L102.307 219.382C102.717 219.111 103.295 218.912 104.118 218.632L103.153 215.792ZM100.654 216.878C100.026 217.293 99.3923 217.759 98.8477 218.137L100.56 220.601C101.211 220.148 101.708 219.777 102.307 219.382L100.654 216.878ZM98.8477 218.137C98.4453 218.417 98.2561 218.568 97.9866 218.713L99.4046 221.356C99.8759 221.104 100.309 220.775 100.56 220.601L98.8477 218.137ZM97.9866 218.713C97.6982 218.867 97.1288 219.171 96.7304 219.506L98.6602 221.803C98.7743 221.707 99.0449 221.549 99.4046 221.356L97.9866 218.713ZM96.7304 219.506C96.2595 219.901 95.958 220.335 95.7395 220.692C95.471 221.13 95.4344 221.241 95.2548 221.502L97.7257 223.203C97.9411 222.89 98.2111 222.4 98.2983 222.258C98.4356 222.033 98.5392 221.904 98.6602 221.803L96.7304 219.506ZM95.2548 221.502C94.7402 222.249 94.1964 223.174 94.0753 224.333L97.0591 224.645C97.1 224.253 97.2881 223.838 97.7257 223.203L95.2548 221.502ZM94.0753 224.333C94.0507 224.568 93.9858 224.831 93.8802 225.186C93.7865 225.501 93.6375 225.959 93.5372 226.398L96.4617 227.067C96.5335 226.753 96.6287 226.469 96.756 226.041C96.8714 225.652 97.0043 225.169 97.0591 224.645L94.0753 224.333ZM93.5372 226.398C93.4837 226.632 93.2705 227.356 93.403 228.1L96.3564 227.574C96.3619 227.604 96.3531 227.596 96.3667 227.506C96.3734 227.461 96.384 227.407 96.4007 227.331C96.4208 227.241 96.4343 227.187 96.4617 227.067L93.5372 226.398ZM93.403 228.1C93.4321 228.263 93.4745 228.403 93.5062 228.499C93.5225 228.549 93.5386 228.595 93.5512 228.63C93.5659 228.672 93.5735 228.693 93.5832 228.72C93.6014 228.772 93.6028 228.781 93.6005 228.771C93.5977 228.76 93.5844 228.702 93.5844 228.614H96.5844C96.5844 228.207 96.4617 227.864 96.4153 227.731C96.3786 227.626 96.3725 227.612 96.3559 227.562C96.345 227.529 96.3503 227.539 96.3564 227.574L93.403 228.1ZM93.5844 228.614C93.5844 229.294 93.8962 229.834 94.0596 230.1C94.15 230.247 94.2527 230.396 94.3138 230.488C94.3873 230.597 94.4236 230.655 94.4448 230.695L97.0835 229.267C96.9886 229.092 96.8818 228.931 96.8062 228.818C96.718 228.686 96.6653 228.61 96.6147 228.528C96.5672 228.45 96.5549 228.42 96.5552 228.421C96.5564 228.424 96.5844 228.495 96.5844 228.614H93.5844ZM94.4447 230.694L94.4537 230.711L97.0926 229.284L97.0836 229.267L94.4447 230.694ZM94.4536 230.711C94.6401 231.056 95.1562 232.104 96.5135 232.36L97.0695 229.412C97.0691 229.412 97.0766 229.413 97.0901 229.418C97.1037 229.423 97.1203 229.43 97.1385 229.441C97.1771 229.462 97.2036 229.486 97.2164 229.499C97.2264 229.51 97.2203 229.506 97.1975 229.47C97.1862 229.452 97.1726 229.429 97.1549 229.398C97.1365 229.365 97.1179 229.331 97.0927 229.284L94.4536 230.711ZM96.5135 232.36C96.6218 232.381 96.7195 232.39 96.7996 232.394C96.8797 232.398 96.9511 232.397 97.0074 232.395C97.0632 232.393 97.1137 232.39 97.1489 232.388C97.194 232.385 97.2048 232.384 97.2296 232.383C97.2477 232.382 97.2504 232.382 97.2451 232.382C97.2397 232.382 97.2166 232.382 97.1818 232.379C97.1194 232.373 96.9557 232.353 96.763 232.251L98.164 229.598C97.8831 229.45 97.6177 229.406 97.4458 229.39C97.2761 229.375 97.1265 229.383 97.0519 229.388C96.9359 229.395 96.9483 229.396 96.9147 229.397C96.9003 229.397 96.9671 229.393 97.0695 229.412L96.5135 232.36ZM96.763 232.251C96.9783 232.364 97.2129 232.417 97.2467 232.425C97.347 232.45 97.4544 232.472 97.55 232.49C97.6992 232.518 97.9668 232.564 98.1579 232.571L98.2678 229.573C98.2928 229.574 98.3097 229.576 98.3142 229.576C98.3201 229.577 98.322 229.577 98.3188 229.576C98.3121 229.576 98.2971 229.574 98.2737 229.57C98.2269 229.563 98.1662 229.553 98.1044 229.542C98.0741 229.536 98.0455 229.53 98.0199 229.525C97.994 229.519 97.9743 229.515 97.9611 229.512C97.9457 229.508 97.9486 229.508 97.9641 229.513C97.9722 229.516 97.9917 229.522 98.0186 229.532C98.0325 229.537 98.0515 229.545 98.0741 229.555C98.0962 229.564 98.1273 229.579 98.164 229.598L96.763 232.251ZM98.1578 232.571C98.2499 232.575 98.3388 232.582 98.4864 232.592C98.6179 232.602 98.7917 232.613 98.9764 232.613C99.349 232.612 99.8644 232.566 100.393 232.294L99.0224 229.626C99.0851 229.593 99.1039 229.612 98.9709 229.613C98.9028 229.613 98.8215 229.609 98.6985 229.6C98.5916 229.592 98.4265 229.579 98.2678 229.573L98.1578 232.571ZM100.393 232.294C100.382 232.3 100.388 232.296 100.428 232.281C100.475 232.265 100.518 232.251 100.612 232.221C100.754 232.174 101.068 232.075 101.372 231.885L99.7811 229.342C99.828 229.312 99.8442 229.316 99.6852 229.367C99.6286 229.386 99.5194 229.42 99.4179 229.457C99.3096 229.495 99.1705 229.55 99.0224 229.626L100.393 232.294ZM101.372 231.885C101.566 231.764 102.12 231.467 102.536 231.114L100.595 228.827C100.398 228.994 100.299 229.018 99.7811 229.342L101.372 231.885ZM102.536 231.114C102.686 230.987 102.854 230.857 103.054 230.704C103.244 230.559 103.468 230.389 103.683 230.212L101.773 227.898C101.612 228.032 101.439 228.163 101.233 228.321C101.037 228.47 100.811 228.643 100.595 228.827L102.536 231.114ZM103.683 230.212C104.075 229.888 104.514 229.505 104.896 229.047L102.591 227.126C102.394 227.363 102.131 227.603 101.773 227.898L103.683 230.212ZM104.896 229.047C104.947 228.985 105.042 228.904 105.308 228.694C105.512 228.534 105.887 228.247 106.182 227.879L103.839 226.004C103.8 226.054 103.715 226.131 103.454 226.336C103.257 226.491 102.885 226.773 102.591 227.126L104.896 229.047ZM106.182 227.879C106.666 227.274 106.846 226.995 107.194 226.756L105.499 224.282C104.678 224.844 104.137 225.633 103.839 226.004L106.182 227.879ZM107.194 226.756C107.632 226.457 107.915 226.121 108.103 225.887C108.313 225.627 108.366 225.553 108.461 225.468L106.465 223.229C106.135 223.523 105.883 223.861 105.767 224.005C105.63 224.175 105.568 224.234 105.499 224.282L107.194 226.756ZM108.461 225.468C108.79 225.176 109.038 224.883 109.24 224.63C109.467 224.345 109.57 224.198 109.746 223.993L107.467 222.042C107.253 222.292 107.022 222.599 106.894 222.76C106.74 222.953 106.612 223.098 106.465 223.229L108.461 225.468ZM109.746 223.993C109.786 223.946 109.897 223.85 110.185 223.657C110.404 223.51 110.808 223.255 111.125 222.994L109.216 220.68C109.05 220.817 108.861 220.933 108.513 221.166C108.233 221.354 107.803 221.649 107.467 222.042L109.746 223.993ZM111.125 222.994C111.252 222.889 111.405 222.796 111.701 222.607C111.946 222.45 112.322 222.208 112.644 221.881L110.508 219.774C110.45 219.833 110.341 219.916 110.086 220.078C109.883 220.208 109.522 220.427 109.216 220.68L111.125 222.994ZM112.644 221.881C112.684 221.84 112.756 221.782 112.946 221.645C113.096 221.537 113.366 221.347 113.604 221.12L111.534 218.949C111.474 219.006 111.39 219.069 111.189 219.214C111.027 219.33 110.752 219.527 110.508 219.774L112.644 221.881ZM113.604 221.12C113.899 220.839 114.246 220.441 114.483 220.039L111.898 218.516C111.842 218.611 111.695 218.795 111.534 218.949L113.604 221.12ZM114.483 220.039C114.439 220.114 114.401 220.151 114.411 220.14C114.428 220.123 114.444 220.108 114.522 220.036C114.581 219.981 114.691 219.878 114.799 219.754C114.91 219.626 115.053 219.437 115.162 219.185L112.409 217.993C112.461 217.873 112.52 217.803 112.532 217.789C112.541 217.778 112.538 217.784 112.482 217.836C112.444 217.871 112.342 217.963 112.251 218.058C112.154 218.159 112.018 218.313 111.898 218.516L114.483 220.039ZM115.162 219.185C115.121 219.28 115.077 219.339 115.065 219.356C115.054 219.371 115.052 219.371 115.082 219.338C115.099 219.32 115.111 219.307 115.136 219.28C115.158 219.256 115.187 219.225 115.217 219.191C115.276 219.125 115.362 219.024 115.447 218.899L112.958 217.223C112.982 217.189 112.996 217.175 112.978 217.195C112.948 217.229 112.944 217.232 112.876 217.305C112.828 217.357 112.75 217.443 112.671 217.547C112.592 217.652 112.492 217.802 112.409 217.993L115.162 219.185ZM115.447 218.899C115.445 218.902 115.462 218.877 115.505 218.831C115.546 218.787 115.597 218.739 115.653 218.692C115.71 218.645 115.763 218.608 115.806 218.582C115.852 218.554 115.869 218.55 115.855 218.555L114.914 215.706C114.438 215.863 114.032 216.14 113.741 216.38C113.447 216.624 113.162 216.921 112.958 217.223L115.447 218.899ZM115.855 218.555C115.99 218.51 115.993 218.51 115.976 218.514C115.964 218.517 115.931 218.526 115.886 218.534C115.846 218.54 115.754 218.555 115.634 218.554C115.527 218.553 115.281 218.54 115.004 218.405C114.674 218.244 114.398 217.957 114.259 217.582C114.142 217.264 114.165 216.993 114.181 216.875C114.198 216.746 114.229 216.65 114.241 216.615C114.262 216.552 114.287 216.497 114.268 216.542C114.249 216.586 114.189 216.722 114.142 216.899L117.043 217.663C117.029 217.718 117.011 217.757 117.023 217.728C117.025 217.723 117.034 217.703 117.042 217.682C117.051 217.663 117.068 217.619 117.086 217.565C117.102 217.518 117.136 217.411 117.154 217.273C117.171 217.146 117.194 216.868 117.074 216.544C116.934 216.163 116.654 215.871 116.317 215.708C116.034 215.57 115.78 215.555 115.662 215.554C115.437 215.552 115.255 215.602 115.223 215.61C115.118 215.638 114.984 215.683 114.914 215.706L115.855 218.555ZM114.142 216.899C114.158 216.838 114.175 216.806 114.172 216.812C114.169 216.817 114.159 216.837 114.132 216.883C114.119 216.905 114.105 216.929 114.086 216.959C114.07 216.986 114.047 217.022 114.026 217.058C113.984 217.127 113.927 217.225 113.872 217.334L116.55 218.686C116.554 218.678 116.566 218.656 116.597 218.605C116.612 218.58 116.678 218.471 116.713 218.413C116.792 218.28 116.954 218.001 117.043 217.663L114.142 216.899ZM113.872 217.334C113.86 217.356 113.849 217.379 113.839 217.398C113.829 217.419 113.82 217.437 113.811 217.454C113.793 217.489 113.779 217.516 113.767 217.539C113.74 217.588 113.731 217.599 113.737 217.591L116.128 219.403C116.344 219.118 116.499 218.786 116.55 218.686L113.872 217.334ZM113.737 217.591C112.826 218.793 112.634 220.074 112.689 221.217C112.738 222.243 113.022 223.412 113.14 224.116L116.099 223.618C115.919 222.547 115.723 221.87 115.685 221.074C115.653 220.396 115.767 219.88 116.128 219.403L113.737 217.591ZM113.14 224.116C113.189 224.403 113.227 224.605 113.246 224.811C113.265 225.014 113.251 225.101 113.247 225.118L116.162 225.828C116.279 225.347 116.265 224.882 116.233 224.532C116.2 224.185 116.135 223.833 116.099 223.618L113.14 224.116ZM113.247 225.118C113.087 225.776 113.046 226.064 112.907 226.595L115.808 227.36C115.93 226.894 116.078 226.173 116.162 225.828L113.247 225.118ZM112.907 226.595C112.776 227.092 112.825 227.551 112.856 227.796C112.898 228.139 112.911 228.168 112.911 228.25H115.911C115.911 228.055 115.892 227.878 115.876 227.748C115.868 227.682 115.859 227.617 115.851 227.565C115.844 227.51 115.838 227.467 115.833 227.426C115.809 227.239 115.832 227.267 115.808 227.36L112.907 226.595ZM112.911 228.25C112.911 229.081 113.233 229.813 113.413 230.237L116.173 229.062C115.963 228.567 115.911 228.379 115.911 228.25H112.911ZM113.413 230.237C113.504 230.45 113.584 230.667 113.681 230.927C113.774 231.176 113.882 231.464 114.011 231.758L116.757 230.55C116.668 230.345 116.587 230.132 116.492 229.879C116.402 229.637 116.296 229.35 116.173 229.062L113.413 230.237ZM114.011 231.758C114.128 232.023 114.272 232.315 114.367 232.514C114.473 232.739 114.55 232.916 114.604 233.076L117.447 232.118C117.336 231.788 117.198 231.484 117.079 231.231C116.946 230.951 116.853 230.767 116.757 230.55L114.011 231.758ZM114.604 233.076C114.718 233.414 114.955 233.951 115.014 234.104C115.12 234.374 115.136 234.489 115.136 234.537H118.136C118.136 233.92 117.954 233.385 117.809 233.013C117.618 232.522 117.549 232.422 117.447 232.118L114.604 233.076ZM115.136 234.537C115.136 235.613 115.607 236.504 116.159 237.195L118.503 235.322C118.2 234.944 118.136 234.696 118.136 234.537H115.136ZM116.159 237.195C116.656 237.816 117.312 238.135 117.826 238.329C118.298 238.507 118.921 238.666 119.264 238.77L120.133 235.899C119.892 235.826 119.619 235.751 119.425 235.695C119.208 235.632 119.034 235.578 118.884 235.522C118.57 235.403 118.505 235.324 118.503 235.322L116.159 237.195ZM119.264 238.77C119.476 238.834 119.691 238.882 119.829 238.914C119.988 238.951 120.082 238.975 120.159 239.001L121.115 236.157C120.886 236.08 120.665 236.028 120.508 235.992C120.33 235.951 120.229 235.928 120.133 235.899L119.264 238.77ZM120.159 239.001C120.213 239.019 120.274 239.046 120.417 239.116C120.539 239.175 120.754 239.282 120.998 239.369L122.006 236.544C121.946 236.522 121.885 236.493 121.728 236.417C121.593 236.351 121.373 236.244 121.115 236.157L120.159 239.001ZM120.998 239.369C121.777 239.647 122.549 239.851 123.626 239.762L123.379 236.773C122.888 236.813 122.569 236.745 122.006 236.544L120.998 239.369ZM123.626 239.762C125.281 239.626 127.034 239.349 128.605 238.599L127.314 235.891C126.237 236.405 124.917 236.646 123.379 236.773L123.626 239.762ZM128.605 238.599C129.363 238.238 129.617 237.555 129.708 237.237C129.756 237.067 129.784 236.907 129.798 236.829C129.819 236.711 129.817 236.734 129.805 236.775L126.934 235.905C126.905 236.001 126.886 236.088 126.874 236.147C126.862 236.205 126.851 236.265 126.845 236.3C126.838 236.342 126.833 236.367 126.828 236.389C126.824 236.409 126.822 236.416 126.823 236.414C126.823 236.412 126.829 236.394 126.841 236.366C126.853 236.337 126.875 236.292 126.911 236.238C126.989 236.121 127.121 235.983 127.314 235.891L128.605 238.599ZM129.805 236.775C129.847 236.637 129.915 236.477 130.027 236.242C130.125 236.036 130.28 235.725 130.403 235.419L127.618 234.303C127.542 234.494 127.453 234.67 127.318 234.953C127.198 235.206 127.045 235.538 126.934 235.905L129.805 236.775ZM130.403 235.419C130.485 235.215 130.547 235.104 130.693 234.781C130.811 234.519 130.961 234.157 131.04 233.738L128.093 233.18C128.08 233.246 128.047 233.35 127.957 233.55C127.894 233.689 127.725 234.037 127.618 234.303L130.403 235.419ZM131.04 233.738C131.04 233.74 131.042 233.731 131.05 233.704C131.058 233.674 131.07 233.639 131.089 233.582C131.12 233.489 131.191 233.289 131.239 233.076L128.312 232.419C128.306 232.445 128.295 232.479 128.247 232.623C128.209 232.735 128.137 232.944 128.093 233.18L131.04 233.738ZM131.239 233.076C131.298 232.812 131.315 232.566 131.325 232.436C131.337 232.273 131.342 232.234 131.347 232.207L128.412 231.59C128.358 231.845 128.342 232.089 128.333 232.21C128.322 232.363 128.316 232.399 128.312 232.419L131.239 233.076ZM131.347 232.207C131.599 231.009 131.623 229.779 131.623 228.732H128.623C128.623 229.766 128.594 230.723 128.412 231.59L131.347 232.207ZM131.623 228.732C131.623 228.249 131.667 227.755 131.721 227.18C131.772 226.628 131.831 225.995 131.831 225.351H128.831C128.831 225.834 128.787 226.328 128.733 226.903C128.682 227.455 128.623 228.088 128.623 228.732H131.623ZM131.831 225.351C131.831 224.672 131.782 223.938 131.761 223.368L128.763 223.478C128.789 224.193 128.831 224.739 128.831 225.351H131.831ZM131.761 223.368C131.745 222.952 131.674 222.548 131.629 222.277C131.579 221.968 131.553 221.781 131.553 221.618H128.553C128.553 222.057 128.621 222.471 128.669 222.763C128.723 223.094 128.756 223.292 128.763 223.478L131.761 223.368ZM131.553 221.618C131.553 221.497 131.55 221.36 131.548 221.269C131.546 221.164 131.545 221.082 131.548 221.009C131.553 220.85 131.571 220.824 131.558 220.858L128.765 219.762C128.595 220.194 128.559 220.616 128.55 220.909C128.542 221.148 128.553 221.541 128.553 221.618H131.553ZM131.558 220.858C131.78 220.291 131.956 219.635 132.027 219.009L129.045 218.674C129.008 219.004 128.906 219.404 128.765 219.762L131.558 220.858ZM132.027 219.009C132.119 218.188 132.205 217.512 132.405 216.866L129.54 215.978C129.245 216.93 129.135 217.872 129.045 218.674L132.027 219.009ZM132.405 216.866C132.484 216.612 132.535 216.525 132.567 216.485L130.243 214.589C129.835 215.089 129.647 215.631 129.54 215.978L132.405 216.866ZM132.567 216.485C132.674 216.354 132.81 216.179 132.939 215.99C133.052 215.824 133.223 215.559 133.333 215.267L130.527 214.205C130.543 214.165 130.55 214.156 130.533 214.186C130.519 214.212 130.495 214.249 130.462 214.298C130.395 214.396 130.314 214.502 130.243 214.589L132.567 216.485ZM133.333 215.267C133.269 215.435 133.187 215.545 133.149 215.592C133.128 215.618 133.112 215.635 133.106 215.641C133.1 215.648 133.098 215.649 133.106 215.641C133.11 215.638 133.115 215.633 133.122 215.626C133.129 215.62 133.138 215.611 133.148 215.601C133.167 215.582 133.196 215.554 133.228 215.52C133.26 215.487 133.301 215.442 133.344 215.389C133.387 215.335 133.437 215.267 133.487 215.186L130.93 213.618C130.989 213.521 131.046 213.462 131.054 213.453C131.055 213.452 131.067 213.44 131.013 213.492C130.98 213.525 130.9 213.603 130.818 213.704C130.735 213.807 130.615 213.975 130.527 214.205L133.333 215.267ZM133.487 215.186C133.546 215.09 133.589 215.004 133.619 214.94C133.645 214.886 133.673 214.82 133.679 214.807C133.704 214.751 133.681 214.812 133.625 214.888L131.209 213.11C131.058 213.315 130.971 213.512 130.936 213.592C130.912 213.647 130.911 213.65 130.904 213.663C130.902 213.667 130.911 213.648 130.93 213.618L133.487 215.186ZM133.625 214.888C133.756 214.71 133.861 214.539 133.939 214.412C134.024 214.272 134.072 214.191 134.128 214.11L131.649 212.42C131.538 212.583 131.44 212.748 131.376 212.853C131.304 212.971 131.256 213.046 131.209 213.11L133.625 214.888ZM134.128 214.11C134.237 213.949 134.552 213.517 134.723 213.065L131.918 212.002C131.921 211.993 131.91 212.024 131.855 212.111C131.8 212.2 131.741 212.285 131.649 212.42L134.128 214.11ZM134.723 213.064C134.704 213.117 134.683 213.155 134.67 213.179C134.657 213.202 134.647 213.215 134.647 213.216C134.646 213.216 134.651 213.21 134.664 213.194C134.678 213.177 134.695 213.157 134.722 213.127C134.765 213.078 134.857 212.975 134.941 212.866C135.028 212.754 135.148 212.585 135.246 212.369L132.515 211.127C132.551 211.049 132.583 211.012 132.57 211.028C132.554 211.049 132.534 211.072 132.465 211.15C132.412 211.211 132.316 211.32 132.224 211.446C132.131 211.573 132.009 211.761 131.918 212.002L134.723 213.064ZM135.246 212.369C135.273 212.309 135.321 212.227 135.424 212.061C135.509 211.924 135.653 211.698 135.772 211.463L133.094 210.111C133.05 210.198 132.991 210.292 132.877 210.476C132.781 210.629 132.634 210.866 132.515 211.127L135.246 212.369ZM135.772 211.463C135.966 211.078 136.161 210.638 136.301 210.176L133.43 209.306C133.358 209.545 133.242 209.817 133.094 210.111L135.772 211.463ZM136.301 210.176C136.345 210.033 136.384 209.935 136.466 209.698C136.533 209.502 136.622 209.229 136.673 208.925L133.715 208.427C133.706 208.48 133.684 208.563 133.629 208.721C133.589 208.838 133.494 209.095 133.43 209.306L136.301 210.176ZM136.673 208.925C136.682 208.87 136.69 208.835 136.712 208.721C136.729 208.628 136.752 208.499 136.768 208.358C136.796 208.102 136.824 207.627 136.615 207.13L133.85 208.294C133.802 208.181 133.791 208.091 133.788 208.052C133.786 208.013 133.789 208 133.786 208.027C133.783 208.054 133.777 208.094 133.764 208.164C133.756 208.203 133.751 208.231 133.742 208.279C133.733 208.321 133.724 208.373 133.715 208.427L136.673 208.925ZM136.615 207.13C136.654 207.223 136.666 207.296 136.67 207.328C136.673 207.358 136.671 207.365 136.672 207.331C136.674 207.293 136.677 207.255 136.683 207.165C136.689 207.092 136.698 206.97 136.698 206.84H133.698C133.698 206.839 133.698 206.841 133.698 206.846C133.697 206.851 133.697 206.857 133.697 206.866C133.696 206.885 133.694 206.909 133.692 206.943C133.687 207.001 133.678 207.114 133.674 207.226C133.667 207.441 133.665 207.855 133.85 208.294L136.615 207.13ZM136.698 206.84V205.682H133.698V206.84H136.698ZM136.698 205.682C136.698 205.203 136.626 204.747 136.577 204.421C136.522 204.056 136.489 203.823 136.489 203.607H133.489C133.489 204.086 133.561 204.543 133.61 204.869C133.665 205.233 133.698 205.467 133.698 205.682H136.698ZM136.489 203.607C136.489 203.415 136.457 203.256 136.429 203.15C136.404 203.052 136.372 202.967 136.368 202.954C136.355 202.919 136.369 202.956 136.382 203.004C136.397 203.061 136.42 203.168 136.42 203.306H133.42C133.42 203.497 133.451 203.654 133.479 203.762C133.505 203.86 133.536 203.945 133.541 203.96C133.554 203.995 133.54 203.959 133.527 203.911C133.512 203.854 133.489 203.746 133.489 203.607H136.489ZM136.42 203.306C136.42 203.547 136.354 203.719 136.344 203.747C136.336 203.768 136.33 203.782 136.336 203.768C136.337 203.764 136.353 203.728 136.367 203.691C136.393 203.627 136.468 203.432 136.488 203.179C136.51 202.886 136.458 202.523 136.238 202.178L133.709 203.791C133.622 203.655 133.56 203.505 133.525 203.348C133.491 203.194 133.488 203.056 133.497 202.946C133.512 202.746 133.57 202.606 133.574 202.597C133.578 202.588 133.581 202.578 133.572 202.602C133.566 202.616 133.548 202.657 133.53 202.705C133.5 202.788 133.42 203.013 133.42 203.306H136.42ZM136.238 202.178C136.329 202.32 136.401 202.504 136.422 202.717C136.442 202.914 136.409 203.062 136.397 203.111C136.391 203.133 136.387 203.147 136.392 203.13C136.394 203.123 136.408 203.079 136.419 203.035C136.446 202.937 136.489 202.755 136.489 202.526H133.489C133.489 202.381 133.517 202.276 133.523 202.254C133.525 202.247 133.527 202.239 133.518 202.268C133.513 202.287 133.498 202.337 133.483 202.396C133.454 202.516 133.41 202.737 133.437 203.01C133.465 203.299 133.563 203.563 133.709 203.791L136.238 202.178ZM136.489 202.526C136.489 202.065 136.317 201.714 136.197 201.514C136.081 201.323 135.943 201.163 135.894 201.105C135.813 201.008 135.828 201.022 135.849 201.056C135.874 201.095 136.003 201.305 136.003 201.631H133.003C133.003 202.109 133.192 202.466 133.308 202.651C133.421 202.83 133.558 202.987 133.598 203.035C133.671 203.122 133.654 203.108 133.63 203.067C133.6 203.018 133.489 202.822 133.489 202.526H136.489ZM136.003 201.631C136.003 201.322 135.936 200.983 135.847 200.688C135.754 200.38 135.6 200.003 135.355 199.65C135.113 199.304 134.706 198.876 134.082 198.673C133.411 198.455 132.737 198.576 132.16 198.888L133.586 201.528C133.597 201.521 133.556 201.546 133.468 201.557C133.375 201.569 133.265 201.561 133.155 201.526C132.945 201.458 132.873 201.337 132.894 201.366C132.91 201.389 132.945 201.456 132.976 201.557C132.99 201.602 132.998 201.64 133.002 201.665C133.008 201.696 133.003 201.683 133.003 201.631H136.003ZM132.16 198.888C131.97 198.99 131.796 199.092 131.631 199.193L133.196 201.753C133.322 201.675 133.45 201.601 133.586 201.528L132.16 198.888ZM131.631 199.193C131.322 199.382 131.029 199.579 130.756 199.759L132.409 202.263C132.715 202.061 132.945 201.906 133.196 201.753L131.631 199.193ZM130.756 199.759C130.586 199.872 130.434 199.988 130.327 200.07C130.209 200.16 130.135 200.215 130.061 200.264L131.714 202.768C131.885 202.655 132.038 202.538 132.145 202.456C132.264 202.365 132.337 202.31 132.409 202.263L130.756 199.759ZM130.061 200.264L129.713 200.494L131.366 202.997L131.714 202.768L130.061 200.264ZM129.713 200.494C129.746 200.472 129.829 200.42 129.952 200.373C130.066 200.329 130.313 200.253 130.633 200.292C131.004 200.337 131.336 200.522 131.569 200.795C131.769 201.029 131.841 201.263 131.868 201.368C131.914 201.542 131.912 201.714 131.908 201.613C131.908 201.602 131.906 201.541 131.898 201.471C131.891 201.407 131.871 201.255 131.804 201.077L128.998 202.139C128.901 201.883 128.907 201.64 128.911 201.734C128.911 201.739 128.911 201.735 128.911 201.743C128.911 201.747 128.912 201.754 128.912 201.761C128.913 201.776 128.914 201.8 128.916 201.828C128.92 201.876 128.93 201.987 128.964 202.121C128.997 202.245 129.077 202.497 129.288 202.743C129.532 203.029 129.878 203.222 130.268 203.27C130.607 203.311 130.877 203.231 131.021 203.176C131.173 203.118 131.292 203.047 131.366 202.997L129.713 200.494Z" fill="#070707"/>
</g>
<g filter="url(#filter5_d_2_37)">
<path d="M109.058 88.7523C97.1005 98.482 90.9827 106.559 89.3142 109.497C87.6457 112.434 89.3142 105.825 87.9238 99.9506C86.5334 94.0761 93.4854 76.8196 93.7635 73.6987C94.0416 70.5779 100.716 46.1618 102.384 39.7365C104.053 33.3113 107.668 28.7218 112.673 21.195C117.679 13.6682 117.957 10.5474 125.743 7.61011C133.529 4.67282 137.7 4.12213 141.037 4.67284C144.374 5.22355 142.706 3.75498 151.326 7.61011C159.947 11.4652 155.266 13.1937 153.829 17.3398C152.561 21.2071 149.38 26.3352 146.043 30.0068C142.706 33.6784 140.203 34.4127 137.144 37.9007C134.085 41.3887 124.631 40.1037 116.844 42.6738C109.058 45.2439 137.739 42.7687 141.037 38.8186C144.336 34.8685 145.993 32.9172 148.546 30.0068C151.269 25.5552 152.858 24.31 155.776 23.7651C159.186 23.0458 161.471 22.7087 166.621 22.2965C173.233 21.665 175.652 22.0674 178.3 23.7651C184.11 26.8843 184.839 28.1127 184.696 30.0068C185.055 33.4853 185.081 34.8563 184.696 35.8814C183.044 38.8992 181.38 40.5558 178.3 41.0216C174.72 41.8849 172.544 42.2204 166.621 41.0216C160.596 39.5412 158.68 39.4727 159.669 35.8814L155.776 33.3112L158 37.9007L164.674 42.6738H176.354L186.643 38.8186H197.766C201.103 38.8186 203.884 38.8186 208.333 41.0216C212.783 43.2245 215.285 45.0603 214.173 48.1812C213.061 51.302 211.114 52.9543 209.724 54.79C208.333 56.6258 202.216 56.6258 202.216 56.6258C198.679 56.9185 194.429 54.79 194.429 54.79C194.429 54.79 188.962 51.5621 194.429 49.0991L186.643 51.302H180.247L172.739 54.79C172.739 54.79 150.115 59.6119 133.529 68.5585C133.529 68.5585 121.016 79.0226 109.058 88.7523Z" fill="#8A0303"/>
<path d="M109.058 88.7523C97.1005 98.482 90.9827 106.559 89.3142 109.497C87.6457 112.434 89.3142 105.825 87.9238 99.9506C86.5334 94.0761 93.4854 76.8196 93.7635 73.6987C94.0416 70.5779 100.716 46.1618 102.384 39.7365C104.053 33.3113 107.668 28.7218 112.673 21.195C117.679 13.6682 117.957 10.5474 125.743 7.61011C133.529 4.67282 137.7 4.12213 141.037 4.67284C144.374 5.22355 142.706 3.75498 151.326 7.61011C159.947 11.4652 155.266 13.1937 153.829 17.3398C152.561 21.2071 149.38 26.3352 146.043 30.0068C142.706 33.6784 140.203 34.4127 137.144 37.9007C134.085 41.3887 124.631 40.1037 116.844 42.6738C109.058 45.2439 137.739 42.7687 141.037 38.8186C144.336 34.8685 145.993 32.9172 148.546 30.0068C151.269 25.5552 152.858 24.31 155.776 23.7651C159.186 23.0458 161.471 22.7087 166.621 22.2965C173.233 21.665 175.652 22.0674 178.3 23.7651C184.11 26.8843 184.839 28.1127 184.696 30.0068C185.055 33.4853 185.081 34.8563 184.696 35.8814C183.044 38.8992 181.38 40.5558 178.3 41.0216C174.72 41.8849 172.544 42.2204 166.621 41.0216C160.596 39.5412 158.68 39.4727 159.669 35.8814L155.776 33.3112L158 37.9007L164.674 42.6738H176.354L186.643 38.8186H197.766C201.103 38.8186 203.884 38.8186 208.333 41.0216C212.783 43.2245 215.285 45.0603 214.173 48.1812C213.061 51.302 211.114 52.9543 209.724 54.79C208.333 56.6258 202.216 56.6258 202.216 56.6258C198.679 56.9185 194.429 54.79 194.429 54.79C194.429 54.79 188.962 51.5621 194.429 49.0991L186.643 51.302H180.247L172.739 54.79C172.739 54.79 150.115 59.6119 133.529 68.5585C133.529 68.5585 121.016 79.0226 109.058 88.7523Z" stroke="black" stroke-width="7"/>
</g>
</g>
<g filter="url(#filter6_d_2_37)">
<path d="M33.9759 199.818C33.9759 199.818 35.6444 183.479 36.7567 180.909C37.869 178.339 41.4841 170.262 44.543 167.508C47.6019 164.754 53.9978 159.43 60.1156 156.493C66.2334 153.556 73.1855 152.454 77.9128 152.638C82.6402 152.821 90.4266 155.575 94.8759 157.778C99.3251 159.981 105.443 164.203 107.111 165.856C108.78 167.508 112.951 172.464 116.01 173.015C119.069 173.566 123.24 176.687 130.748 177.238C138.257 177.788 147.711 175.494 149.38 175.218C151.048 174.943 159.391 175.218 159.391 175.218C159.391 175.218 161.616 175.585 161.616 177.238C161.616 178.89 162.45 177.972 159.391 179.073C156.332 180.175 152.161 179.257 149.38 180.909C146.599 182.561 145.487 186.967 142.15 188.252C138.813 189.537 136.588 198.9 132.139 202.204C127.69 205.509 120.181 209.548 116.01 211.567C111.839 213.586 104.609 217.258 104.609 217.258L89.0361 222.214H76.2443L69.0142 218.176L66.2334 216.156C66.2334 216.156 62.3403 211.567 65.121 211.567L77.9128 203.857L86.8115 195.228L66.2334 197.248L52.8855 203.306L44.543 213.586C44.543 213.586 42.8745 224.05 39.8156 220.562C36.7567 217.074 33.9759 211.567 33.9759 211.567C31.8847 205.828 33.9759 199.818 33.9759 199.818Z" fill="#D9B021"/>
<path d="M65.121 211.567C62.3403 211.567 66.2334 216.156 66.2334 216.156L69.0142 218.176L76.2443 222.214H89.0361L104.609 217.258C104.609 217.258 111.839 213.586 116.01 211.567C120.181 209.548 127.69 205.509 132.139 202.204C136.588 198.9 138.813 189.537 142.15 188.252C145.487 186.967 146.599 182.561 149.38 180.909C152.161 179.257 156.332 180.175 159.391 179.073C162.45 177.972 161.616 178.89 161.616 177.238C161.616 175.585 159.391 175.218 159.391 175.218C159.391 175.218 151.048 174.943 149.38 175.218C147.711 175.494 138.257 177.788 130.748 177.238C123.24 176.687 119.069 173.566 116.01 173.015C112.951 172.464 108.78 167.508 107.111 165.856C105.443 164.203 99.3251 159.981 94.8759 157.778C90.4266 155.575 82.6402 152.821 77.9128 152.638C73.1855 152.454 66.2334 153.556 60.1156 156.493C53.9978 159.43 47.6019 164.754 44.543 167.508C41.4841 170.262 37.869 178.339 36.7567 180.909C35.6444 183.479 33.9759 199.818 33.9759 199.818C33.9759 199.818 31.8847 205.828 33.9759 211.567C33.9759 211.567 36.7567 217.074 39.8156 220.562C42.8745 224.05 44.543 213.586 44.543 213.586L52.8855 203.306L66.2334 197.248L86.8115 195.228M65.121 211.567C67.9018 211.567 70.4046 210.465 70.4046 210.465C70.4046 210.465 69.8485 209.915 75.132 209.364C80.4156 208.813 87.9238 203.857 87.9238 203.857L92.095 202.204L96.2663 199.818L101.55 198.9L96.2663 195.228H86.8115M65.121 211.567L77.9128 203.857L86.8115 195.228" stroke="black" stroke-width="7"/>
<path d="M90.1484 162H84.5868L86.2553 163.653L89.3142 166.223C89.3142 166.223 92.9292 167.875 94.8758 167.875C96.8224 167.875 97.9347 167.141 97.9347 165.672C97.9347 164.203 96.8224 164.203 95.432 163.102C94.0416 162 92.9292 162 90.1484 162Z" fill="#0B0B0B"/>
<path d="M90.1484 162H84.5868L86.2553 163.653L89.3142 166.223C89.3142 166.223 92.9292 167.875 94.8758 167.875C96.8224 167.875 97.9347 167.141 97.9347 165.672C97.9347 164.203 96.8224 164.203 95.432 163.102C94.0416 162 92.9292 162 90.1484 162Z" fill="#0B0B0B"/>
<path d="M75.132 164.387L78.7471 163.102L84.5868 162M84.5868 162C84.5868 162 87.3676 162 90.1484 162C92.9292 162 94.0416 162 95.432 163.102C96.8224 164.203 97.9347 164.203 97.9347 165.672C97.9347 167.141 96.8224 167.875 94.8758 167.875C92.9292 167.875 89.3142 166.223 89.3142 166.223L86.2553 163.653L84.5868 162Z" stroke="black"/>
<path d="M95.432 165.305C95.432 166.015 93.6017 164.754 92.3731 164.754C91.5388 163.469 89.0361 164.179 89.0361 163.469C89.0361 162.759 91.9787 164.02 93.2073 164.02C94.436 164.02 95.432 164.595 95.432 165.305Z" fill="#AE2828"/>
</g>
<defs>
<filter id="filter0_d_2_37" x="0.498047" y="42.449" width="258" height="220.034" filterUnits="userSpaceOnUse" color-interpolation-filters="sRGB">
<feFlood flood-opacity="0" result="BackgroundImageFix"/>
<feColorMatrix in="SourceAlpha" type="matrix" values="0 0 0 0 0 0 0 0 0 0 0 0 0 0 0 0 0 0 127 0" result="hardAlpha"/>
<feOffset dy="4"/>
<feGaussianBlur stdDeviation="2"/>
<feComposite in2="hardAlpha" operator="out"/>
<feColorMatrix type="matrix" values="0 0 0 0 0 0 0 0 0 0 0 0 0 0 0 0 0 0 0.25 0"/>
<feBlend mode="normal" in2="BackgroundImageFix" result="effect1_dropShadow_2_37"/>
<feBlend mode="normal" in="SourceGraphic" in2="effect1_dropShadow_2_37" result="shape"/>
</filter>
<filter id="filter1_d_2_37" x="21.7516" y="116.514" width="171.251" height="68.2565" filterUnits="userSpaceOnUse" color-interpolation-filters="sRGB">
<feFlood flood-opacity="0" result="BackgroundImageFix"/>
<feColorMatrix in="SourceAlpha" type="matrix" values="0 0 0 0 0 0 0 0 0 0 0 0 0 0 0 0 0 0 127 0" result="hardAlpha"/>
<feOffset dy="4"/>
<feGaussianBlur stdDeviation="2"/>
<feComposite in2="hardAlpha" operator="out"/>
<feColorMatrix type="matrix" values="0 0 0 0 0 0 0 0 0 0 0 0 0 0 0 0 0 0 0.25 0"/>
<feBlend mode="normal" in2="BackgroundImageFix" result="effect1_dropShadow_2_37"/>
<feBlend mode="normal" in="SourceGraphic" in2="effect1_dropShadow_2_37" result="shape"/>
</filter>
<filter id="filter2_d_2_37" x="34.7032" y="136.483" width="117.008" height="34.9862" filterUnits="userSpaceOnUse" color-interpolation-filters="sRGB">
<feFlood flood-opacity="0" result="BackgroundImageFix"/>
<feColorMatrix in="SourceAlpha" type="matrix" values="0 0 0 0 0 0 0 0 0 0 0 0 0 0 0 0 0 0 127 0" result="hardAlpha"/>
<feOffset dy="4"/>
<feGaussianBlur stdDeviation="2"/>
<feComposite in2="hardAlpha" operator="out"/>
<feColorMatrix type="matrix" values="0 0 0 0 0 0 0 0 0 0 0 0 0 0 0 0 0 0 0.25 0"/>
<feBlend mode="normal" in2="BackgroundImageFix" result="effect1_dropShadow_2_37"/>
<feBlend mode="normal" in="SourceGraphic" in2="effect1_dropShadow_2_37" result="shape"/>
</filter>
<filter id="filter3_d_2_37" x="80.241" y="0.983215" width="141.695" height="246.8" filterUnits="userSpaceOnUse" color-interpolation-filters="sRGB">
<feFlood flood-opacity="0" result="BackgroundImageFix"/>
<feColorMatrix in="SourceAlpha" type="matrix" values="0 0 0 0 0 0 0 0 0 0 0 0 0 0 0 0 0 0 127 0" result="hardAlpha"/>
<feOffset dy="4"/>
<feGaussianBlur stdDeviation="2"/>
<feComposite in2="hardAlpha" operator="out"/>
<feColorMatrix type="matrix" values="0 0 0 0 0 0 0 0 0 0 0 0 0 0 0 0 0 0 0.25 0"/>
<feBlend mode="normal" in2="BackgroundImageFix" result="effect1_dropShadow_2_37"/>
<feBlend mode="normal" in="SourceGraphic" in2="effect1_dropShadow_2_37" result="shape"/>
</filter>
<filter id="filter4_di_2_37" x="93.3603" y="198.562" width="51.4271" height="49.2215" filterUnits="userSpaceOnUse" color-interpolation-filters="sRGB">
<feFlood flood-opacity="0" result="BackgroundImageFix"/>
<feColorMatrix in="SourceAlpha" type="matrix" values="0 0 0 0 0 0 0 0 0 0 0 0 0 0 0 0 0 0 127 0" result="hardAlpha"/>
<feOffset dx="4" dy="4"/>
<feGaussianBlur stdDeviation="2"/>
<feComposite in2="hardAlpha" operator="out"/>
<feColorMatrix type="matrix" values="0 0 0 0 0 0 0 0 0 0 0 0 0 0 0 0 0 0 0.35 0"/>
<feBlend mode="normal" in2="BackgroundImageFix" result="effect1_dropShadow_2_37"/>
<feBlend mode="normal" in="SourceGraphic" in2="effect1_dropShadow_2_37" result="shape"/>
<feColorMatrix in="SourceAlpha" type="matrix" values="0 0 0 0 0 0 0 0 0 0 0 0 0 0 0 0 0 0 127 0" result="hardAlpha"/>
<feOffset dx="4" dy="9"/>
<feGaussianBlur stdDeviation="2"/>
<feComposite in2="hardAlpha" operator="arithmetic" k2="-1" k3="1"/>
<feColorMatrix type="matrix" values="0 0 0 0 0 0 0 0 0 0 0 0 0 0 0 0 0 0 0.25 0"/>
<feBlend mode="normal" in2="shape" result="effect2_innerShadow_2_37"/>
</filter>
<filter id="filter5_d_2_37" x="80.241" y="0.983215" width="141.695" height="120.742" filterUnits="userSpaceOnUse" color-interpolation-filters="sRGB">
<feFlood flood-opacity="0" result="BackgroundImageFix"/>
<feColorMatrix in="SourceAlpha" type="matrix" values="0 0 0 0 0 0 0 0 0 0 0 0 0 0 0 0 0 0 127 0" result="hardAlpha"/>
<feOffset dy="4"/>
<feGaussianBlur stdDeviation="2"/>
<feComposite in2="hardAlpha" operator="out"/>
<feColorMatrix type="matrix" values="0 0 0 0 0 0 0 0 0 0 0 0 0 0 0 0 0 0 0.25 0"/>
<feBlend mode="normal" in2="BackgroundImageFix" result="effect1_dropShadow_2_37"/>
<feBlend mode="normal" in="SourceGraphic" in2="effect1_dropShadow_2_37" result="shape"/>
</filter>
<filter id="filter6_d_2_37" x="25.5465" y="149.118" width="143.673" height="84.596" filterUnits="userSpaceOnUse" color-interpolation-filters="sRGB">
<feFlood flood-opacity="0" result="BackgroundImageFix"/>
<feColorMatrix in="SourceAlpha" type="matrix" values="0 0 0 0 0 0 0 0 0 0 0 0 0 0 0 0 0 0 127 0" result="hardAlpha"/>
<feOffset dy="4"/>
<feGaussianBlur stdDeviation="2"/>
<feComposite in2="hardAlpha" operator="out"/>
<feColorMatrix type="matrix" values="0 0 0 0 0 0 0 0 0 0 0 0 0 0 0 0 0 0 0.25 0"/>
<feBlend mode="normal" in2="BackgroundImageFix" result="effect1_dropShadow_2_37"/>
<feBlend mode="normal" in="SourceGraphic" in2="effect1_dropShadow_2_37" result="shape"/>
</filter>
</defs>
</svg>
