<svg width="459" height="694" viewBox="0 0 459 694" fill="none" xmlns="http://www.w3.org/2000/svg">
<g filter="url(#filter0_d_2_37)">
<path d="M193.5 643.5C193.5 643.5 187 652.5 180 652.5C180 652.5 171 665 165.5 668C160 671 152.976 673.28 138 674L144.5 652.5V637C144.5 637 134 637.5 131.5 652.5C129 667.5 106 688.5 101 685C96 681.5 107 620 106 615C105 610 96 643.5 77 656C58 668.5 85.5 606 85 602C84.5 598 34 628 27 628C20 628 53 535 53 535C53 535 31 565.5 34 543C37 520.5 53 483 53 483C53 483 34 495 34 488C34 481.474 46.1673 442.792 47.8159 437.581C46.6679 441.124 40.3339 459.524 34 455C27 450 34 391 34 391C34 391 29.5 395.5 27 391C24.5 386.5 34 365 34 365C34 365 18.5 377 22 372C25.5 367 34 314 34 314C34 314 1.71661e-05 345.5 5.00002 336C10 326.5 64 209 60 216C56 223 24.5 231.5 27 223C29.5 214.5 74 192 74 192C74 192 27 196.5 27 192C27 187.5 116 139.5 122 135C128 130.5 65 133 74 127C83 121 174 108 174 108C219.382 107.031 244.77 112.244 290 127C326.453 136.809 341.518 144.39 363 160C401.375 191.415 428 268.5 422 268C419.564 267.797 417.458 266.605 415.815 265.261C421.066 271.399 429.105 282 422 282C412 282 386 247 386 247C386 247 466 367.5 449 365C432 362.5 412 336 412 336C444.447 381.041 454.275 407.043 454 455C436.758 436.22 430.564 422.86 422 397C437.568 452.569 442 547 432 543C422 539 401 483 401 483C401 483 422 586.5 412 593C402 599.5 369 549 369 549C369 549 378.162 625.995 369 642C359.838 658.005 327.405 621.189 329 602C330.595 582.811 316.354 661.291 307 668C297.646 674.709 284.5 615 279 602C273.5 589 289 691.5 273 674C257 656.5 246 647 242 637C238 627 222 681.5 212 685C202 688.5 193.5 643.5 193.5 643.5Z" fill="#424A45"/>
<path d="M413.346 267.76C412.021 266.638 410.983 265.469 410.27 264.575C409.887 264.095 409.588 263.682 409.379 263.379C409.274 263.228 409.191 263.103 409.131 263.011C409.101 262.964 409.077 262.926 409.058 262.897L409.034 262.859L409.026 262.845L409.022 262.839L409.021 262.837L409.02 262.835C409.02 262.835 409.019 262.834 412 261L409.019 262.834L414.534 258.586L414.26 258.848C414.535 258.586 414.535 258.586 414.535 258.586L414.535 258.587L414.535 258.587L414.537 258.589L414.542 258.594L414.559 258.612L414.622 258.679C414.676 258.736 414.754 258.819 414.853 258.925C415.052 259.138 415.338 259.447 415.691 259.834C416.351 260.557 417.248 261.558 418.259 262.734C418.499 262.921 418.742 263.096 418.988 263.259C418.666 261.562 418.126 259.372 417.351 256.742C415.157 249.292 411.259 238.884 405.964 227.438C395.339 204.472 379.389 177.978 360.86 162.772C339.819 147.491 325.149 140.082 289.091 130.38L289.002 130.356L288.914 130.327C244.021 115.682 219.042 110.557 174.286 111.495L174.237 111.502C174.065 111.527 173.81 111.563 173.477 111.611C172.81 111.708 171.83 111.85 170.58 112.033C168.079 112.4 164.494 112.93 160.164 113.586C151.503 114.896 139.867 116.706 127.953 118.702C116.032 120.699 103.869 122.877 94.1429 124.925C90.3097 125.732 86.8834 126.513 84.0146 127.248C87.809 127.584 92.3546 127.834 97.0482 128.067C98.0588 128.117 99.0757 128.166 100.091 128.215C105.979 128.5 111.819 128.783 116.114 129.213C118.552 129.457 120.846 129.777 122.39 130.287C122.8 130.423 123.282 130.611 123.748 130.883C124.164 131.125 124.897 131.622 125.401 132.518C126.022 133.622 126.059 134.912 125.559 136.028C125.153 136.936 124.497 137.502 124.1 137.8C123.148 138.514 120.886 139.875 117.957 141.581C114.929 143.345 110.945 145.615 106.35 148.217C103.322 149.932 100.029 151.791 96.5625 153.748C89.49 157.74 81.6988 162.138 73.9847 166.54C62.4884 173.1 51.2202 179.638 42.8371 184.807C39.3517 186.957 36.4056 188.845 34.1641 190.385C34.278 190.391 34.3937 190.397 34.5111 190.402C38.7438 190.605 44.4823 190.472 50.3327 190.192C56.1572 189.913 61.9923 189.494 66.3779 189.144C68.5689 188.969 70.3942 188.812 71.6705 188.698C72.3086 188.642 72.8093 188.596 73.1496 188.564C73.3198 188.549 73.4498 188.536 73.5369 188.528L73.635 188.519L73.6592 188.517L73.6649 188.516L73.6662 188.516C73.6664 188.516 73.6664 188.516 74 192L73.6664 188.516L75.5793 195.123L75.3438 194.658C75.5793 195.123 75.5792 195.123 75.5792 195.124L75.578 195.124L75.5728 195.127L75.5502 195.138L75.4581 195.185C75.376 195.227 75.2532 195.289 75.0923 195.371C74.7705 195.536 74.2963 195.779 73.6909 196.092C72.4798 196.719 70.7442 197.624 68.6528 198.738C64.4667 200.967 58.8696 204.021 53.2041 207.334C47.5226 210.656 41.8444 214.196 37.4631 217.396C35.2673 219.001 33.4743 220.464 32.1886 221.726C31.6948 222.21 31.304 222.638 31.0055 223.006C33.0736 223.21 36.3941 222.835 40.2447 221.909C44.0713 220.99 48.0734 219.612 51.3052 218.08C52.922 217.313 54.276 216.541 55.2959 215.812C56.3718 215.043 56.8281 214.496 56.9612 214.264C57.0336 214.137 57.1467 213.943 57.277 213.757L57.2799 213.753C57.3255 213.687 57.4969 213.442 57.758 213.19L57.7611 213.187C57.8588 213.093 58.2561 212.71 58.8942 212.453C59.2536 212.331 60.1515 212.2 60.6818 212.232C61.3125 212.379 62.4137 212.983 62.8552 213.411C63.6704 214.354 63.7032 215.397 63.7087 215.571C63.7088 215.576 63.709 215.581 63.7091 215.584C63.7211 215.908 63.6851 216.164 63.6683 216.272C63.6313 216.511 63.5768 216.704 63.5536 216.784C63.4987 216.974 63.4313 217.163 63.379 217.304C63.1651 217.882 62.7512 218.873 62.2047 220.142C61.0893 222.731 59.2786 226.805 56.9889 231.896C52.4055 242.088 45.87 256.425 39.056 271.272C29.1925 292.764 18.6894 315.446 12.6912 328.132C13.555 327.418 14.4486 326.668 15.3595 325.895C19.2593 322.583 23.3242 318.968 26.4214 316.175C27.9682 314.779 29.2701 313.592 30.1846 312.754C30.6417 312.335 31.0019 312.004 31.2474 311.778C31.3701 311.665 31.4641 311.578 31.5272 311.52L31.5983 311.454L31.6159 311.438L31.6202 311.434L31.6211 311.433C31.6213 311.433 31.6213 311.433 34 314M413.346 267.76L51.131 480.041L51.1306 480.041L51.1235 480.046L51.0892 480.067C51.0576 480.087 51.0087 480.117 50.9439 480.157C50.814 480.238 50.6201 480.357 50.3713 480.508C49.8732 480.809 49.1576 481.235 48.2977 481.725C46.566 482.712 44.3005 483.933 42.0707 484.93C40.3039 485.721 38.7859 486.266 37.6591 486.524C37.7307 486.065 37.8289 485.511 37.9591 484.855C38.2787 483.245 38.7446 481.242 39.3207 478.958C40.4717 474.393 42.0304 468.83 43.6498 463.277C46.8815 452.195 50.3204 441.268 51.149 438.649C51.1819 438.547 51.2108 438.457 51.2357 438.379C51.258 438.309 51.277 438.248 51.2928 438.198C51.3098 438.144 51.323 438.101 51.3323 438.071L51.3325 438.07L51.3346 438.063L51.3351 438.062L51.3352 438.061L51.3433 438.036L51.3466 438.025L51.3476 438.021L51.348 438.02L51.3482 438.02L51.3483 438.019C51.3483 438.019 51.3483 438.019 48 437L51.3483 438.019L44.6648 435.939L44.6645 435.94L44.6639 435.941L44.6616 435.949L44.6524 435.978L44.652 435.98L44.6519 435.98L44.6518 435.98L44.6508 435.984L44.6168 436.09L44.4864 436.502C44.4851 436.506 44.4839 436.509 44.4827 436.513C43.9166 438.259 42.1354 443.452 39.8022 447.6C38.6008 449.735 37.464 451.204 36.5489 451.901C36.3504 452.052 36.2079 452.131 36.1192 452.172C36.0905 452.122 36.0544 452.054 36.0122 451.965C35.8238 451.565 35.6089 450.938 35.4021 450.034C34.9888 448.227 34.7017 445.741 34.5421 442.707C34.2241 436.665 34.4341 428.971 34.8694 421.324C35.3033 413.699 35.9549 406.218 36.4991 400.637C36.771 397.848 37.0157 395.537 37.1921 393.926C37.2803 393.12 37.3515 392.49 37.4004 392.061C37.4249 391.847 37.4439 391.684 37.4566 391.575L37.471 391.452L37.4746 391.421L37.4754 391.414L37.4756 391.413C37.4756 391.412 37.4756 391.412 34 391L37.4756 391.412L38.6653 381.385L31.5435 388.507L31.5395 388.511C31.5295 388.52 31.506 388.542 31.4703 388.574C31.398 388.639 31.2823 388.738 31.1353 388.85C30.8172 389.092 30.4666 389.309 30.1621 389.428C30.1546 389.431 30.1474 389.434 30.1402 389.437C30.1342 389.427 30.128 389.417 30.1217 389.407C30.1092 389.334 30.0733 389.108 30.0823 388.661C30.0969 387.935 30.2211 386.954 30.4688 385.737C30.9621 383.313 31.857 380.373 32.8687 377.461C33.873 374.57 34.9579 371.803 35.7951 369.753C36.2128 368.729 36.5668 367.889 36.8153 367.308C36.9396 367.017 37.0374 366.791 37.1035 366.639L37.1417 366.551C37.1566 366.517 37.1688 366.489 37.1782 366.467L37.1965 366.426L37.2007 366.416L37.2014 366.415L37.201 366.414L31.8577 362.233L31.8574 362.232L31.8572 362.233L31.8556 362.234L31.8482 362.24L31.8172 362.264L31.6928 362.359C31.5832 362.444 31.4218 362.568 31.2169 362.724C30.807 363.037 30.2242 363.479 29.5353 363.995C29.0387 364.367 28.4899 364.774 27.9132 365.198C28.1928 364.072 28.4773 362.867 28.7645 361.604C30.0694 355.862 31.4702 348.714 32.7543 341.761C34.0399 334.799 35.2151 327.999 36.0684 322.942C36.4952 320.412 36.8418 318.317 37.0818 316.854C37.2018 316.122 37.2952 315.548 37.3586 315.156L37.4309 314.709L37.4495 314.594L37.4542 314.565L37.4554 314.557L37.4557 314.555C37.4558 314.555 37.4559 314.554 34 314M413.346 267.76C415.924 270.788 418.898 274.592 420.436 277.548C420.55 277.767 420.652 277.973 420.742 278.167C420.355 278.009 419.884 277.782 419.324 277.46C417.915 276.652 416.263 275.435 414.429 273.869C410.766 270.743 406.703 266.507 402.87 262.179C399.052 257.869 395.533 253.548 392.965 250.298C391.682 248.675 390.639 247.324 389.919 246.38C389.559 245.909 389.28 245.539 389.091 245.289C388.997 245.164 388.926 245.068 388.878 245.005L388.825 244.934L388.813 244.917L388.81 244.913L388.81 244.913L388.806 244.916L383.084 248.936L386 247M413.346 267.76L386 247M34 314L31.6213 311.433L39.0621 304.539L37.4559 314.554L34 314ZM386 247C383.084 248.936 383.084 248.936 383.085 248.937L383.087 248.941L383.098 248.957L383.141 249.021L383.31 249.277C383.46 249.504 383.683 249.84 383.973 250.28C384.552 251.159 385.401 252.449 386.476 254.09C388.626 257.373 391.679 262.062 395.29 267.681C402.514 278.923 411.961 293.874 420.873 308.737C429.803 323.63 438.129 338.327 443.157 349.098C445.668 354.478 447.215 358.587 447.711 361.171C444.666 360.387 441.368 358.749 437.985 356.499C433.96 353.824 430.037 350.434 426.567 347.055C423.105 343.684 420.15 340.38 418.06 337.916C417.016 336.685 416.192 335.669 415.632 334.965C415.352 334.613 415.139 334.34 414.997 334.157C414.926 334.065 414.873 333.996 414.839 333.951L414.802 333.903L414.794 333.892L414.794 333.892L414.793 333.891L386 247ZM401 483C404.277 481.771 404.277 481.771 404.277 481.771L404.278 481.773L404.28 481.78L404.291 481.808L404.335 481.925C404.374 482.029 404.433 482.183 404.51 482.386C404.664 482.793 404.893 483.391 405.187 484.154C405.777 485.682 406.631 487.872 407.687 490.513C409.801 495.798 412.72 502.876 415.944 510.068C419.176 517.278 422.68 524.524 425.964 530.18C427.61 533.014 429.151 535.364 430.53 537.087C431.053 537.741 431.509 538.249 431.896 538.637C432.497 536.728 433.011 533.641 433.357 529.405C434.085 520.483 433.992 507.504 433.094 492.548C431.299 462.639 426.323 425.406 418.63 397.944L425.323 395.9C432.667 418.078 438.148 430.694 450.412 445.571C449.918 426.34 447.414 410.801 441.975 395.585C435.659 377.916 425.312 360.467 409.16 338.046L414.752 333.922L177.16 650.454L178.207 649H180C182.129 649 184.66 647.535 187.034 645.398C188.139 644.403 189.063 643.397 189.711 642.637C190.032 642.259 190.281 641.948 190.444 641.738C190.526 641.633 190.586 641.554 190.623 641.504C190.641 641.48 190.654 641.463 190.661 641.453L190.663 641.451L190.664 641.449L190.664 641.448L190.666 641.447L190.666 641.446L195.428 634.852L196.939 642.85L196.939 642.851L196.94 642.855L196.944 642.877L196.961 642.967C196.977 643.047 197.001 643.169 197.032 643.329C197.095 643.648 197.189 644.12 197.313 644.721C197.56 645.924 197.926 647.642 198.396 649.696C199.338 653.811 200.69 659.231 202.341 664.52C204.009 669.865 205.913 674.845 207.904 678.211C208.912 679.916 209.785 680.933 210.439 681.425C210.666 681.597 210.811 681.661 210.875 681.684C211.145 681.571 211.95 681.026 213.232 679.376C214.467 677.785 215.825 675.595 217.271 672.942C220.161 667.64 223.165 660.947 226.057 654.504L226.118 654.369C228.934 648.093 231.691 641.949 234.017 638.01C234.614 636.999 235.223 636.062 235.839 635.269C236.421 634.52 237.167 633.691 238.08 633.104C239.018 632.501 240.683 631.839 242.523 632.649C244.13 633.356 244.886 634.79 245.25 635.7C247.003 640.082 250.382 644.568 255.597 650.341C258.084 653.094 260.919 656.068 264.115 659.421L264.502 659.827C267.846 663.335 271.556 667.234 275.583 671.638C275.613 671.671 275.643 671.703 275.671 671.733C275.676 671.72 275.68 671.706 275.684 671.692C275.976 670.762 276.235 669.489 276.442 667.863C277.279 661.278 277.038 650.816 276.443 639.878C276.147 634.455 275.77 628.992 275.412 623.93C275.362 623.229 275.313 622.536 275.265 621.851C274.963 617.603 274.684 613.686 274.498 610.427C274.287 606.737 274.172 603.599 274.333 601.773C274.373 601.318 274.445 600.729 274.618 600.167C274.702 599.895 274.869 599.424 275.208 598.942C275.547 598.459 276.31 597.627 277.622 597.407C278.944 597.185 279.946 597.73 280.437 598.092C280.922 598.449 281.235 598.855 281.405 599.095C281.755 599.593 282.022 600.161 282.223 600.636C283.696 604.117 285.613 610.526 287.738 617.753C287.984 618.59 288.233 619.44 288.486 620.302C290.453 627.007 292.621 634.396 294.881 641.302C297.449 649.146 300.059 656.123 302.529 660.678C303.695 662.828 304.662 664.116 305.354 664.745C305.497 664.572 305.674 664.335 305.882 664.018C306.374 663.271 306.925 662.257 307.524 660.973C308.72 658.404 309.988 655.012 311.282 651.067C313.867 643.192 316.449 633.454 318.711 624.437C319.717 620.427 320.666 616.531 321.52 613.024C322.568 608.725 323.473 605.01 324.167 602.381C324.485 601.175 324.774 600.136 325.025 599.339C325.15 598.944 325.279 598.56 325.412 598.224L325.415 598.217C325.502 597.997 325.737 597.404 326.151 596.881C326.278 596.72 326.504 596.459 326.84 596.206C327.166 595.961 327.787 595.582 328.661 595.502C330.892 595.297 331.948 597.016 332.173 597.463C332.446 598.003 332.526 598.501 332.554 598.685C332.592 598.937 332.608 599.175 332.616 599.366C332.644 600.082 332.588 601.092 332.488 602.29C332.167 606.149 333.574 611.359 336.417 617.027C339.216 622.607 343.207 628.23 347.513 632.797C351.88 637.428 356.281 640.664 359.813 641.896C361.545 642.5 362.796 642.527 363.651 642.29C364.407 642.081 365.212 641.571 365.962 640.261C366.801 638.797 367.577 636.326 368.181 632.815C368.774 629.373 369.158 625.211 369.369 620.558C369.791 611.256 369.511 600.262 368.941 589.686C368.372 579.125 367.517 569.052 366.804 561.614C366.448 557.897 366.128 554.842 365.896 552.718C365.781 551.657 365.688 550.828 365.623 550.266C365.591 549.985 365.566 549.77 365.55 549.627L365.531 549.466L365.526 549.426L365.525 549.416L365.525 549.414C365.525 549.414 365.525 549.414 369 549L365.525 549.414L371.93 547.085L371.931 547.087L371.934 547.092L371.951 547.117L372.019 547.221C372.079 547.313 372.17 547.451 372.29 547.632C372.427 547.838 372.602 548.101 372.811 548.414C372.968 548.648 373.145 548.912 373.34 549.201C374.252 550.554 375.567 552.483 377.178 554.779C380.403 559.376 384.792 565.419 389.477 571.244C394.191 577.105 399.087 582.599 403.328 586.199C405.467 588.015 407.246 589.181 408.604 589.735C409.267 590.006 409.695 590.074 409.926 590.077C409.95 590.078 409.971 590.078 409.99 590.077C410.047 589.971 410.129 589.796 410.226 589.523C410.495 588.763 410.743 587.614 410.92 586.021C411.271 582.851 411.283 578.497 411.005 573.255C410.451 562.809 408.784 549.394 406.789 536.081C404.797 522.79 402.492 509.692 400.683 499.91C399.779 495.02 399 490.963 398.448 488.13C398.171 486.714 397.951 485.603 397.801 484.848C397.726 484.47 397.668 484.181 397.629 483.987L397.585 483.768L397.573 483.713L397.571 483.7L397.57 483.697C397.57 483.696 397.57 483.696 401 483ZM401 483L404.277 481.771L397.57 483.696L401 483ZM144.5 637C144.334 633.504 144.331 633.504 144.329 633.504L144.323 633.504L144.312 633.505L144.287 633.506C144.269 633.508 144.248 633.509 144.224 633.51C144.177 633.514 144.12 633.518 144.052 633.525C143.918 633.537 143.744 633.557 143.534 633.588C143.117 633.649 142.556 633.755 141.893 633.938C140.568 634.302 138.81 634.977 136.968 636.232C133.181 638.81 129.442 643.555 128.048 651.925C127.532 655.018 125.896 658.683 123.439 662.506C121.007 666.289 117.907 670.018 114.713 673.213C111.502 676.423 108.312 678.978 105.744 680.494C104.783 681.061 103.996 681.431 103.391 681.648C103.361 681.424 103.332 681.17 103.307 680.883C103.148 679.098 103.155 676.578 103.308 673.461C103.614 667.261 104.475 659.196 105.474 650.985C106.056 646.203 106.672 641.469 107.248 637.044C107.666 633.828 108.063 630.775 108.411 627.987C108.818 624.72 109.152 621.844 109.353 619.614C109.453 618.501 109.524 617.509 109.552 616.689C109.576 615.972 109.583 615.069 109.432 614.314C109.369 613.997 109.239 613.466 108.928 612.917C108.616 612.365 107.862 611.372 106.435 611.073C105.059 610.786 104.008 611.349 103.551 611.657C103.068 611.982 102.732 612.36 102.54 612.594C101.849 613.436 101.165 614.789 100.572 616.008C100.092 616.992 99.5764 618.099 99.0071 619.321C97.9387 621.613 96.6829 624.307 95.1322 627.347C90.4034 636.618 83.7479 647.371 75.0763 653.076C74.574 653.407 74.1602 653.641 73.8282 653.806C73.8167 653.66 73.8081 653.496 73.8036 653.313C73.718 649.8 75.1693 643.563 77.4105 636.208C79.4584 629.487 82.0095 622.308 84.1469 616.294C84.2958 615.875 84.4427 615.461 84.5873 615.054C85.6888 611.952 86.6659 609.181 87.3515 607.056C87.693 605.998 87.9811 605.041 88.1785 604.255C88.2768 603.864 88.3657 603.463 88.4251 603.083C88.4733 602.775 88.5516 602.195 88.473 601.566C88.3131 600.287 87.5523 599.235 86.4922 598.654C85.6368 598.185 84.7978 598.133 84.3432 598.133C83.4028 598.133 82.4203 598.381 81.6355 598.619C79.952 599.13 77.7295 600.059 75.2539 601.193C70.2497 603.484 63.5928 606.9 56.8323 610.39C56.2802 610.675 55.7274 610.96 55.1744 611.246C48.9127 614.479 42.6398 617.718 37.4302 620.22C34.5932 621.582 32.1307 622.697 30.1928 623.465C30.0091 623.537 29.8319 623.606 29.6611 623.671C29.9251 621.414 30.5597 618.225 31.5112 614.292C33.5906 605.697 37.0286 594.168 40.7112 582.558C44.3878 570.968 48.2849 559.37 51.2645 550.665C52.7539 546.313 54.0132 542.688 54.8998 540.151C55.3431 538.882 55.6931 537.886 55.9322 537.208C56.0518 536.868 56.1435 536.608 56.2053 536.434L56.2752 536.236L56.2928 536.186L56.2972 536.174L56.2982 536.171C56.2984 536.171 56.2985 536.17 53 535L56.2985 536.17L50.1645 532.954C50.1617 532.952 50.1617 532.952 50.1617 532.952L50.1616 532.952L50.1614 532.952L50.1597 532.955L50.1501 532.968L50.1079 533.026C50.0697 533.079 50.0116 533.158 49.935 533.262C49.7819 533.47 49.555 533.776 49.266 534.159C48.6873 534.927 47.8621 536.001 46.8813 537.221C44.8989 539.688 42.3629 542.648 39.9792 544.886C38.9354 545.866 38.0038 546.629 37.2268 547.143C37.1963 546.309 37.2489 545.115 37.4693 543.463C38.9158 532.614 43.5492 517.919 47.9192 505.745C50.0892 499.7 52.1673 494.349 53.7028 490.511C54.4703 488.592 55.1014 487.053 55.5398 485.996C55.7589 485.467 55.9299 485.059 56.0455 484.784C56.1033 484.647 56.1473 484.543 56.1765 484.474L56.2092 484.397L56.2171 484.378L56.2189 484.374L56.2192 484.374L60.6267 474.044L51.1317 480.04L144.5 637ZM144.5 637L144.334 633.504L148 633.329V637V652.5V653.017L147.85 653.513L142.81 670.184L144.5 637ZM119.9 132.2C119.896 132.203 119.893 132.205 119.889 132.208C119.893 132.205 119.896 132.203 119.898 132.201L119.9 132.2ZM29.564 626.237C29.5634 626.234 29.5628 626.232 29.5622 626.229C29.5683 626.252 29.5679 626.256 29.564 626.237ZM102.395 681.888C102.395 681.887 102.406 681.886 102.427 681.888C102.405 681.889 102.394 681.888 102.395 681.888ZM103.634 682.801C103.653 682.838 103.661 682.86 103.66 682.86C103.659 682.861 103.649 682.843 103.634 682.801ZM63.0699 217.683C63.0697 217.684 63.0693 217.684 63.0689 217.685C63.0705 217.682 63.0708 217.682 63.0699 217.683ZM30.2847 389.624C30.2846 389.625 30.2804 389.622 30.2725 389.614C30.2808 389.62 30.2847 389.624 30.2847 389.624ZM36.3375 486.687C36.3278 486.686 36.3232 486.685 36.3235 486.685C36.3237 486.685 36.3285 486.685 36.3375 486.687Z" stroke="black" stroke-opacity="0.5" stroke-width="7"/>
</g>
<g filter="url(#filter1_d_2_37)">
<path d="M51 391C48.8899 377.41 51 358 51 358C51 358 48.5355 339.391 51 330.5L57.5 342.5C62.6929 349.719 66.5404 353.174 75.5 358C92.9764 372.23 99.7546 376.433 111.5 383.5C121.785 388.251 126.533 388.746 134 387.5C142.486 386.501 146.893 384.522 152.5 380.5L158 402.5L175.5 409.5C175.5 409.5 184.5 409.5 198.5 393.5C212.5 377.5 215 379 223 376C231 373 240.5 368 248.5 369C256.5 370 263.5 377.5 270.5 380.5C277.5 383.5 280.5 383.5 291 383.5C295.367 383.5 303.452 380.041 311.407 376C311.407 412 309 427.5 301.5 438C294 448.5 292 446 283.5 452.5C275 459 271.5 458.5 262 461.5C252.5 464.5 242.5 461.5 235 461.5C227.5 461.5 226 461.5 217.5 455.5C209 449.5 207 443 202 438C197 433 188.5 423.5 188.5 423.5L180.5 416.5L175.5 409.5L158 402.5L143.5 401.5L111.5 409.5L82 434C77.574 433.742 74.0392 431.592 65.5 423.5C56.7127 414.456 52.8996 408.083 51 391Z" fill="white"/>
<path d="M158 402.5L143.5 401.5L111.5 409.5L82 434C77.574 433.742 74.0392 431.592 65.5 423.5C56.7127 414.456 52.8996 408.083 51 391C48.8899 377.41 51 358 51 358C51 358 48.5355 339.391 51 330.5L57.5 342.5C62.6929 349.719 66.5404 353.174 75.5 358C92.9764 372.23 99.7546 376.433 111.5 383.5C121.785 388.251 126.533 388.746 134 387.5C142.486 386.501 146.893 384.522 152.5 380.5M158 402.5L152.5 380.5M158 402.5L175.5 409.5M152.5 380.5C151.051 373.756 158 364 149 361M175.5 409.5C175.5 409.5 184.5 409.5 198.5 393.5C212.5 377.5 215 379 223 376C231 373 240.5 368 248.5 369C256.5 370 263.5 377.5 270.5 380.5C277.5 383.5 280.5 383.5 291 383.5C301.5 383.5 333.5 363.5 333.5 363.5M175.5 409.5L180.5 416.5L188.5 423.5C188.5 423.5 197 433 202 438C207 443 209 449.5 217.5 455.5C226 461.5 227.5 461.5 235 461.5C242.5 461.5 252.5 464.5 262 461.5C271.5 458.5 275 459 283.5 452.5C292 446 294 448.5 301.5 438C309 427.5 311.407 412 311.407 376" stroke="black" stroke-width="8"/>
</g>
<g filter="url(#filter2_d_2_37)">
<path d="M262 406.5C262 423.621 250.5 437.5 231.5 437.5C217.5 437.5 201.5 421.121 201.5 404C201.5 386.879 217.969 373 231.5 373C245.031 373 262 389.379 262 406.5Z" fill="#050505"/>
<ellipse cx="235.5" cy="394.5" rx="8.5" ry="15.5" fill="#FEFEFE"/>
<path d="M100 389C93.5 405.5 95.4934 409.5 85 409.5C75.0449 408.928 66.6297 397.638 66 384.5C69.5 370 70.5066 364 81 364C91.4934 364 96 374.5 100 389Z" fill="black"/>
<path d="M83 372.5C83 374.709 83.1569 377.5 81.5 377.5C79.8431 377.5 77 374.709 77 372.5C77 370.291 77 366.5 80 368.5C81.6569 368.5 81.5 370 83 372.5Z" fill="white"/>
</g>
<g filter="url(#filter3_d_2_37)">
<g filter="url(#filter4_di_2_37)">
<path d="M232.563 539.812C233.123 539.252 233.798 538.745 234.494 538.284C234.756 538.041 235.027 537.802 235.319 537.562C237.412 535.85 238.25 540.163 238.25 541.437C238.25 542.268 239.125 542.984 239.125 543.875C239.125 544.334 238.899 544.653 239.097 545.125C239.212 545.397 239 545.718 239 546C239 546.289 239.125 546.533 239.125 546.819C239.125 548.713 239.5 550.581 239.5 552.472V555.625C239.5 556.371 239.362 557.277 239.563 558C239.78 558.784 239.581 559.831 239.493 560.625C239.385 561.6 239.096 562.561 238.903 563.528C238.712 564.481 238.433 565.451 238.125 566.375C237.832 567.255 237.394 568.12 237.132 568.993C236.907 569.743 236.316 570.366 236.125 571.132C235.959 571.797 235.631 572.495 235.347 573.125C235.048 573.789 234.821 574.463 234.5 575.125C234.33 575.476 234.27 575.863 234.125 576.222C233.995 576.544 233.71 576.792 233.625 577.132C233.463 577.78 233 578.719 232.681 579.312C232.285 580.048 232.07 580.904 231.903 581.722C231.458 583.899 231.282 586.103 231.118 588.312C231.022 589.616 230.771 591.052 230.444 592.312C230.164 593.395 230.25 594.759 230.25 595.875C230.25 597.514 230.585 599.15 230.625 600.792C230.668 602.542 230.75 604.285 230.75 606.042C230.75 609.112 230.375 612.182 230.375 615.25C230.375 618.086 230.328 621.064 229.938 623.875C229.831 624.645 229.864 625.416 229.75 626.187C229.654 626.839 229.457 627.466 229.375 628.125C229.21 629.446 228.714 630.663 228.375 631.944C228.017 633.297 227.497 634.596 227.222 635.972C227.085 636.659 227.106 637.99 226.486 638.437C224.104 640.158 221.342 640.863 218.472 641.222C217.062 641.398 216.081 641.027 214.875 640.375C214.328 640.079 213.881 639.633 213.319 639.347C212.769 639.067 212.186 638.934 211.632 638.681C209.971 637.919 208.271 637.448 207.375 635.75C206.607 634.295 206.125 632.744 206.125 631.062C206.125 629.248 205.417 627.527 205.028 625.778C204.731 624.443 204.256 623.159 203.875 621.847C203.481 620.491 203.196 619.114 202.813 617.75C202.46 616.498 202.125 615.245 202.125 613.937C202.125 612.817 201.836 611.575 202.028 610.472C202.264 609.115 202.434 607.739 202.653 606.375C202.871 605.019 202.652 603.369 202.5 602C201.963 597.164 200.776 591.948 203.063 587.375C203.266 586.968 203.418 586.482 203.563 586.049C203.775 585.41 204.136 584.718 204.25 584.062C204.366 583.396 204.614 583.283 203.875 583.653C203.035 584.073 202.129 585.335 201.75 586.187C201.531 586.681 201.149 587.105 201 587.625C200.795 588.341 200.201 588.804 199.931 589.5C199.668 590.176 199.223 590.969 198.813 591.562C198.277 592.336 197.538 592.939 197.028 593.722C196.344 594.772 195.28 595.497 194.5 596.472C193.634 597.555 192.364 598.49 191.688 599.687C190.987 600.927 190.487 602.158 189.632 603.312C188.868 604.344 188.535 605.555 187.625 606.5C186.574 607.591 185.925 609.045 185.222 610.375C184.622 611.511 183.566 612.364 182.944 613.493C182.424 614.439 181.793 615.288 181.118 616.132C180.443 616.976 179.688 617.777 179.028 618.625C178.477 619.333 177.89 619.768 177.25 620.375C176.788 620.813 176.181 620.936 175.688 621.319C174.85 621.97 173.902 621.675 173 621.625C172.772 621.612 171.828 621.362 171.653 621.222C171.335 620.968 170.825 621.227 170.444 621.118C169.367 620.81 168.962 619.676 168.613 618.698L168.597 618.653C168.18 617.483 167.375 616.216 167.375 614.931C167.375 614.229 167.09 613.514 167.007 612.812C166.888 611.801 167.072 610.798 167.222 609.806C167.532 607.755 168.1 605.763 168.243 603.694C168.389 601.583 169.047 599.758 169.903 597.875C170.613 596.313 171.005 594.604 172.069 593.25C172.53 592.664 173.285 592.036 173.868 591.562C174.534 591.021 175.094 590.368 175.681 589.75C176.756 588.618 177.772 587.478 178.875 586.375C179.967 585.283 181.384 584.577 182.75 583.875C184.326 583.065 185.686 582.053 187.125 581.007C188.004 580.367 188.992 579.873 189.882 579.25C190.936 578.512 192.109 577.678 193.25 577.097C194.552 576.434 195.702 575.476 196.972 574.75C198.163 574.07 199.365 573.416 200.556 572.75C202.126 571.871 203.687 570.8 205.125 569.722C206.355 568.799 207.353 567.647 208.438 566.562C209.706 565.294 211.369 564.506 212.625 563.25C213.58 562.295 214.46 561.382 215.188 560.25C215.599 559.61 216.237 558.969 216.75 558.382C217.214 557.852 217.63 557.245 218.125 556.75C218.594 556.281 218.986 555.685 219.375 555.153C219.895 554.441 220.546 553.784 221.132 553.125C222.174 551.953 223.26 550.799 223.972 549.375C224.683 547.953 225.6 546.775 226.75 545.625C227.403 544.972 227.976 544.274 228.625 543.625C229.104 543.146 229.758 542.586 230.097 542C230.681 540.992 231.777 540.598 232.563 539.812Z" fill="#8A0303"/>
<path d="M236.517 538.789C237.229 538.365 237.463 537.445 237.039 536.733C236.615 536.021 235.695 535.787 234.983 536.211L236.517 538.789ZM232.563 539.812L233.623 540.873L233.623 540.873L232.563 539.812ZM230.097 542L228.799 541.248L228.799 541.248L230.097 542ZM228.625 543.625L229.686 544.686L229.686 544.686L228.625 543.625ZM226.75 545.625L225.689 544.564L225.689 544.564L226.75 545.625ZM223.972 549.375L225.314 550.046L225.314 550.046L223.972 549.375ZM221.132 553.125L222.253 554.122L222.253 554.122L221.132 553.125ZM219.375 555.153L220.586 556.038L220.586 556.038L219.375 555.153ZM218.125 556.75L217.064 555.689L217.064 555.689L218.125 556.75ZM216.75 558.382L217.879 559.37L217.879 559.37L216.75 558.382ZM215.188 560.25L216.449 561.061L216.449 561.061L215.188 560.25ZM212.625 563.25L213.686 564.311L213.686 564.311L212.625 563.25ZM208.438 566.562L207.377 565.502L207.377 565.502L208.438 566.562ZM205.125 569.722L204.225 568.522L204.225 568.522L205.125 569.722ZM200.556 572.75L201.288 574.059L201.288 574.059L200.556 572.75ZM196.972 574.75L197.716 576.052L197.716 576.052L196.972 574.75ZM193.25 577.097L192.569 575.761L192.569 575.761L193.25 577.097ZM189.882 579.25L190.742 580.479L190.742 580.479L189.882 579.25ZM187.125 581.007L186.243 579.794L186.243 579.794L187.125 581.007ZM182.75 583.875L183.436 585.209L183.436 585.209L182.75 583.875ZM178.875 586.375L179.936 587.436L178.875 586.375ZM175.681 589.75L174.593 588.717L174.593 588.717L175.681 589.75ZM173.868 591.562L172.922 590.398L172.922 590.398L173.868 591.562ZM172.069 593.25L173.249 594.177L173.249 594.177L172.069 593.25ZM169.903 597.875L171.268 598.496L171.268 598.496L169.903 597.875ZM168.243 603.694L169.74 603.798L169.74 603.798L168.243 603.694ZM167.222 609.806L165.739 609.582L165.739 609.582L167.222 609.806ZM167.007 612.812L168.497 612.637L168.497 612.637L167.007 612.812ZM168.597 618.653L170.01 618.148L170.01 618.148L168.597 618.653ZM168.613 618.698L170.026 618.194L170.026 618.194L168.613 618.698ZM170.444 621.118L170.857 619.676L170.857 619.676L170.444 621.118ZM171.653 621.222L170.716 622.394L170.716 622.394L171.653 621.222ZM173 621.625L173.083 620.127L173.083 620.127L173 621.625ZM175.688 621.319L176.608 622.503L176.608 622.503L175.688 621.319ZM177.25 620.375L178.282 621.464L178.282 621.464L177.25 620.375ZM179.028 618.625L180.212 619.546L180.212 619.546L179.028 618.625ZM181.118 616.132L179.947 615.195L179.947 615.195L181.118 616.132ZM182.944 613.493L184.259 614.216L184.259 614.216L182.944 613.493ZM185.222 610.375L186.549 611.076L186.549 611.076L185.222 610.375ZM187.625 606.5L186.545 605.459L186.545 605.459L187.625 606.5ZM189.632 603.312L190.837 604.205L190.837 604.205L189.632 603.312ZM191.688 599.687L190.382 598.949L190.382 598.949L191.688 599.687ZM194.5 596.472L193.329 595.535L193.329 595.535L194.5 596.472ZM197.028 593.722L198.285 594.541L198.285 594.541L197.028 593.722ZM198.813 591.562L197.579 590.709L197.579 590.709L198.813 591.562ZM199.931 589.5L201.329 590.044L201.329 590.044L199.931 589.5ZM201 587.625L199.558 587.213L199.558 587.213L201 587.625ZM201.75 586.187L200.379 585.578L200.379 585.578L201.75 586.187ZM204.25 584.062L202.772 583.805L202.772 583.805L204.25 584.062ZM203.563 586.049L202.139 585.574L202.139 585.574L203.563 586.049ZM203.063 587.375L204.404 588.046L204.404 588.046L203.063 587.375ZM202.5 602L201.009 602.166L201.009 602.166L202.5 602ZM202.653 606.375L204.134 606.613L204.134 606.613L202.653 606.375ZM202.028 610.472L203.506 610.729L203.506 610.729L202.028 610.472ZM202.813 617.75L204.256 617.344L204.256 617.344L202.813 617.75ZM203.875 621.847L202.434 622.265L202.434 622.265L203.875 621.847ZM205.028 625.778L206.492 625.452L206.492 625.452L205.028 625.778ZM207.375 635.75L206.048 636.45L206.048 636.45L207.375 635.75ZM211.632 638.681L211.007 640.044L211.007 640.044L211.632 638.681ZM213.319 639.347L214 638.011L214 638.011L213.319 639.347ZM214.875 640.375L214.162 641.695L214.162 641.695L214.875 640.375ZM218.472 641.222L218.286 639.734L218.286 639.734L218.472 641.222ZM226.486 638.437L225.608 637.221L225.608 637.221L226.486 638.437ZM227.222 635.972L225.751 635.678L225.751 635.678L227.222 635.972ZM228.375 631.944L229.825 632.328L229.825 632.328L228.375 631.944ZM229.375 628.125L227.887 627.939L227.887 627.939L229.375 628.125ZM229.75 626.187L231.234 626.407L231.234 626.407L229.75 626.187ZM229.938 623.875L231.423 624.081L231.423 624.081L229.938 623.875ZM230.625 600.792L229.125 600.828L229.125 600.828L230.625 600.792ZM230.444 592.312L231.896 592.689L231.896 592.689L230.444 592.312ZM231.118 588.312L229.622 588.202L229.622 588.202L231.118 588.312ZM231.903 581.722L230.433 581.422L230.433 581.422L231.903 581.722ZM232.681 579.312L231.36 578.601L231.36 578.601L232.681 579.312ZM233.625 577.132L232.17 576.768L232.17 576.768L233.625 577.132ZM234.125 576.222L235.515 576.785L235.515 576.785L234.125 576.222ZM234.5 575.125L233.151 574.47L233.151 574.47L234.5 575.125ZM235.347 573.125L233.979 572.509L233.979 572.509L235.347 573.125ZM236.125 571.132L237.58 571.496L237.58 571.496L236.125 571.132ZM237.132 568.993L238.569 569.424L238.569 569.424L237.132 568.993ZM238.125 566.375L236.702 565.901L236.702 565.901L238.125 566.375ZM238.903 563.528L240.374 563.822L240.374 563.822L238.903 563.528ZM239.493 560.625L240.984 560.791L240.984 560.791L239.493 560.625ZM239.563 558L241.008 557.599L241.008 557.599L239.563 558ZM239.097 545.125L237.715 545.707L237.715 545.707L239.097 545.125ZM235.319 537.562L234.37 536.402L234.37 536.402L235.319 537.562ZM233 539.75L234.061 540.811L234.061 540.811L233 539.75ZM231.75 541.125L230.689 540.064L230.689 540.064L231.75 541.125ZM231.125 541.75L232.186 542.811L232.186 542.811L231.125 541.75ZM234.983 536.211C234.561 536.462 234.112 536.737 233.665 537.034L235.323 539.534C235.713 539.275 236.115 539.028 236.517 538.789L234.983 536.211ZM233.665 537.034C232.927 537.522 232.161 538.093 231.502 538.752L233.623 540.873C234.084 540.412 234.669 539.967 235.323 539.534L233.665 537.034ZM231.502 538.752C231.221 539.033 230.929 539.206 230.374 539.609C229.887 539.961 229.254 540.463 228.799 541.248L231.395 542.752C231.524 542.53 231.731 542.33 232.134 542.037C232.47 541.794 233.119 541.378 233.623 540.873L231.502 538.752ZM228.799 541.248C228.724 541.379 228.579 541.56 228.338 541.807C228.046 542.107 227.903 542.225 227.564 542.564L229.686 544.686C229.826 544.546 230.249 544.145 230.489 543.899C230.78 543.599 231.132 543.207 231.395 542.752L228.799 541.248ZM227.564 542.564C227.21 542.919 226.88 543.283 226.578 543.616C226.268 543.957 225.986 544.268 225.689 544.564L227.811 546.686C228.167 546.329 228.498 545.965 228.8 545.632C229.11 545.29 229.391 544.98 229.686 544.686L227.564 542.564ZM225.689 544.564C224.454 545.799 223.43 547.106 222.631 548.704L225.314 550.046C225.937 548.8 226.747 547.75 227.811 546.686L225.689 544.564ZM222.631 548.704C222.028 549.909 221.105 550.898 220.011 552.128L222.253 554.122C223.243 553.008 224.493 551.688 225.314 550.046L222.631 548.704ZM220.011 552.128C219.501 552.702 218.741 553.479 218.164 554.268L220.586 556.038C221.05 555.403 221.592 554.866 222.253 554.122L220.011 552.128ZM218.164 554.268C217.71 554.889 217.425 555.328 217.064 555.689L219.186 557.811C219.763 557.234 220.262 556.481 220.586 556.038L218.164 554.268ZM217.064 555.689C216.755 555.999 216.483 556.33 216.254 556.616C216.01 556.922 215.824 557.162 215.621 557.394L217.879 559.37C218.139 559.072 218.394 558.744 218.597 558.49C218.816 558.216 219 557.996 219.186 557.811L217.064 555.689ZM215.621 557.394C215.208 557.867 214.417 558.674 213.926 559.439L216.449 561.061C216.781 560.545 217.266 560.071 217.879 559.37L215.621 557.394ZM213.926 559.439C213.293 560.423 212.517 561.237 211.564 562.189L213.686 564.311C214.642 563.354 215.626 562.342 216.449 561.061L213.926 559.439ZM211.564 562.189C211.044 562.709 210.425 563.148 209.675 563.674C208.961 564.174 208.119 564.76 207.377 565.502L209.498 567.623C210.024 567.097 210.648 566.655 211.397 566.13C212.109 565.631 212.949 565.047 213.686 564.311L211.564 562.189ZM207.377 565.502C206.191 566.688 205.342 567.685 204.225 568.522L206.025 570.922C207.369 569.914 208.515 568.607 209.498 567.623L207.377 565.502ZM204.225 568.522C202.819 569.576 201.316 570.605 199.823 571.441L201.288 574.059C202.936 573.136 204.556 572.024 206.025 570.922L204.225 568.522ZM199.823 571.441C198.659 572.093 197.423 572.765 196.228 573.448L197.716 576.052C198.903 575.374 200.072 574.74 201.288 574.059L199.823 571.441ZM196.228 573.448C195.53 573.846 194.866 574.309 194.281 574.706C193.673 575.118 193.128 575.476 192.569 575.761L193.931 578.434C194.674 578.055 195.355 577.602 195.965 577.188C196.598 576.759 197.144 576.379 197.716 576.052L196.228 573.448ZM192.569 575.761C191.314 576.4 190.047 577.304 189.022 578.021L190.742 580.479C191.826 579.72 192.904 578.957 193.931 578.434L192.569 575.761ZM189.022 578.021C188.628 578.297 188.208 578.547 187.727 578.837C187.262 579.116 186.743 579.43 186.243 579.794L188.007 582.22C188.387 581.944 188.8 581.692 189.272 581.408C189.727 581.135 190.246 580.826 190.742 580.479L189.022 578.021ZM186.243 579.794C184.778 580.859 183.516 581.794 182.064 582.541L183.436 585.209C185.135 584.335 186.595 583.247 188.007 582.22L186.243 579.794ZM182.064 582.541C180.756 583.214 179.105 584.024 177.814 585.314L179.936 587.436C180.828 586.543 182.013 585.941 183.436 585.209L182.064 582.541ZM177.814 585.314C176.698 586.431 175.621 587.635 174.593 588.717L176.768 590.783C177.891 589.601 178.846 588.525 179.936 587.436L177.814 585.314ZM174.593 588.717C173.934 589.411 173.489 589.938 172.922 590.398L174.814 592.727C175.58 592.105 176.253 591.325 176.768 590.783L174.593 588.717ZM172.922 590.398C172.365 590.851 171.472 591.582 170.89 592.323L173.249 594.177C173.588 593.745 174.206 593.221 174.814 592.727L172.922 590.398ZM170.89 592.323C170.228 593.166 169.801 594.086 169.463 594.923C169.092 595.839 168.882 596.497 168.537 597.254L171.268 598.496C171.634 597.691 171.975 596.713 172.244 596.046C172.546 595.3 172.847 594.688 173.249 594.177L170.89 592.323ZM168.537 597.254C167.651 599.203 166.91 601.218 166.747 603.591L169.74 603.798C169.867 601.947 170.442 600.313 171.268 598.496L168.537 597.254ZM166.747 603.591C166.682 604.529 166.519 605.468 166.323 606.468C166.132 607.441 165.9 608.513 165.739 609.582L168.705 610.029C168.854 609.047 169.061 608.098 169.267 607.046C169.468 606.02 169.661 604.929 169.74 603.798L166.747 603.591ZM165.739 609.582C165.602 610.489 165.369 611.729 165.517 612.988L168.497 612.637C168.407 611.873 168.543 611.106 168.705 610.029L165.739 609.582ZM165.517 612.988C165.571 613.445 165.692 613.915 165.76 614.209C165.84 614.556 165.875 614.765 165.875 614.931H168.875C168.875 614.395 168.767 613.896 168.684 613.534C168.588 613.121 168.525 612.882 168.497 612.637L165.517 612.988ZM165.875 614.931C165.875 615.869 166.166 616.726 166.44 617.4C166.578 617.739 166.732 618.079 166.858 618.365C166.991 618.666 167.1 618.921 167.185 619.157L170.01 618.148C169.885 617.8 169.737 617.458 169.602 617.152C169.46 616.831 169.335 616.555 169.219 616.271C168.986 615.697 168.875 615.277 168.875 614.931H165.875ZM167.185 619.157L167.201 619.202L170.026 618.194L170.01 618.148L167.185 619.157ZM167.201 619.202C167.364 619.66 167.603 620.35 167.986 620.958C168.391 621.601 169.027 622.273 170.032 622.56L170.857 619.676C170.784 619.655 170.68 619.606 170.526 619.361C170.349 619.08 170.212 618.714 170.026 618.194L167.201 619.202ZM170.032 622.56C170.354 622.652 170.643 622.651 170.819 622.643C170.912 622.638 170.997 622.631 171.059 622.624C171.136 622.617 171.161 622.614 171.207 622.61C171.292 622.602 171.259 622.611 171.185 622.601C171.088 622.588 170.902 622.542 170.716 622.394L172.59 620.051C171.915 619.511 171.129 619.604 170.938 619.622C170.746 619.639 170.747 619.643 170.679 619.646C170.643 619.648 170.726 619.638 170.857 619.676L170.032 622.56ZM170.716 622.394C170.975 622.601 171.291 622.715 171.383 622.749C171.548 622.81 171.73 622.867 171.896 622.914C172.164 622.991 172.612 623.106 172.917 623.123L173.083 620.127C173.142 620.131 173.169 620.137 173.14 620.132C173.122 620.129 173.089 620.122 173.043 620.112C172.952 620.092 172.836 620.062 172.718 620.029C172.597 619.995 172.496 619.962 172.427 619.936C172.393 619.923 172.383 619.918 172.391 619.922C172.396 619.925 172.414 619.933 172.442 619.949C172.465 619.963 172.521 619.996 172.59 620.051L170.716 622.394ZM172.917 623.123C173.092 623.132 173.263 623.153 173.522 623.181C173.757 623.207 174.057 623.236 174.372 623.235C175.037 623.233 175.845 623.097 176.608 622.503L174.767 620.135C174.693 620.193 174.608 620.234 174.364 620.235C174.225 620.236 174.065 620.222 173.843 620.198C173.645 620.177 173.359 620.143 173.083 620.127L172.917 623.123ZM176.608 622.503C176.706 622.428 176.815 622.374 177.143 622.213C177.419 622.077 177.87 621.854 178.282 621.464L176.218 619.286C176.167 619.334 176.084 619.391 175.818 619.522C175.603 619.627 175.163 619.827 174.767 620.135L176.608 622.503ZM178.282 621.464C178.775 620.997 179.569 620.372 180.212 619.546L177.844 617.704C177.385 618.294 177.006 618.54 176.218 619.286L178.282 621.464ZM180.212 619.546C180.515 619.156 180.845 618.77 181.202 618.357C181.551 617.953 181.93 617.518 182.289 617.069L179.947 615.195C179.631 615.59 179.294 615.977 178.932 616.396C178.578 616.806 178.2 617.246 177.844 617.704L180.212 619.546ZM182.289 617.069C182.982 616.203 183.676 615.275 184.259 614.216L181.63 612.77C181.172 613.604 180.604 614.374 179.947 615.195L182.289 617.069ZM184.259 614.216C184.486 613.804 184.803 613.422 185.24 612.901C185.642 612.422 186.162 611.807 186.549 611.076L183.896 609.674C183.682 610.079 183.374 610.458 182.942 610.972C182.546 611.444 182.025 612.053 181.63 612.77L184.259 614.216ZM186.549 611.076C187.324 609.609 187.844 608.434 188.705 607.541L186.545 605.459C185.303 606.747 184.527 608.481 183.896 609.674L186.549 611.076ZM188.705 607.541C189.315 606.908 189.706 606.21 190.008 605.643C190.333 605.031 190.54 604.606 190.837 604.205L188.427 602.42C187.96 603.05 187.618 603.747 187.359 604.234C187.076 604.767 186.846 605.147 186.545 605.459L188.705 607.541ZM190.837 604.205C191.332 603.537 191.712 602.863 192.045 602.23C192.396 601.564 192.656 601.023 192.993 600.426L190.382 598.949C190.019 599.592 189.678 600.286 189.39 600.833C189.084 601.415 188.787 601.933 188.427 602.42L190.837 604.205ZM192.993 600.426C193.227 600.012 193.591 599.598 194.092 599.089C194.547 598.627 195.175 598.03 195.671 597.409L193.329 595.535C192.959 595.997 192.519 596.41 191.953 596.985C191.434 597.513 190.825 598.166 190.382 598.949L192.993 600.426ZM195.671 597.409C195.986 597.016 196.355 596.676 196.843 596.203C197.297 595.764 197.843 595.22 198.285 594.541L195.771 592.904C195.529 593.274 195.201 593.617 194.757 594.047C194.348 594.443 193.795 594.953 193.329 595.535L195.671 597.409ZM198.285 594.541C198.464 594.266 198.695 594.004 199.018 593.65C199.315 593.325 199.709 592.903 200.046 592.416L197.579 590.709C197.38 590.996 197.137 591.262 196.803 591.627C196.495 591.964 196.102 592.395 195.771 592.904L198.285 594.541ZM200.046 592.416C200.508 591.748 201.014 590.852 201.329 590.044L198.533 588.956C198.321 589.501 197.938 590.19 197.579 590.709L200.046 592.416ZM201.329 590.044C201.382 589.907 201.468 589.783 201.712 589.44C201.917 589.151 202.262 588.669 202.442 588.037L199.558 587.213C199.534 587.297 199.478 587.405 199.268 587.701C199.096 587.942 198.75 588.397 198.533 588.956L201.329 590.044ZM202.442 588.037C202.457 587.986 202.496 587.897 202.63 587.676C202.734 587.506 202.96 587.158 203.121 586.797L200.379 585.578C200.32 585.711 200.246 585.822 200.067 586.117C199.918 586.362 199.692 586.744 199.558 587.213L202.442 588.037ZM203.121 586.797C203.252 586.502 203.503 586.081 203.812 585.694C204.141 585.281 204.415 585.06 204.546 584.994L203.204 582.311C202.496 582.665 201.896 583.285 201.467 583.822C201.019 584.384 200.627 585.021 200.379 585.578L203.121 586.797ZM204.546 584.994C204.773 584.881 204.812 584.863 204.81 584.863C204.8 584.867 204.758 584.884 204.696 584.9C204.644 584.914 204.509 584.947 204.328 584.944C204.143 584.942 203.809 584.899 203.481 584.658C203.136 584.403 202.985 584.066 202.926 583.824C202.873 583.607 202.884 583.434 202.89 583.367C202.897 583.29 202.909 583.234 202.912 583.219C202.917 583.197 202.921 583.187 202.901 583.255C202.871 583.361 202.815 583.557 202.772 583.805L205.728 584.319C205.743 584.235 205.761 584.166 205.787 584.075C205.796 584.045 205.823 583.953 205.842 583.866C205.845 583.85 205.936 583.508 205.841 583.114C205.778 582.856 205.619 582.506 205.262 582.244C204.924 581.994 204.575 581.947 204.37 581.944C204.028 581.94 203.756 582.054 203.713 582.071C203.554 582.134 203.346 582.24 203.204 582.311L204.546 584.994ZM202.772 583.805C202.742 583.976 202.672 584.196 202.547 584.515C202.442 584.782 202.262 585.207 202.139 585.574L204.986 586.523C205.076 586.251 205.183 586.011 205.34 585.609C205.477 585.258 205.644 584.804 205.728 584.319L202.772 583.805ZM202.139 585.574C201.978 586.06 201.864 586.417 201.721 586.704L204.404 588.046C204.668 587.519 204.859 586.903 204.986 586.523L202.139 585.574ZM201.721 586.704C200.424 589.297 200.141 592.022 200.223 594.636C200.304 597.193 200.754 599.871 201.009 602.166L203.991 601.834C203.708 599.293 203.297 596.945 203.222 594.542C203.148 592.196 203.414 590.026 204.404 588.046L201.721 586.704ZM201.009 602.166C201.172 603.627 201.349 605.031 201.172 606.137L204.134 606.613C204.392 605.007 204.133 603.111 203.991 601.834L201.009 602.166ZM201.172 606.137C200.935 607.609 200.79 608.836 200.55 610.215L203.506 610.729C203.738 609.395 203.932 607.87 204.134 606.613L201.172 606.137ZM200.55 610.215C200.419 610.966 200.46 611.714 200.509 612.321C200.565 612.994 200.625 613.459 200.625 613.937H203.625C203.625 613.295 203.541 612.579 203.499 612.075C203.453 611.506 203.444 611.081 203.506 610.729L200.55 610.215ZM200.625 613.937C200.625 615.48 201.021 616.92 201.369 618.156L204.256 617.344C203.9 616.076 203.625 615.011 203.625 613.937H200.625ZM201.369 618.156C201.552 618.81 201.713 619.469 201.884 620.16C202.051 620.843 202.228 621.554 202.434 622.265L205.316 621.429C205.128 620.785 204.965 620.129 204.797 619.443C204.63 618.766 204.456 618.055 204.256 617.344L201.369 618.156ZM202.434 622.265C202.859 623.727 203.278 624.819 203.564 626.103L206.492 625.452C206.184 624.068 205.653 622.59 205.316 621.429L202.434 622.265ZM203.564 626.103C203.761 626.99 204.076 628.02 204.27 628.77C204.484 629.603 204.625 630.344 204.625 631.062H207.625C207.625 629.967 207.411 628.94 207.175 628.021C206.917 627.02 206.684 626.315 206.492 625.452L203.564 626.103ZM204.625 631.062C204.625 633.042 205.195 634.833 206.048 636.45L208.702 635.05C208.019 633.756 207.625 632.445 207.625 631.062H204.625ZM206.048 636.45C206.669 637.626 207.566 638.351 208.473 638.869C209.289 639.335 210.329 639.733 211.007 640.044L212.257 637.317C211.274 636.866 210.634 636.648 209.961 636.264C209.378 635.931 208.977 635.572 208.702 635.05L206.048 636.45ZM211.007 640.044C211.361 640.206 211.721 640.328 211.979 640.419C212.262 640.519 212.461 640.593 212.639 640.684L214 638.011C213.627 637.821 213.26 637.689 212.975 637.589C212.665 637.48 212.457 637.409 212.257 637.317L211.007 640.044ZM212.639 640.684C212.795 640.763 212.955 640.875 213.214 641.066C213.442 641.233 213.778 641.487 214.162 641.695L215.588 639.055C215.425 638.967 215.264 638.85 214.992 638.649C214.749 638.471 214.405 638.217 214 638.011L212.639 640.684ZM214.162 641.695C215.489 642.412 216.801 642.943 218.658 642.711L218.286 639.734C217.323 639.854 216.674 639.642 215.588 639.055L214.162 641.695ZM218.658 642.711C221.636 642.338 224.688 641.587 227.364 639.653L225.608 637.221C223.521 638.729 221.047 639.389 218.286 639.734L218.658 642.711ZM227.364 639.653C227.809 639.332 228.065 638.908 228.216 638.564C228.369 638.218 228.454 637.863 228.509 637.572C228.565 637.277 228.6 636.984 228.626 636.76C228.656 636.508 228.673 636.366 228.693 636.266L225.751 635.678C225.703 635.922 225.671 636.204 225.647 636.408C225.619 636.641 225.595 636.837 225.561 637.017C225.527 637.2 225.493 637.305 225.47 637.356C225.447 637.408 225.473 637.319 225.608 637.221L227.364 639.653ZM228.693 636.266C228.814 635.661 228.992 635.056 229.199 634.399C229.398 633.763 229.635 633.048 229.825 632.328L226.925 631.561C226.757 632.194 226.555 632.805 226.336 633.5C226.125 634.175 225.906 634.907 225.751 635.678L228.693 636.266ZM229.825 632.328C229.988 631.711 230.17 631.177 230.378 630.477C230.573 629.821 230.766 629.094 230.863 628.311L227.887 627.939C227.819 628.477 227.681 629.02 227.502 629.623C227.336 630.182 227.101 630.897 226.925 631.561L229.825 632.328ZM230.863 628.311C230.895 628.061 230.949 627.803 231.021 627.48C231.089 627.176 231.176 626.798 231.234 626.407L228.266 625.968C228.228 626.228 228.168 626.489 228.093 626.827C228.022 627.145 227.938 627.531 227.887 627.939L230.863 628.311ZM231.234 626.407C231.303 625.939 231.326 625.482 231.345 625.105C231.365 624.706 231.381 624.389 231.423 624.081L228.452 623.669C228.388 624.131 228.367 624.585 228.348 624.956C228.329 625.349 228.311 625.665 228.266 625.968L231.234 626.407ZM231.423 624.081C231.829 621.159 231.875 618.09 231.875 615.25H228.875C228.875 618.083 228.827 620.97 228.452 623.669L231.423 624.081ZM231.875 615.25C231.875 613.77 231.966 612.281 232.06 610.738C232.153 609.211 232.25 607.63 232.25 606.042H229.25C229.25 607.524 229.16 609.013 229.065 610.556C228.972 612.083 228.875 613.663 228.875 615.25H231.875ZM232.25 606.042C232.25 604.263 232.166 602.458 232.125 600.755L229.125 600.828C229.169 602.626 229.25 604.307 229.25 606.042H232.25ZM232.125 600.755C232.103 599.858 232 598.97 231.914 598.171C231.824 597.347 231.75 596.603 231.75 595.875H228.75C228.75 596.786 228.843 597.68 228.931 598.494C229.022 599.333 229.107 600.083 229.125 600.828L232.125 600.755ZM231.75 595.875C231.75 594.588 231.679 593.529 231.896 592.689L228.992 591.936C228.649 593.262 228.75 594.93 228.75 595.875H231.75ZM231.896 592.689C232.243 591.351 232.51 589.825 232.614 588.423L229.622 588.202C229.533 589.406 229.299 590.754 228.992 591.936L231.896 592.689ZM232.614 588.423C232.778 586.206 232.949 584.093 233.372 582.023L230.433 581.422C229.966 583.705 229.785 586 229.622 588.202L232.614 588.423ZM233.372 582.023C233.536 581.224 233.716 580.553 234.001 580.024L231.36 578.601C230.853 579.543 230.605 580.584 230.433 581.422L233.372 582.023ZM234.001 580.024C234.317 579.438 234.867 578.348 235.08 577.496L232.17 576.768C232.059 577.212 231.683 578.001 231.36 578.601L234.001 580.024ZM235.08 577.496C235.052 577.608 235.003 577.654 235.1 577.512C235.129 577.468 235.209 577.354 235.274 577.25C235.347 577.135 235.438 576.977 235.515 576.785L232.735 575.659C232.744 575.635 232.761 575.616 232.616 575.829C232.516 575.976 232.283 576.316 232.17 576.768L235.08 577.496ZM235.515 576.785C235.624 576.518 235.7 576.239 235.743 576.092C235.796 575.91 235.824 575.832 235.849 575.78L233.151 574.47C233.006 574.768 232.919 575.06 232.863 575.249C232.798 575.473 232.772 575.568 232.735 575.659L235.515 576.785ZM235.849 575.78C236.035 575.398 236.189 575.022 236.324 574.685C236.465 574.335 236.582 574.037 236.715 573.741L233.979 572.509C233.814 572.877 233.668 573.248 233.54 573.567C233.407 573.898 233.287 574.19 233.151 574.47L235.849 575.78ZM236.715 573.741C236.975 573.164 237.374 572.322 237.58 571.496L234.67 570.768C234.544 571.272 234.287 571.826 233.979 572.509L236.715 573.741ZM237.58 571.496C237.618 571.346 237.704 571.171 237.914 570.807C238.089 570.506 238.396 570.001 238.569 569.424L235.695 568.562C235.643 568.735 235.543 568.916 235.317 569.306C235.128 569.632 234.824 570.152 234.67 570.768L237.58 571.496ZM238.569 569.424C238.676 569.067 238.824 568.695 239.004 568.256C239.175 567.84 239.382 567.349 239.548 566.849L236.702 565.901C236.575 566.281 236.416 566.662 236.229 567.116C236.052 567.548 235.85 568.046 235.695 568.562L238.569 569.424ZM239.548 566.849C239.868 565.888 240.167 564.855 240.374 563.822L237.432 563.234C237.257 564.107 236.998 565.014 236.702 565.901L239.548 566.849ZM240.374 563.822C240.526 563.059 240.868 561.836 240.984 560.791L238.002 560.459C237.902 561.364 237.666 562.063 237.432 563.234L240.374 563.822ZM240.984 560.791C241.017 560.493 241.103 559.905 241.139 559.418C241.176 558.906 241.187 558.242 241.008 557.599L238.117 558.401C238.156 558.542 238.176 558.794 238.147 559.199C238.115 559.63 238.057 559.963 238.002 560.459L240.984 560.791ZM241.008 557.599C240.968 557.456 240.947 557.229 240.956 556.856C240.96 556.675 240.969 556.494 240.98 556.282C240.99 556.082 241 555.852 241 555.625H238C238 555.771 237.993 555.934 237.983 556.136C237.974 556.326 237.962 556.557 237.956 556.786C237.946 557.234 237.956 557.821 238.117 558.401L241.008 557.599ZM241 555.625V552.472H238V555.625H241ZM241 552.472C241 551.44 240.898 550.426 240.805 549.498C240.71 548.545 240.625 547.679 240.625 546.819H237.625C237.625 547.853 237.727 548.868 237.82 549.796C237.915 550.748 238 551.614 238 552.472H241ZM240.625 546.819C240.625 546.475 240.548 546.177 240.523 546.068C240.486 545.913 240.5 545.944 240.5 546H237.5C237.5 546.345 237.576 546.642 237.602 546.754C237.639 546.911 237.625 546.877 237.625 546.819H240.625ZM240.5 546C240.5 546.106 240.481 546.168 240.488 546.139C240.491 546.127 240.496 546.11 240.506 546.073C240.514 546.043 240.53 545.989 240.544 545.934C240.587 545.766 240.747 545.179 240.48 544.543L237.715 545.707C237.635 545.517 237.628 545.352 237.632 545.26C237.636 545.181 237.651 545.14 237.639 545.183C237.634 545.204 237.628 545.224 237.616 545.268C237.606 545.306 237.59 545.364 237.574 545.426C237.545 545.545 237.5 545.753 237.5 546H240.5ZM240.48 544.543C240.496 544.582 240.511 544.638 240.515 544.698C240.518 544.75 240.511 544.774 240.517 544.735C240.521 544.714 240.526 544.688 240.535 544.639C240.544 544.598 240.557 544.53 240.57 544.461C240.595 544.316 240.625 544.113 240.625 543.875H237.625C237.625 543.866 237.626 543.876 237.616 543.935C237.61 543.968 237.604 544 237.592 544.057C237.582 544.107 237.568 544.178 237.556 544.255C237.499 544.608 237.467 545.118 237.715 545.707L240.48 544.543ZM240.625 543.875C240.625 542.978 240.184 542.239 239.999 541.906C239.727 541.415 239.75 541.388 239.75 541.437H236.75C236.75 542.317 237.211 543.064 237.376 543.362C237.629 543.817 237.625 543.881 237.625 543.875H240.625ZM239.75 541.437C239.75 540.623 239.509 539.006 238.932 537.753C238.658 537.157 238.173 536.339 237.323 535.92C236.854 535.69 236.317 535.604 235.76 535.713C235.227 535.816 234.763 536.08 234.37 536.402L236.269 538.723C236.399 538.617 236.419 538.641 236.333 538.657C236.222 538.679 236.094 538.659 235.998 538.612C235.893 538.561 236.01 538.579 236.207 539.007C236.572 539.801 236.75 540.977 236.75 541.437H239.75ZM234.37 536.402C234.05 536.663 233.755 536.923 233.474 537.183L235.513 539.384C235.757 539.158 236.005 538.94 236.269 538.723L234.37 536.402ZM233.474 537.183C232.944 537.675 232.444 538.185 231.939 538.689L234.061 540.811C234.596 540.275 235.037 539.825 235.513 539.384L233.474 537.183ZM231.939 538.689C231.677 538.951 231.44 539.226 231.244 539.453C231.035 539.694 230.866 539.888 230.689 540.064L232.811 542.186C233.075 541.921 233.313 541.645 233.511 541.418C233.72 541.176 233.887 540.984 234.061 540.811L231.939 538.689ZM230.689 540.064L230.064 540.689L232.186 542.811L232.811 542.186L230.689 540.064ZM230.064 540.689C230.071 540.683 230.145 540.607 230.278 540.53C230.394 540.463 230.751 540.281 231.238 540.371C231.792 540.474 232.1 540.846 232.231 541.078C232.345 541.281 232.375 541.455 232.382 541.494C232.395 541.572 232.393 541.634 232.39 541.515C232.39 541.497 232.39 541.25 232.33 541.011L229.42 541.739C229.383 541.593 229.388 541.477 229.391 541.595C229.392 541.611 229.393 541.813 229.425 542C229.441 542.093 229.483 542.313 229.618 542.551C229.768 542.817 230.102 543.212 230.69 543.321C231.211 543.418 231.61 543.225 231.779 543.128C231.966 543.02 232.103 542.893 232.186 542.811L230.064 540.689Z" fill="#070707"/>
</g>
<g filter="url(#filter5_d_2_37)">
<path d="M192.5 234C171 260.5 160 282.5 157 290.5C154 298.5 157 280.5 154.5 264.5C152 248.5 164.5 201.5 165 193C165.5 184.5 177.5 118 180.5 100.5C183.5 83.0001 190 70.5001 199 50.0001C208 29.5001 208.5 21.0001 222.5 13.0001C236.5 5.00006 244 3.50017 250 5.0001C256 6.50003 253 2.5002 268.5 13.0001C284 23.5 275.584 28.2077 273 39.5001C270.72 50.0331 265 64.0001 259 74.0001C253 84 248.5 86 243 95.5C237.5 105 220.5 101.5 206.5 108.5C192.5 115.5 244.069 108.759 250 98.0001C255.931 87.2416 258.911 81.9269 263.5 74.0001C268.396 61.8755 271.254 58.4842 276.5 57.0001C282.632 55.0411 286.741 54.1229 296 53.0001C307.889 51.2803 312.238 52.3761 317 57.0001C327.446 65.4956 328.756 68.8413 328.5 74.0001C329.144 83.474 329.192 87.2081 328.5 90.0001C325.53 98.2194 322.537 102.731 317 104C310.562 106.351 306.65 107.265 296 104C285.167 99.9681 281.721 99.7816 283.5 90.0001L276.5 83.0001L280.5 95.5L292.5 108.5H313.5L332 98.0001H352C358 98.0001 363 98.0001 371 104C379 110 383.5 115 381.5 123.5C379.5 132 376 136.5 373.5 141.5C371 146.5 360 146.5 360 146.5C353.642 147.297 346 141.5 346 141.5C346 141.5 336.17 132.709 346 126L332 132H320.5L307 141.5C307 141.5 266.322 154.633 236.5 179C236.5 179 214 207.5 192.5 234Z" fill="#8A0303"/>
<path d="M192.5 234C171 260.5 160 282.5 157 290.5C154 298.5 157 280.5 154.5 264.5C152 248.5 164.5 201.5 165 193C165.5 184.5 177.5 118 180.5 100.5C183.5 83.0001 190 70.5001 199 50.0001C208 29.5001 208.5 21.0001 222.5 13.0001C236.5 5.00006 244 3.50017 250 5.0001C256 6.50003 253 2.5002 268.5 13.0001C284 23.5 275.584 28.2077 273 39.5001C270.72 50.0331 265 64.0001 259 74.0001C253 84 248.5 86 243 95.5C237.5 105 220.5 101.5 206.5 108.5C192.5 115.5 244.069 108.759 250 98.0001C255.931 87.2416 258.911 81.9269 263.5 74.0001C268.396 61.8755 271.254 58.4842 276.5 57.0001C282.632 55.0411 286.741 54.1229 296 53.0001C307.889 51.2803 312.238 52.3761 317 57.0001C327.446 65.4956 328.756 68.8413 328.5 74.0001C329.144 83.474 329.192 87.2081 328.5 90.0001C325.53 98.2194 322.537 102.731 317 104C310.562 106.351 306.65 107.265 296 104C285.167 99.9681 281.721 99.7816 283.5 90.0001L276.5 83.0001L280.5 95.5L292.5 108.5H313.5L332 98.0001H352C358 98.0001 363 98.0001 371 104C379 110 383.5 115 381.5 123.5C379.5 132 376 136.5 373.5 141.5C371 146.5 360 146.5 360 146.5C353.642 147.297 346 141.5 346 141.5C346 141.5 336.17 132.709 346 126L332 132H320.5L307 141.5C307 141.5 266.322 154.633 236.5 179C236.5 179 214 207.5 192.5 234Z" stroke="black" stroke-width="7"/>
</g>
</g>
<g filter="url(#filter6_d_2_37)">
<path d="M57.5001 536.5C57.5001 536.5 60.5001 492 62.5001 485C64.5 478 71.0001 456 76.5001 448.5C82 441 93.5001 426.5 104.5 418.5C115.5 410.5 128 407.5 136.5 408C145 408.5 159 416 167 422C175 428 186 439.5 189 444C192 448.5 199.5 462 205 463.5C210.5 465 218 473.5 231.5 475C245 476.5 262 470.25 265 469.5C268 468.75 283 469.5 283 469.5C283 469.5 287 470.5 287 475C287 479.5 288.5 477 283 480C277.5 483 270 480.5 265 485C260 489.5 258 501.5 252 505C246 508.5 242 534 234 543C226 552 212.5 563 205 568.5C197.5 574 184.5 584 184.5 584L156.5 597.5H133.5L120.5 586.5L115.5 581C115.5 581 108.5 568.5 113.5 568.5L136.5 547.5L152.5 524L115.5 529.5L91.5001 546L76.5001 574C76.5001 574 73.5001 602.5 68.0001 593C62.5001 583.5 57.5001 568.5 57.5001 568.5C53.7401 552.87 57.5001 536.5 57.5001 536.5Z" fill="#D9B021"/>
<path d="M113.5 568.5C108.5 568.5 115.5 581 115.5 581L120.5 586.5L133.5 597.5H156.5L184.5 584C184.5 584 197.5 574 205 568.5C212.5 563 226 552 234 543C242 534 246 508.5 252 505C258 501.5 260 489.5 265 485C270 480.5 277.5 483 283 480C288.5 477 287 479.5 287 475C287 470.5 283 469.5 283 469.5C283 469.5 268 468.75 265 469.5C262 470.25 245 476.5 231.5 475C218 473.5 210.5 465 205 463.5C199.5 462 192 448.5 189 444C186 439.5 175 428 167 422C159 416 145 408.5 136.5 408C128 407.5 115.5 410.5 104.5 418.5C93.5001 426.5 82 441 76.5001 448.5C71.0001 456 64.5 478 62.5001 485C60.5001 492 57.5001 536.5 57.5001 536.5C57.5001 536.5 53.7401 552.87 57.5001 568.5C57.5001 568.5 62.5001 583.5 68.0001 593C73.5001 602.5 76.5001 574 76.5001 574L91.5001 546L115.5 529.5L152.5 524M113.5 568.5C118.5 568.5 123 565.5 123 565.5C123 565.5 122 564 131.5 562.5C141 561 154.5 547.5 154.5 547.5L162 543L169.5 536.5L179 534L169.5 524H152.5M113.5 568.5L136.5 547.5L152.5 524" stroke="black" stroke-width="7"/>
<path d="M158.5 433.5H148.5L151.5 438L157 445C157 445 163.5 449.5 167 449.5C170.5 449.5 172.5 447.5 172.5 443.5C172.5 439.5 170.5 439.5 168 436.5C165.5 433.5 163.5 433.5 158.5 433.5Z" fill="#0B0B0B"/>
<path d="M158.5 433.5H148.5L151.5 438L157 445C157 445 163.5 449.5 167 449.5C170.5 449.5 172.5 447.5 172.5 443.5C172.5 439.5 170.5 439.5 168 436.5C165.5 433.5 163.5 433.5 158.5 433.5Z" fill="#0B0B0B"/>
<path d="M131.5 440L138 436.5L148.5 433.5M148.5 433.5C148.5 433.5 153.5 433.5 158.5 433.5C163.5 433.5 165.5 433.5 168 436.5C170.5 439.5 172.5 439.5 172.5 443.5C172.5 447.5 170.5 449.5 167 449.5C163.5 449.5 157 445 157 445L151.5 438L148.5 433.5Z" stroke="black"/>
<path d="M168 442.5C168 444.433 164.709 441 162.5 441C161 437.5 156.5 439.433 156.5 437.5C156.5 435.567 161.791 439 164 439C166.209 439 168 440.567 168 442.5Z" fill="#AE2828"/>
</g>
<defs>
<filter id="filter0_d_2_37" x="0.498047" y="107.888" width="457.508" height="585.499" filterUnits="userSpaceOnUse" color-interpolation-filters="sRGB">
<feFlood flood-opacity="0" result="BackgroundImageFix"/>
<feColorMatrix in="SourceAlpha" type="matrix" values="0 0 0 0 0 0 0 0 0 0 0 0 0 0 0 0 0 0 127 0" result="hardAlpha"/>
<feOffset dy="4"/>
<feGaussianBlur stdDeviation="2"/>
<feComposite in2="hardAlpha" operator="out"/>
<feColorMatrix type="matrix" values="0 0 0 0 0 0 0 0 0 0 0 0 0 0 0 0 0 0 0.25 0"/>
<feBlend mode="normal" in2="BackgroundImageFix" result="effect1_dropShadow_2_37"/>
<feBlend mode="normal" in="SourceGraphic" in2="effect1_dropShadow_2_37" result="shape"/>
</filter>
<filter id="filter1_d_2_37" x="41.9039" y="319.875" width="297.716" height="154.958" filterUnits="userSpaceOnUse" color-interpolation-filters="sRGB">
<feFlood flood-opacity="0" result="BackgroundImageFix"/>
<feColorMatrix in="SourceAlpha" type="matrix" values="0 0 0 0 0 0 0 0 0 0 0 0 0 0 0 0 0 0 127 0" result="hardAlpha"/>
<feOffset dy="4"/>
<feGaussianBlur stdDeviation="2"/>
<feComposite in2="hardAlpha" operator="out"/>
<feColorMatrix type="matrix" values="0 0 0 0 0 0 0 0 0 0 0 0 0 0 0 0 0 0 0.25 0"/>
<feBlend mode="normal" in2="BackgroundImageFix" result="effect1_dropShadow_2_37"/>
<feBlend mode="normal" in="SourceGraphic" in2="effect1_dropShadow_2_37" result="shape"/>
</filter>
<filter id="filter2_d_2_37" x="62" y="364" width="204" height="81.5" filterUnits="userSpaceOnUse" color-interpolation-filters="sRGB">
<feFlood flood-opacity="0" result="BackgroundImageFix"/>
<feColorMatrix in="SourceAlpha" type="matrix" values="0 0 0 0 0 0 0 0 0 0 0 0 0 0 0 0 0 0 127 0" result="hardAlpha"/>
<feOffset dy="4"/>
<feGaussianBlur stdDeviation="2"/>
<feComposite in2="hardAlpha" operator="out"/>
<feColorMatrix type="matrix" values="0 0 0 0 0 0 0 0 0 0 0 0 0 0 0 0 0 0 0.25 0"/>
<feBlend mode="normal" in2="BackgroundImageFix" result="effect1_dropShadow_2_37"/>
<feBlend mode="normal" in="SourceGraphic" in2="effect1_dropShadow_2_37" result="shape"/>
</filter>
<filter id="filter3_d_2_37" x="146.67" y="0.982361" width="242.802" height="649.784" filterUnits="userSpaceOnUse" color-interpolation-filters="sRGB">
<feFlood flood-opacity="0" result="BackgroundImageFix"/>
<feColorMatrix in="SourceAlpha" type="matrix" values="0 0 0 0 0 0 0 0 0 0 0 0 0 0 0 0 0 0 127 0" result="hardAlpha"/>
<feOffset dy="4"/>
<feGaussianBlur stdDeviation="2"/>
<feComposite in2="hardAlpha" operator="out"/>
<feColorMatrix type="matrix" values="0 0 0 0 0 0 0 0 0 0 0 0 0 0 0 0 0 0 0.25 0"/>
<feBlend mode="normal" in2="BackgroundImageFix" result="effect1_dropShadow_2_37"/>
<feBlend mode="normal" in="SourceGraphic" in2="effect1_dropShadow_2_37" result="shape"/>
</filter>
<filter id="filter4_di_2_37" x="165.47" y="535.666" width="83.6914" height="115.1" filterUnits="userSpaceOnUse" color-interpolation-filters="sRGB">
<feFlood flood-opacity="0" result="BackgroundImageFix"/>
<feColorMatrix in="SourceAlpha" type="matrix" values="0 0 0 0 0 0 0 0 0 0 0 0 0 0 0 0 0 0 127 0" result="hardAlpha"/>
<feOffset dx="4" dy="4"/>
<feGaussianBlur stdDeviation="2"/>
<feComposite in2="hardAlpha" operator="out"/>
<feColorMatrix type="matrix" values="0 0 0 0 0 0 0 0 0 0 0 0 0 0 0 0 0 0 0.35 0"/>
<feBlend mode="normal" in2="BackgroundImageFix" result="effect1_dropShadow_2_37"/>
<feBlend mode="normal" in="SourceGraphic" in2="effect1_dropShadow_2_37" result="shape"/>
<feColorMatrix in="SourceAlpha" type="matrix" values="0 0 0 0 0 0 0 0 0 0 0 0 0 0 0 0 0 0 127 0" result="hardAlpha"/>
<feOffset dx="4" dy="9"/>
<feGaussianBlur stdDeviation="2"/>
<feComposite in2="hardAlpha" operator="arithmetic" k2="-1" k3="1"/>
<feColorMatrix type="matrix" values="0 0 0 0 0 0 0 0 0 0 0 0 0 0 0 0 0 0 0.25 0"/>
<feBlend mode="normal" in2="shape" result="effect2_innerShadow_2_37"/>
</filter>
<filter id="filter5_d_2_37" x="146.67" y="0.982361" width="242.802" height="302.981" filterUnits="userSpaceOnUse" color-interpolation-filters="sRGB">
<feFlood flood-opacity="0" result="BackgroundImageFix"/>
<feColorMatrix in="SourceAlpha" type="matrix" values="0 0 0 0 0 0 0 0 0 0 0 0 0 0 0 0 0 0 127 0" result="hardAlpha"/>
<feOffset dy="4"/>
<feGaussianBlur stdDeviation="2"/>
<feComposite in2="hardAlpha" operator="out"/>
<feColorMatrix type="matrix" values="0 0 0 0 0 0 0 0 0 0 0 0 0 0 0 0 0 0 0.25 0"/>
<feBlend mode="normal" in2="BackgroundImageFix" result="effect1_dropShadow_2_37"/>
<feBlend mode="normal" in="SourceGraphic" in2="effect1_dropShadow_2_37" result="shape"/>
</filter>
<filter id="filter6_d_2_37" x="48.3289" y="404.447" width="246.357" height="204.553" filterUnits="userSpaceOnUse" color-interpolation-filters="sRGB">
<feFlood flood-opacity="0" result="BackgroundImageFix"/>
<feColorMatrix in="SourceAlpha" type="matrix" values="0 0 0 0 0 0 0 0 0 0 0 0 0 0 0 0 0 0 127 0" result="hardAlpha"/>
<feOffset dy="4"/>
<feGaussianBlur stdDeviation="2"/>
<feComposite in2="hardAlpha" operator="out"/>
<feColorMatrix type="matrix" values="0 0 0 0 0 0 0 0 0 0 0 0 0 0 0 0 0 0 0.25 0"/>
<feBlend mode="normal" in2="BackgroundImageFix" result="effect1_dropShadow_2_37"/>
<feBlend mode="normal" in="SourceGraphic" in2="effect1_dropShadow_2_37" result="shape"/>
</filter>
</defs>
</svg>
